{
.appVersion = "3306";
classes = (
{
automatic = 1;

glyphs = (
{
glyphname = A;
lastChange = "2025-09-15 22:07:33 +0000";
layers = (
{
anchors = (
{
name = Bottom;
position = "{383, 0}";
},
{
name = Greek;
position = "{224, 558}";
},
{
name = Ogonek;
position = "{703, 0}";
},
{
name = Top;
position = "{433, 714}";
}
);
layerId = "FD4D3FDD-DE85-408F-A52A-FF600B1C6101";
paths = (
{
closed = 1;
nodes = (
"22 0 LINE",
"75 0 LINE",
"209 250 LINE",
"592 250 LINE",
"691 0 LINE",
"742 0 LINE",
"459 714 LINE",
"406 714 LINE"
);
},
{
closed = 1;
nodes = (
"429 658 LINE",
"572 298 LINE",
"235 298 LINE"
);
}
);
width = 800;
},
{
anchors = (
{
name = Bottom;
position = "{479, 0}";
},
{
name = Greek;
position = "{174, 558}";
},
{
name = Ogonek;
position = "{823, 0}";
},
{
name = Top;
position = "{529, 714}";
}
);
layerId = m002;
paths = (
{
closed = 1;
nodes = (
"22 0 LINE",
"235 0 LINE",
"292 108 LINE",
"641 108 LINE",
"683 0 LINE",
"894 0 LINE",
"615 714 LINE",
"402 714 LINE"
);
},
{
closed = 1;
nodes = (
"493 485 LINE",
"582 258 LINE",
"372 258 LINE"
);
}
);
width = 952;
}
);
leftKerningGroup = A;
rightKerningGroup = A;
unicode = 0041;
},
{
color = 10;
glyphname = Astroke;
lastChange = "2025-09-15 22:21:24 +0000";
layers = (
{
layerId = "FD4D3FDD-DE85-408F-A52A-FF600B1C6101";
paths = (
{
closed = 1;
nodes = (
"22 0 LINE",
"75 0 LINE",
"209 250 LINE",
"327 250 LINE",
"166 -53 LINE",
"216 -53 LINE",
"377 250 LINE",
"593 250 LINE",
"692 0 LINE",
"743 0 LINE",
"530 536 LINE",
"655 772 LINE",
"604 772 LINE",
"508 591 LINE",
"459 714 LINE",
"406 714 LINE"
);
},
{
closed = 1;
nodes = (
"430 659 LINE",
"479 536 LINE",
"352 298 LINE",
"235 298 LINE"
);
},
{
closed = 1;
nodes = (
"500 482 LINE",
"573 298 LINE",
"403 298 LINE"
);
}
);
width = 801;
},
{
layerId = m002;
paths = (
{
closed = 1;
nodes = (
"22 0 LINE",
"235 0 LINE",
"292 108 LINE",
"357 108 LINE",
"272 -53 LINE",
"324 -53 LINE",
"409 108 LINE",
"642 108 LINE",
"684 0 LINE",
"895 0 LINE",
"663 592 LINE",
"757 772 LINE",
"706 772 LINE",
"641 648 LINE",
"615 714 LINE",
"402 714 LINE"
);
},
{
closed = 1;
nodes = (
"494 486 LINE",
"520 418 LINE",
"436 258 LINE",
"372 258 LINE"
);
},
{
closed = 1;
nodes = (
"542 362 LINE",
"583 258 LINE",
"487 258 LINE"
);
}
);
width = 953;
}
);
leftKerningGroup = A;
leftMetricsKey = A;
rightKerningGroup = A;
rightMetricsKey = A;
unicode = 023A;
},
{
color = 10;
glyphname = AE;
lastChange = "2025-09-15 22:21:37 +0000";
layers = (
{
anchors = (
{
name = Top;
position = "{693, 714}";
}
);
layerId = "FD4D3FDD-DE85-408F-A52A-FF600B1C6101";
paths = (
{
closed = 1;
nodes = (
"22 0 LINE",
"80 0 LINE",
"256 250 LINE",
"500 250 LINE",
"482 0 LINE",
"1023 0 LINE",
"1026 48 LINE",
"535 48 LINE",
"556 344 LINE",
"1026 344 LINE",
"1029 392 LINE",
"559 392 LINE",
"579 666 LINE",
"1069 666 LINE",
"1073 714 LINE",
"526 714 LINE"
);
},
{
closed = 1;
nodes = (
"526 632 LINE",
"503 298 LINE",
"290 298 LINE"
);
}
);
width = 1091;
},
{
anchors = (
{
name = Top;
position = "{753, 714}";
}
);
layerId = m002;
paths = (
{
closed = 1;
nodes = (
"22 0 LINE",
"246 0 LINE",
"350 138 LINE",
"613 138 LINE",
"603 0 LINE",
"1259 0 LINE",
"1270 168 LINE",
"825 168 LINE",
"833 284 LINE",
"1257 284 LINE",
"1269 452 LINE",
"845 452 LINE",
"851 546 LINE",
"1297 546 LINE",
"1309 714 LINE",
"562 714 LINE"
);
},
{
closed = 1;
nodes = (
"640 521 LINE",
"623 288 LINE",
"463 288 LINE"
);
}
);
width = 1317;
}
);
leftKerningGroup = A;
leftMetricsKey = A;
rightKerningGroup = E;
rightMetricsKey = E;
unicode = 00C6;
},
{
glyphname = B;
lastChange = "2025-09-15 22:07:48 +0000";
layers = (
{
layerId = "FD4D3FDD-DE85-408F-A52A-FF600B1C6101";
paths = (
{
closed = 1;
nodes = (
"452 0 LINE SMOOTH",
"579 0 OFFCURVE",
"669 78 OFFCURVE",
"677 197 CURVE SMOOTH",
"684 292 OFFCURVE",
"629 364 OFFCURVE",
"538 374 CURVE",
"540 376 LINE",
"619 388 OFFCURVE",
"675 446 OFFCURVE",
"680 524 CURVE SMOOTH",
"688 637 OFFCURVE",
"607 714 OFFCURVE",
"478 714 CURVE SMOOTH",
"92 714 LINE",
"42 0 LINE"
);
},
{
closed = 1;
nodes = (
"117 351 LINE",
"465 351 LINE SMOOTH",
"569 351 OFFCURVE",
"634 290 OFFCURVE",
"627 197 CURVE SMOOTH",
"621 108 OFFCURVE",
"550 48 OFFCURVE",
"452 48 CURVE SMOOTH",
"95 48 LINE"
);
},
{
closed = 1;
nodes = (
"139 666 LINE",
"476 666 LINE SMOOTH",
"575 666 OFFCURVE",
"636 611 OFFCURVE",
"631 528 CURVE SMOOTH",
"625 451 OFFCURVE",
"559 398 OFFCURVE",
"467 398 CURVE SMOOTH",
"120 398 LINE"
);
}
);
width = 721;
},
{
layerId = m002;
paths = (
{
closed = 1;
nodes = (
"524 0 LINE SMOOTH",
"695 0 OFFCURVE",
"799 77 OFFCURVE",
"808 207 CURVE SMOOTH",
"814 293 OFFCURVE",
"771 354 OFFCURVE",
"697 373 CURVE",
"702 375 LINE SMOOTH",
"765 394 OFFCURVE",
"805 448 OFFCURVE",
"810 519 CURVE SMOOTH",
"818 641 OFFCURVE",
"721 714 OFFCURVE",
"551 714 CURVE SMOOTH",
"92 714 LINE",
"42 0 LINE"
);
},
{
closed = 1;
nodes = (
"273 294 LINE",
"522 294 LINE SMOOTH",
"569 294 OFFCURVE",
"593 271 OFFCURVE",
"590 233 CURVE SMOOTH",
"587 187 OFFCURVE",
"559 160 OFFCURVE",
"519 160 CURVE SMOOTH",
"263 160 LINE"
);
},
{
closed = 1;
nodes = (
"291 554 LINE",
"535 554 LINE SMOOTH",
"573 554 OFFCURVE",
"591 537 OFFCURVE",
"589 509 CURVE SMOOTH",
"587 475 OFFCURVE",
"563 454 OFFCURVE",
"529 454 CURVE SMOOTH",
"284 454 LINE"
);
}
);
width = 842;
}
);
leftKerningGroup = H;
leftMetricsKey = N;
rightKerningGroup = B;
unicode = 0042;
},
{
glyphname = C;
lastChange = "2025-09-15 22:21:43 +0000";
layers = (
{
anchors = (
{
name = Bottom;
position = "{417, 0}";
},
{
name = Top;
position = "{457, 726}";
}
);
layerId = "FD4D3FDD-DE85-408F-A52A-FF600B1C6101";
paths = (
{
closed = 1;
nodes = (
"709 217 LINE",
"689 108 OFFCURVE",
"571 35 OFFCURVE",
"414 35 CURVE SMOOTH",
"216 35 OFFCURVE",
"93 163 OFFCURVE",
"107 356 CURVE SMOOTH",
"120 549 OFFCURVE",
"259 678 OFFCURVE",
"455 678 CURVE SMOOTH",
"618 678 OFFCURVE",
"730 606 OFFCURVE",
"736 497 CURVE",
"786 495 LINE",
"782 634 OFFCURVE",
"650 726 OFFCURVE",
"456 726 CURVE SMOOTH",
"232 726 OFFCURVE",
"72 579 OFFCURVE",
"57 358 CURVE SMOOTH",
"41 135 OFFCURVE",
"183 -13 OFFCURVE",
"413 -13 CURVE SMOOTH",
"599 -13 OFFCURVE",
"737 78 OFFCURVE",
"759 215 CURVE"
);
}
);
width = 820;
},
{
anchors = (
{
name = Bottom;
position = "{452, 0}";
},
{
name = Top;
position = "{482, 726}";
}
);
layerId = m002;
paths = (
{
closed = 1;
nodes = (
"634 288 LINE",
"619 208 OFFCURVE",
"544 155 OFFCURVE",
"448 155 CURVE SMOOTH",
"331 155 OFFCURVE",
"258 234 OFFCURVE",
"266 352 CURVE SMOOTH",
"275 476 OFFCURVE",
"363 558 OFFCURVE",
"485 558 CURVE SMOOTH",
"579 558 OFFCURVE",
"646 506 OFFCURVE",
"652 428 CURVE",
"871 424 LINE",
"865 605 OFFCURVE",
"708 726 OFFCURVE",
"478 726 CURVE SMOOTH",
"234 726 OFFCURVE",
"62 580 OFFCURVE",
"47 362 CURVE SMOOTH",
"31 137 OFFCURVE",
"190 -13 OFFCURVE",
"445 -13 CURVE SMOOTH",
"661 -13 OFFCURVE",
"824 106 OFFCURVE",
"854 284 CURVE"
);
}
);
width = 900;
}
);
leftKerningGroup = O;
leftMetricsKey = O;
rightKerningGroup = O;
rightMetricsKey = O;
unicode = 0043;
},
{
color = 10;
glyphname = Cstroke;
lastChange = "2025-09-15 22:21:48 +0000";
layers = (
{
layerId = "FD4D3FDD-DE85-408F-A52A-FF600B1C6101";
paths = (
{
closed = 1;
nodes = (
"709 218 LINE",
"689 108 OFFCURVE",
"570 35 OFFCURVE",
"411 35 CURVE SMOOTH",
"364 35 OFFCURVE",
"320 43 OFFCURVE",
"282 57 CURVE",
"600 656 LINE",
"681 626 OFFCURVE",
"732 570 OFFCURVE",
"737 498 CURVE",
"786 494 LINE",
"783 588 OFFCURVE",
"722 660 OFFCURVE",
"623 698 CURVE",
"662 772 LINE",
"611 772 LINE",
"579 711 LINE",
"541 721 OFFCURVE",
"499 726 OFFCURVE",
"453 726 CURVE SMOOTH",
"215 726 OFFCURVE",
"56 567 OFFCURVE",
"56 328 CURVE SMOOTH",
"56 195 OFFCURVE",
"117 91 OFFCURVE",
"218 34 CURVE",
"172 -53 LINE",
"224 -53 LINE",
"260 15 LINE",
"306 -3 OFFCURVE",
"358 -13 OFFCURVE",
"416 -13 CURVE SMOOTH",
"600 -13 OFFCURVE",
"737 78 OFFCURVE",
"759 214 CURVE"
);
},
{
closed = 1;
nodes = (
"105 537 OFFCURVE",
"247 678 OFFCURVE",
"459 678 CURVE SMOOTH",
"494 678 OFFCURVE",
"526 675 OFFCURVE",
"556 668 CURVE",
"241 76 LINE",
"156 125 OFFCURVE",
"105 213 OFFCURVE",
"105 325 CURVE SMOOTH"
);
}
);
width = 820;
},
{
layerId = m002;
paths = (
{
closed = 1;
nodes = (
"634 288 LINE",
"619 208 OFFCURVE",
"544 155 OFFCURVE",
"448 155 CURVE SMOOTH",
"424 155 OFFCURVE",
"401 159 OFFCURVE",
"381 165 CURVE",
"576 538 LINE",
"620 516 OFFCURVE",
"648 477 OFFCURVE",
"652 428 CURVE",
"871 424 LINE",
"867 552 OFFCURVE",
"787 650 OFFCURVE",
"659 696 CURVE",
"699 772 LINE",
"648 772 LINE",
"615 710 LINE",
"573 720 OFFCURVE",
"527 726 OFFCURVE",
"478 726 CURVE SMOOTH",
"219 726 OFFCURVE",
"46 568 OFFCURVE",
"46 331 CURVE SMOOTH",
"46 187 OFFCURVE",
"124 76 OFFCURVE",
"254 22 CURVE",
"214 -53 LINE",
"266 -53 LINE",
"297 7 LINE",
"342 -6 OFFCURVE",
"392 -13 OFFCURVE",
"445 -13 CURVE SMOOTH",
"661 -13 OFFCURVE",
"824 106 OFFCURVE",
"854 284 CURVE"
);
},
{
closed = 1;
nodes = (
"265 468 OFFCURVE",
"353 558 OFFCURVE",
"485 558 CURVE SMOOTH",
"502 558 OFFCURVE",
"518 556 OFFCURVE",
"533 553 CURVE",
"339 185 LINE",
"293 216 OFFCURVE",
"265 268 OFFCURVE",
"265 334 CURVE SMOOTH"
);
}
);
width = 900;
}
);
leftKerningGroup = O;
leftMetricsKey = C;
rightKerningGroup = O;
rightMetricsKey = C;
unicode = 023B;
},
{
glyphname = D;
lastChange = "2025-09-15 22:21:51 +0000";
layers = (
{
anchors = (
{
name = Bottom;
position = "{320, 0}";
},
{
name = Top;
position = "{366, 714}";
}
);
layerId = "FD4D3FDD-DE85-408F-A52A-FF600B1C6101";
paths = (
{
closed = 1;
nodes = (
"366 0 LINE SMOOTH",
"570 0 OFFCURVE",
"716 142 OFFCURVE",
"731 356 CURVE SMOOTH",
"746 570 OFFCURVE",
"619 714 OFFCURVE",
"415 714 CURVE SMOOTH",
"92 714 LINE",
"42 0 LINE"
);
},
{
closed = 1;
nodes = (
"139 666 LINE",
"413 666 LINE SMOOTH",
"587 666 OFFCURVE",
"694 543 OFFCURVE",
"681 357 CURVE SMOOTH",
"668 172 OFFCURVE",
"542 48 OFFCURVE",
"368 48 CURVE SMOOTH",
"95 48 LINE"
);
}
);
width = 774;
},
{
anchors = (
{
name = Bottom;
position = "{380, 0}";
},
{
name = Top;
position = "{426, 714}";
}
);
layerId = m002;
paths = (
{
closed = 1;
nodes = (
"458 0 LINE SMOOTH",
"692 0 OFFCURVE",
"855 141 OFFCURVE",
"870 352 CURVE SMOOTH",
"885 569 OFFCURVE",
"737 714 OFFCURVE",
"503 714 CURVE SMOOTH",
"92 714 LINE",
"42 0 LINE"
);
},
{
closed = 1;
nodes = (
"290 546 LINE",
"496 546 LINE SMOOTH",
"598 546 OFFCURVE",
"659 472 OFFCURVE",
"651 361 CURVE SMOOTH",
"643 245 OFFCURVE",
"567 168 OFFCURVE",
"465 168 CURVE SMOOTH",
"264 168 LINE"
);
}
);
width = 904;
}
);
leftKerningGroup = H;
leftMetricsKey = N;
rightKerningGroup = O;
rightMetricsKey = O;
unicode = 0044;
},
{
color = 10;
glyphname = Eth;
lastChange = "2025-09-15 22:21:52 +0000";
layers = (
{
layerId = "FD4D3FDD-DE85-408F-A52A-FF600B1C6101";
paths = (
{
closed = 1;
nodes = (
"417 0 LINE SMOOTH",
"637 0 OFFCURVE",
"783 156 OFFCURVE",
"783 390 CURVE SMOOTH",
"783 584 OFFCURVE",
"656 714 OFFCURVE",
"466 714 CURVE SMOOTH",
"143 714 LINE",
"120 381 LINE",
"70 386 LINE",
"66 341 LINE",
"117 341 LINE",
"93 0 LINE"
);
},
{
closed = 1;
nodes = (
"167 341 LINE",
"267 341 LINE",
"270 383 LINE",
"170 383 LINE",
"190 666 LINE",
"464 666 LINE SMOOTH",
"625 666 OFFCURVE",
"733 554 OFFCURVE",
"733 387 CURVE SMOOTH",
"733 184 OFFCURVE",
"607 48 OFFCURVE",
"419 48 CURVE SMOOTH",
"146 48 LINE"
);
}
);
width = 825;
},
{
layerId = m002;
paths = (
{
closed = 1;
nodes = (
"505 0 LINE SMOOTH",
"753 0 OFFCURVE",
"918 153 OFFCURVE",
"918 382 CURVE SMOOTH",
"918 581 OFFCURVE",
"771 714 OFFCURVE",
"550 714 CURVE SMOOTH",
"139 714 LINE",
"118 417 LINE",
"71 422 LINE",
"63 299 LINE",
"110 299 LINE",
"89 0 LINE"
);
},
{
closed = 1;
nodes = (
"320 299 LINE",
"427 299 LINE",
"435 419 LINE",
"328 419 LINE",
"337 546 LINE",
"543 546 LINE SMOOTH",
"637 546 OFFCURVE",
"699 480 OFFCURVE",
"699 380 CURVE SMOOTH",
"699 253 OFFCURVE",
"624 168 OFFCURVE",
"512 168 CURVE SMOOTH",
"311 168 LINE"
);
}
);
width = 951;
}
);
leftKerningGroup = H;
leftMetricsKey = D;
rightKerningGroup = O;
rightMetricsKey = D;
unicode = 00D0;
},
{
glyphname = E;
lastChange = "2025-09-15 22:08:13 +0000";
layers = (
{
anchors = (
{
name = Bottom;
position = "{547, 0}";
},
{
name = Dot;
position = "{311, 0}";
},
{
name = Greek;
position = "{-67, 558}";
},
{
name = Top;
position = "{365, 714}";
}
);
layerId = "FD4D3FDD-DE85-408F-A52A-FF600B1C6101";
paths = (
{
closed = 1;
nodes = (
"119 392 LINE",
"139 666 LINE",
"629 666 LINE",
"633 714 LINE",
"92 714 LINE",
"42 0 LINE",
"583 0 LINE",
"586 48 LINE",
"95 48 LINE",
"116 344 LINE",
"586 344 LINE",
"589 392 LINE"
);
}
);
width = 651;
},
{
anchors = (
{
name = Bottom;
position = "{626, 0}";
},
{
name = Dot;
position = "{416, 0}";
},
{
name = Greek;
position = "{-112, 558}";
},
{
name = Top;
position = "{445, 714}";
}
);
layerId = m002;
paths = (
{
closed = 1;
nodes = (
"284 452 LINE",
"290 546 LINE",
"736 546 LINE",
"748 714 LINE",
"92 714 LINE",
"42 0 LINE",
"698 0 LINE",
"709 168 LINE",
"264 168 LINE",
"272 284 LINE",
"696 284 LINE",
"708 452 LINE"
);
}
);
width = 756;
}
);
leftKerningGroup = H;
leftMetricsKey = N;
rightKerningGroup = E;
unicode = 0045;
},
{
color = 10;
glyphname = Eopen;
lastChange = "2025-09-15 22:21:54 +0000";
layers = (
{
layerId = "FD4D3FDD-DE85-408F-A52A-FF600B1C6101";
paths = (
{
closed = 1;
nodes = (
"105 281 OFFCURVE",
"206 348 OFFCURVE",
"358 348 CURVE SMOOTH",
"444 348 LINE",
"447 396 LINE",
"360 396 LINE SMOOTH",
"235 396 OFFCURVE",
"152 450 OFFCURVE",
"152 530 CURVE SMOOTH",
"152 620 OFFCURVE",
"253 680 OFFCURVE",
"405 680 CURVE SMOOTH",
"480 680 OFFCURVE",
"546 672 OFFCURVE",
"569 659 CURVE",
"571 704 LINE",
"544 717 OFFCURVE",
"475 726 OFFCURVE",
"399 726 CURVE SMOOTH",
"221 726 OFFCURVE",
"102 648 OFFCURVE",
"102 531 CURVE SMOOTH",
"102 463 OFFCURVE",
"150 400 OFFCURVE",
"223 373 CURVE",
"223 371 LINE",
"122 353 OFFCURVE",
"55 276 OFFCURVE",
"55 178 CURVE SMOOTH",
"55 63 OFFCURVE",
"172 -13 OFFCURVE",
"347 -13 CURVE SMOOTH",
"429 -13 OFFCURVE",
"499 -4 OFFCURVE",
"521 9 CURVE",
"523 54 LINE",
"500 41 OFFCURVE",
"433 33 OFFCURVE",
"355 33 CURVE SMOOTH",
"205 33 OFFCURVE",
"105 92 OFFCURVE",
"105 180 CURVE SMOOTH"
);
}
);
width = 591;
},
{
layerId = m002;
paths = (
{
closed = 1;
nodes = (
"258 277 OFFCURVE",
"316 307 OFFCURVE",
"414 307 CURVE SMOOTH",
"492 307 LINE",
"501 437 LINE",
"416 437 LINE SMOOTH",
"342 437 OFFCURVE",
"299 454 OFFCURVE",
"299 482 CURVE SMOOTH",
"299 532 OFFCURVE",
"362 561 OFFCURVE",
"469 561 CURVE SMOOTH",
"516 561 OFFCURVE",
"562 550 OFFCURVE",
"593 532 CURVE",
"600 693 LINE",
"560 714 OFFCURVE",
"500 726 OFFCURVE",
"439 726 CURVE SMOOTH",
"226 726 OFFCURVE",
"100 645 OFFCURVE",
"100 508 CURVE SMOOTH",
"100 448 OFFCURVE",
"129 398 OFFCURVE",
"179 374 CURVE",
"179 372 LINE",
"102 344 OFFCURVE",
"56 281 OFFCURVE",
"56 203 CURVE SMOOTH",
"56 67 OFFCURVE",
"191 -13 OFFCURVE",
"419 -13 CURVE SMOOTH",
"472 -13 OFFCURVE",
"526 -5 OFFCURVE",
"566 8 CURVE",
"574 178 LINE",
"541 164 OFFCURVE",
"486 155 OFFCURVE",
"427 155 CURVE SMOOTH",
"321 155 OFFCURVE",
"258 181 OFFCURVE",
"258 226 CURVE SMOOTH"
);
}
);
width = 624;
}
);
leftKerningGroup = O;
leftMetricsKey = E;
rightKerningGroup = E;
rightMetricsKey = E;
unicode = 0190;
},
{
color = 10;
glyphname = Ezh;
lastChange = "2025-09-15 22:21:56 +0000";
layers = (
{
anchors = (
{
name = Top;
position = "{365, 714}";
}
);
layerId = "FD4D3FDD-DE85-408F-A52A-FF600B1C6101";
paths = (
{
closed = 1;
nodes = (
"100 666 LINE",
"579 666 LINE",
"339 469 LINE",
"336 421 LINE",
"372 421 LINE SMOOTH",
"513 421 OFFCURVE",
"602 345 OFFCURVE",
"594 230 CURVE SMOOTH",
"586 113 OFFCURVE",
"482 35 OFFCURVE",
"335 35 CURVE SMOOTH",
"185 35 OFFCURVE",
"89 103 OFFCURVE",
"96 205 CURVE",
"46 207 LINE",
"37 75 OFFCURVE",
"152 -13 OFFCURVE",
"333 -13 CURVE SMOOTH",
"509 -13 OFFCURVE",
"633 83 OFFCURVE",
"644 228 CURVE SMOOTH",
"653 365 OFFCURVE",
"557 458 OFFCURVE",
"402 468 CURVE",
"647 666 LINE",
"651 714 LINE",
"104 714 LINE"
);
}
);
width = 696;
},
{
anchors = (
{
name = Top;
position = "{415, 714}";
}
);
layerId = m002;
paths = (
{
closed = 1;
nodes = (
"83 564 LINE",
"532 564 LINE",
"370 479 LINE",
"360 329 LINE",
"409 329 LINE SMOOTH",
"495 329 OFFCURVE",
"550 293 OFFCURVE",
"546 240 CURVE SMOOTH",
"543 185 OFFCURVE",
"481 149 OFFCURVE",
"392 149 CURVE SMOOTH",
"301 149 OFFCURVE",
"242 179 OFFCURVE",
"245 224 CURVE",
"38 228 LINE",
"28 83 OFFCURVE",
"167 -13 OFFCURVE",
"385 -13 CURVE SMOOTH",
"595 -13 OFFCURVE",
"743 84 OFFCURVE",
"754 230 CURVE SMOOTH",
"761 334 OFFCURVE",
"696 415 OFFCURVE",
"583 454 CURVE",
"750 564 LINE",
"761 714 LINE",
"94 714 LINE"
);
}
);
width = 796;
}
);
leftKerningGroup = three;
leftMetricsKey = O;
rightKerningGroup = O;
rightMetricsKey = O;
unicode = 01B7;
},
{
glyphname = F;
lastChange = "2025-09-15 22:08:17 +0000";
layers = (
{
anchors = (
{
name = Bottom;
position = "{265, 0}";
},
{
name = Top;
position = "{357, 726}";
}
);
layerId = "FD4D3FDD-DE85-408F-A52A-FF600B1C6101";
paths = (
{
closed = 1;
nodes = (
"119 392 LINE",
"139 666 LINE",
"629 666 LINE",
"633 714 LINE",
"92 714 LINE",
"42 0 LINE",
"92 0 LINE",
"116 344 LINE",
"586 344 LINE",
"589 392 LINE"
);
}
);
width = 651;
},
{
anchors = (
{
name = Bottom;
position = "{385, 0}";
},
{
name = Top;
position = "{377, 714}";
}
);
layerId = m002;
paths = (
{
closed = 1;
nodes = (
"284 452 LINE",
"290 546 LINE",
"736 546 LINE",
"748 714 LINE",
"92 714 LINE",
"42 0 LINE",
"252 0 LINE",
"272 284 LINE",
"696 284 LINE",
"708 452 LINE"
);
}
);
width = 756;
}
);
leftKerningGroup = H;
leftMetricsKey = N;
rightKerningGroup = F;
unicode = 0046;
},
{
glyphname = G;
lastChange = "2025-09-15 22:08:29 +0000";
layers = (
{
anchors = (
{
name = Bottom;
position = "{422, 0}";
},
{
name = Top;
position = "{479, 726}";
}
);
layerId = "FD4D3FDD-DE85-408F-A52A-FF600B1C6101";
paths = (
{
closed = 1;
nodes = (
"447 327 LINE",
"443 279 LINE",
"718 279 LINE",
"707 136 LINE",
"663 75 OFFCURVE",
"553 35 OFFCURVE",
"423 35 CURVE SMOOTH",
"219 35 OFFCURVE",
"93 163 OFFCURVE",
"107 356 CURVE SMOOTH",
"120 549 OFFCURVE",
"268 678 OFFCURVE",
"477 678 CURVE SMOOTH",
"638 678 OFFCURVE",
"750 606 OFFCURVE",
"756 497 CURVE",
"806 495 LINE",
"802 634 OFFCURVE",
"671 726 OFFCURVE",
"478 726 CURVE SMOOTH",
"240 726 OFFCURVE",
"72 579 OFFCURVE",
"57 358 CURVE SMOOTH",
"41 135 OFFCURVE",
"187 -13 OFFCURVE",
"422 -13 CURVE SMOOTH",
"539 -13 OFFCURVE",
"650 13 OFFCURVE",
"700 52 CURVE",
"701 52 LINE",
"682 0 LINE",
"748 0 LINE",
"771 327 LINE"
);
}
);
width = 850;
},
{
anchors = (
{
name = Bottom;
position = "{451, 0}";
},
{
name = Top;
position = "{501, 726}";
}
);
layerId = m002;
paths = (
{
closed = 1;
nodes = (
"492 389 LINE",
"483 259 LINE",
"660 259 LINE",
"656 203 LINE",
"629 167 OFFCURVE",
"557 145 OFFCURVE",
"463 145 CURVE SMOOTH",
"339 145 OFFCURVE",
"265 214 OFFCURVE",
"265 331 CURVE SMOOTH",
"265 474 OFFCURVE",
"349 558 OFFCURVE",
"491 558 CURVE SMOOTH",
"589 558 OFFCURVE",
"648 525 OFFCURVE",
"651 468 CURVE",
"870 464 LINE",
"864 629 OFFCURVE",
"718 726 OFFCURVE",
"478 726 CURVE SMOOTH",
"206 726 OFFCURVE",
"46 578 OFFCURVE",
"46 327 CURVE SMOOTH",
"46 113 OFFCURVE",
"197 -13 OFFCURVE",
"453 -13 CURVE SMOOTH",
"533 -13 OFFCURVE",
"604 10 OFFCURVE",
"644 50 CURVE",
"647 50 LINE",
"615 0 LINE",
"824 0 LINE",
"851 389 LINE"
);
}
);
width = 916;
}
);
leftKerningGroup = O;
leftMetricsKey = O;
rightKerningGroup = G;
rightMetricsKey = N;
unicode = 0047;
},
{
color = 10;
glyphname = Glottalstop;
lastChange = "2025-09-15 22:21:58 +0000";
layers = (
{
layerId = "FD4D3FDD-DE85-408F-A52A-FF600B1C6101";
paths = (
{
closed = 1;
nodes = (
"327 313 OFFCURVE",
"597 283 OFFCURVE",
"614 519 CURVE SMOOTH",
"623 643 OFFCURVE",
"522 726 OFFCURVE",
"361 726 CURVE SMOOTH",
"194 726 OFFCURVE",
"77 643 OFFCURVE",
"68 518 CURVE",
"118 522 LINE",
"125 616 OFFCURVE",
"220 678 OFFCURVE",
"357 678 CURVE SMOOTH",
"488 678 OFFCURVE",
"571 616 OFFCURVE",
"564 523 CURVE SMOOTH",
"550 317 OFFCURVE",
"279 342 OFFCURVE",
"255 2 CURVE",
"304 -2 LINE"
);
}
);
width = 636;
},
{
layerId = m002;
paths = (
{
closed = 1;
nodes = (
"422 256 OFFCURVE",
"714 214 OFFCURVE",
"732 473 CURVE SMOOTH",
"743 632 OFFCURVE",
"624 726 OFFCURVE",
"411 726 CURVE SMOOTH",
"198 726 OFFCURVE",
"65 628 OFFCURVE",
"54 463 CURVE",
"274 467 LINE",
"278 524 OFFCURVE",
"324 558 OFFCURVE",
"399 558 CURVE SMOOTH",
"473 558 OFFCURVE",
"515 528 OFFCURVE",
"511 477 CURVE SMOOTH",
"499 305 OFFCURVE",
"216 323 OFFCURVE",
"194 2 CURVE",
"403 -2 LINE"
);
}
);
width = 757;
}
);
leftKerningGroup = O;
leftMetricsKey = O;
rightKerningGroup = P;
rightMetricsKey = P;
unicode = 0241;
},
{
color = 10;
glyphname = Gstroke;
lastChange = "2025-09-15 22:22:00 +0000";
layers = (
{
layerId = "FD4D3FDD-DE85-408F-A52A-FF600B1C6101";
paths = (
{
closed = 1;
nodes = (
"447 327 LINE",
"443 279 LINE",
"717 279 LINE",
"713 222 LINE",
"614 227 LINE",
"610 182 LINE",
"710 182 LINE",
"706 128 LINE",
"656 72 OFFCURVE",
"544 35 OFFCURVE",
"420 35 CURVE SMOOTH",
"231 35 OFFCURVE",
"105 151 OFFCURVE",
"105 325 CURVE SMOOTH",
"105 537 OFFCURVE",
"255 678 OFFCURVE",
"481 678 CURVE SMOOTH",
"640 678 OFFCURVE",
"750 606 OFFCURVE",
"757 498 CURVE",
"806 494 LINE",
"802 633 OFFCURVE",
"670 726 OFFCURVE",
"475 726 CURVE SMOOTH",
"224 726 OFFCURVE",
"56 567 OFFCURVE",
"56 329 CURVE SMOOTH",
"56 124 OFFCURVE",
"204 -13 OFFCURVE",
"425 -13 CURVE SMOOTH",
"537 -13 OFFCURVE",
"646 16 OFFCURVE",
"698 55 CURVE",
"700 54 LINE",
"682 0 LINE",
"748 0 LINE",
"761 182 LINE",
"810 182 LINE",
"813 224 LINE",
"764 224 LINE",
"771 327 LINE"
);
}
);
width = 876;
},
{
layerId = m002;
paths = (
{
closed = 1;
nodes = (
"492 389 LINE",
"483 259 LINE",
"660 259 LINE",
"659 244 LINE",
"560 249 LINE",
"555 176 LINE",
"623 176 LINE",
"623 174 LINE",
"588 156 OFFCURVE",
"529 145 OFFCURVE",
"463 145 CURVE SMOOTH",
"339 145 OFFCURVE",
"265 214 OFFCURVE",
"265 331 CURVE SMOOTH",
"265 474 OFFCURVE",
"349 558 OFFCURVE",
"491 558 CURVE SMOOTH",
"589 558 OFFCURVE",
"648 525 OFFCURVE",
"651 468 CURVE",
"870 464 LINE",
"864 629 OFFCURVE",
"718 726 OFFCURVE",
"478 726 CURVE SMOOTH",
"206 726 OFFCURVE",
"46 578 OFFCURVE",
"46 327 CURVE SMOOTH",
"46 113 OFFCURVE",
"196 -13 OFFCURVE",
"451 -13 CURVE SMOOTH",
"533 -13 OFFCURVE",
"605 11 OFFCURVE",
"645 51 CURVE",
"647 50 LINE",
"615 0 LINE",
"824 0 LINE",
"836 176 LINE",
"886 176 LINE",
"891 246 LINE",
"841 246 LINE",
"851 389 LINE"
);
}
);
width = 952;
}
);
leftKerningGroup = O;
leftMetricsKey = G;
rightKerningGroup = G;
rightMetricsKey = G;
unicode = 01E4;
},
{
glyphname = H;
lastChange = "2025-09-15 22:08:34 +0000";
layers = (
{
anchors = (
{
name = Bottom;
position = "{354, 0}";
},
{
name = Greek;
position = "{-67, 558}";
},
{
name = Top;
position = "{404, 714}";
}
);
layerId = "FD4D3FDD-DE85-408F-A52A-FF600B1C6101";
paths = (
{
closed = 1;
nodes = (
"644 397 LINE",
"120 397 LINE",
"142 714 LINE",
"92 714 LINE",
"42 0 LINE",
"92 0 LINE",
"116 349 LINE",
"640 349 LINE",
"616 0 LINE",
"666 0 LINE",
"716 714 LINE",
"666 714 LINE"
);
}
);
width = 744;
},
{
anchors = (
{
name = Bottom;
position = "{427, 0}";
},
{
name = Greek;
position = "{-112, 558}";
},
{
name = Top;
position = "{477, 714}";
}
);
layerId = m002;
paths = (
{
closed = 1;
nodes = (
"627 448 LINE",
"283 448 LINE",
"302 714 LINE",
"92 714 LINE",
"42 0 LINE",
"252 0 LINE",
"272 280 LINE",
"616 280 LINE",
"596 0 LINE",
"806 0 LINE",
"856 714 LINE",
"646 714 LINE"
);
}
);
width = 884;
}
);
leftKerningGroup = H;
leftMetricsKey = N;
rightKerningGroup = H;
rightMetricsKey = N;
unicode = 0048;
},
{
color = 10;
glyphname = Hbar;
lastChange = "2025-09-15 22:22:02 +0000";
layers = (
{
layerId = "FD4D3FDD-DE85-408F-A52A-FF600B1C6101";
paths = (
{
closed = 1;
nodes = (
"758 602 LINE",
"234 600 LINE",
"242 714 LINE",
"192 714 LINE",
"184 601 LINE",
"84 605 LINE",
"81 560 LINE",
"181 560 LINE",
"142 0 LINE",
"192 0 LINE",
"216 349 LINE",
"740 349 LINE",
"716 0 LINE",
"766 0 LINE",
"805 560 LINE",
"905 560 LINE",
"908 602 LINE",
"808 602 LINE",
"816 714 LINE",
"766 714 LINE"
);
},
{
closed = 1;
nodes = (
"231 560 LINE",
"755 560 LINE",
"744 397 LINE",
"220 397 LINE"
);
}
);
width = 944;
},
{
layerId = m002;
paths = (
{
closed = 1;
nodes = (
"732 638 LINE",
"388 637 LINE",
"393 714 LINE",
"183 714 LINE",
"178 638 LINE",
"87 641 LINE",
"79 518 LINE",
"169 518 LINE",
"133 0 LINE",
"343 0 LINE",
"363 280 LINE",
"707 280 LINE",
"687 0 LINE",
"897 0 LINE",
"933 518 LINE",
"1033 518 LINE",
"1041 638 LINE",
"942 638 LINE",
"947 714 LINE",
"737 714 LINE"
);
},
{
closed = 1;
nodes = (
"379 518 LINE",
"723 518 LINE",
"718 448 LINE",
"374 448 LINE"
);
}
);
width = 1075;
}
);
leftKerningGroup = H;
leftMetricsKey = N;
rightKerningGroup = H;
rightMetricsKey = N;
unicode = 0126;
},
{
glyphname = I;
lastChange = "2025-09-15 22:08:39 +0000";
layers = (
{
anchors = (
{
name = Bottom;
position = "{67, 0}";
},
{
name = Greek;
position = "{-67, 558}";
},
{
name = Top;
position = "{117, 714}";
}
);
layerId = "FD4D3FDD-DE85-408F-A52A-FF600B1C6101";
paths = (
{
closed = 1;
nodes = (
"42 0 LINE",
"92 0 LINE",
"142 714 LINE",
"92 714 LINE"
);
}
);
width = 170;
},
{
anchors = (
{
name = Bottom;
position = "{147, 0}";
},
{
name = Greek;
position = "{-112, 558}";
},
{
name = Top;
position = "{197, 714}";
}
);
layerId = m002;
paths = (
{
closed = 1;
nodes = (
"42 0 LINE",
"252 0 LINE",
"302 714 LINE",
"92 714 LINE"
);
}
);
width = 330;
}
);
leftKerningGroup = H;
leftMetricsKey = N;
rightKerningGroup = H;
rightMetricsKey = N;
unicode = 0049;
},
{
color = 10;
glyphname = IJ;
lastChange = "2025-09-15 22:22:04 +0000";
layers = (
{
layerId = "FD4D3FDD-DE85-408F-A52A-FF600B1C6101";
paths = (
{
closed = 1;
nodes = (
"53 160 LINE",
"103 160 LINE",
"142 714 LINE",
"92 714 LINE"
);
},
{
closed = 1;
nodes = (
"80 -8 OFFCURVE",
"104 -13 OFFCURVE",
"128 -13 CURVE SMOOTH",
"244 -13 OFFCURVE",
"317 47 OFFCURVE",
"324 151 CURVE SMOOTH",
"364 714 LINE",
"314 714 LINE",
"274 153 LINE SMOOTH",
"269 79 OFFCURVE",
"215 34 OFFCURVE",
"130 34 CURVE SMOOTH",
"103 34 OFFCURVE",
"79 39 OFFCURVE",
"64 48 CURVE",
"62 0 LINE"
);
}
);
width = 392;
},
{
layerId = m002;
paths = (
{
closed = 1;
nodes = (
"59 240 LINE",
"229 240 LINE",
"263 714 LINE",
"93 714 LINE"
);
},
{
closed = 1;
nodes = (
"192 -7 OFFCURVE",
"215 -13 OFFCURVE",
"237 -13 CURVE SMOOTH",
"393 -13 OFFCURVE",
"489 65 OFFCURVE",
"499 200 CURVE SMOOTH",
"535 714 LINE",
"365 714 LINE",
"331 234 LINE SMOOTH",
"328 184 OFFCURVE",
"293 153 OFFCURVE",
"241 153 CURVE SMOOTH",
"220 153 OFFCURVE",
"198 158 OFFCURVE",
"182 167 CURVE",
"175 1 LINE"
);
}
);
width = 563;
}
);
leftKerningGroup = I;
leftMetricsKey = N;
rightKerningGroup = U;
rightMetricsKey = N;
unicode = 0132;
},
{
color = 10;
glyphname = Istroke;
lastChange = "2025-09-15 22:22:06 +0000";
layers = (
{
layerId = "FD4D3FDD-DE85-408F-A52A-FF600B1C6101";
paths = (
{
closed = 1;
nodes = (
"140 381 LINE",
"70 386 LINE",
"66 341 LINE",
"137 341 LINE",
"113 0 LINE",
"163 0 LINE",
"187 341 LINE",
"256 341 LINE",
"259 383 LINE",
"190 383 LINE",
"213 714 LINE",
"163 714 LINE"
);
}
);
width = 310;
},
{
layerId = m002;
paths = (
{
closed = 1;
nodes = (
"148 417 LINE",
"71 422 LINE",
"63 299 LINE",
"140 299 LINE",
"119 0 LINE",
"329 0 LINE",
"350 299 LINE",
"425 299 LINE",
"433 419 LINE",
"358 419 LINE",
"379 714 LINE",
"169 714 LINE"
);
}
);
width = 482;
}
);
leftKerningGroup = Istroke;
leftMetricsKey = N;
rightKerningGroup = Istroke;
rightMetricsKey = N;
unicode = 0197;
},
{
glyphname = J;
lastChange = "2025-09-15 22:08:56 +0000";
layers = (
{
anchors = (
{
name = Bottom;
position = "{157, 0}";
},
{
name = Top;
position = "{385, 714}";
}
);
layerId = "FD4D3FDD-DE85-408F-A52A-FF600B1C6101";
paths = (
{
closed = 1;
nodes = (
"410 714 LINE",
"360 714 LINE",
"325 213 LINE SMOOTH",
"317 101 OFFCURVE",
"235 34 OFFCURVE",
"106 34 CURVE SMOOTH",
"71 34 OFFCURVE",
"42 39 OFFCURVE",
"25 48 CURVE",
"23 0 LINE",
"41 -8 OFFCURVE",
"70 -13 OFFCURVE",
"104 -13 CURVE SMOOTH",
"264 -13 OFFCURVE",
"365 70 OFFCURVE",
"374 211 CURVE SMOOTH"
);
}
);
width = 438;
},
{
anchors = (
{
name = Bottom;
position = "{108, 0}";
},
{
name = Top;
position = "{390, 714}";
}
);
layerId = m002;
paths = (
{
closed = 1;
nodes = (
"501 714 LINE",
"291 714 LINE",
"262 299 LINE SMOOTH",
"256 219 OFFCURVE",
"192 163 OFFCURVE",
"103 163 CURVE SMOOTH",
"82 163 OFFCURVE",
"53 168 OFFCURVE",
"34 177 CURVE",
"26 1 LINE",
"43 -7 OFFCURVE",
"77 -13 OFFCURVE",
"114 -13 CURVE SMOOTH",
"316 -13 OFFCURVE",
"457 87 OFFCURVE",
"467 240 CURVE SMOOTH"
);
}
);
width = 529;
}
);
leftKerningGroup = J;
rightKerningGroup = U;
rightMetricsKey = N;
unicode = 004A;
},
{
glyphname = K;
lastChange = "2025-09-15 22:09:03 +0000";
layers = (
{
anchors = (
{
name = Bottom;
position = "{301, 0}";
},
{
name = Top;
position = "{355, 714}";
}
);
layerId = "FD4D3FDD-DE85-408F-A52A-FF600B1C6101";
paths = (
{
closed = 1;
nodes = (
"42 0 LINE",
"92 0 LINE",
"110 260 LINE",
"274 381 LINE",
"593 0 LINE",
"664 0 LINE",
"315 412 LINE",
"723 714 LINE",
"648 714 LINE",
"117 321 LINE",
"115 322 LINE",
"142 714 LINE",
"92 714 LINE"
);
}
);
width = 731;
},
{
anchors = (
{
name = Bottom;
position = "{408, 0}";
},
{
name = Top;
position = "{442, 714}";
}
);
layerId = m002;
paths = (
{
closed = 1;
nodes = (
"42 0 LINE",
"252 0 LINE",
"265 191 LINE",
"384 285 LINE",
"603 0 LINE",
"858 0 LINE",
"541 411 LINE",
"923 714 LINE",
"635 714 LINE",
"284 434 LINE",
"282 435 LINE",
"302 714 LINE",
"92 714 LINE"
);
}
);
width = 931;
}
);
leftKerningGroup = H;
leftMetricsKey = N;
rightKerningGroup = K;
rightMetricsKey = A;
unicode = 004B;
},
{
glyphname = L;
lastChange = "2025-09-15 22:09:10 +0000";
layers = (
{
anchors = (
{
name = Bottom;
position = "{329, 0}";
},
{
name = Caron;
position = "{275, 548}";
},
{
name = Top;
position = "{118, 714}";
}
);
layerId = "FD4D3FDD-DE85-408F-A52A-FF600B1C6101";
paths = (
{
closed = 1;
nodes = (
"95 48 LINE",
"142 714 LINE",
"92 714 LINE",
"42 0 LINE",
"570 0 LINE",
"573 48 LINE"
);
}
);
width = 628;
},
{
anchors = (
{
name = Bottom;
position = "{369, 0}";
},
{
name = Caron;
position = "{405, 548}";
},
{
name = Top;
position = "{198, 714}";
}
);
layerId = m002;
paths = (
{
closed = 1;
nodes = (
"263 168 LINE",
"302 714 LINE",
"92 714 LINE",
"42 0 LINE",
"680 0 LINE",
"691 168 LINE"
);
}
);
width = 738;
}
);
leftKerningGroup = H;
leftMetricsKey = N;
rightKerningGroup = L;
rightMetricsKey = A;
unicode = 004C;
},
{
color = 10;
glyphname = Lbar;
lastChange = "2025-09-15 22:22:09 +0000";
layers = (
{
layerId = "FD4D3FDD-DE85-408F-A52A-FF600B1C6101";
paths = (
{
closed = 1;
nodes = (
"146 48 LINE",
"167 341 LINE",
"267 341 LINE",
"270 383 LINE",
"170 383 LINE",
"193 714 LINE",
"143 714 LINE",
"120 381 LINE",
"70 386 LINE",
"66 341 LINE",
"117 341 LINE",
"93 0 LINE",
"621 0 LINE",
"624 48 LINE"
);
}
);
width = 679;
},
{
layerId = m002;
paths = (
{
closed = 1;
nodes = (
"310 168 LINE",
"319 299 LINE",
"425 299 LINE",
"433 419 LINE",
"328 419 LINE",
"349 714 LINE",
"139 714 LINE",
"118 417 LINE",
"71 422 LINE",
"63 299 LINE",
"110 299 LINE",
"89 0 LINE",
"727 0 LINE",
"738 168 LINE"
);
}
);
width = 785;
}
);
leftKerningGroup = H;
leftMetricsKey = H;
rightKerningGroup = L;
rightMetricsKey = L;
unicode = 023D;
},
{
color = 10;
glyphname = Lmiddletilde;
lastChange = "2025-09-15 22:22:11 +0000";
layers = (
{
layerId = "FD4D3FDD-DE85-408F-A52A-FF600B1C6101";
paths = (
{
closed = 1;
nodes = (
"219 48 LINE",
"240 339 LINE",
"251 336 OFFCURVE",
"264 333 OFFCURVE",
"278 333 CURVE SMOOTH",
"327 333 OFFCURVE",
"361 364 OFFCURVE",
"365 413 CURVE",
"317 415 LINE",
"315 392 OFFCURVE",
"299 376 OFFCURVE",
"279 376 CURVE SMOOTH",
"266 376 OFFCURVE",
"254 379 OFFCURVE",
"243 383 CURVE",
"266 714 LINE",
"216 714 LINE",
"194 404 LINE",
"181 409 OFFCURVE",
"167 413 OFFCURVE",
"151 413 CURVE SMOOTH",
"103 413 OFFCURVE",
"68 382 OFFCURVE",
"65 333 CURVE",
"113 331 LINE",
"114 354 OFFCURVE",
"130 370 OFFCURVE",
"151 370 CURVE SMOOTH",
"165 370 OFFCURVE",
"178 366 OFFCURVE",
"191 360 CURVE",
"166 0 LINE",
"694 0 LINE",
"697 48 LINE"
);
}
);
width = 752;
},
{
layerId = m002;
paths = (
{
closed = 1;
nodes = (
"398 168 LINE",
"408 309 LINE",
"421 308 OFFCURVE",
"430 308 OFFCURVE",
"439 308 CURVE SMOOTH",
"502 308 OFFCURVE",
"547 353 OFFCURVE",
"552 424 CURVE",
"448 428 LINE",
"447 416 OFFCURVE",
"435 406 OFFCURVE",
"419 406 CURVE SMOOTH",
"418 406 OFFCURVE",
"416 406 OFFCURVE",
"415 406 CURVE",
"437 714 LINE",
"227 714 LINE",
"207 429 LINE",
"194 430 OFFCURVE",
"190 430 OFFCURVE",
"179 430 CURVE SMOOTH",
"114 430 OFFCURVE",
"69 385 OFFCURVE",
"64 314 CURVE",
"168 310 LINE",
"169 323 OFFCURVE",
"180 333 OFFCURVE",
"196 333 CURVE SMOOTH",
"197 333 OFFCURVE",
"199 333 OFFCURVE",
"200 333 CURVE",
"177 0 LINE",
"815 0 LINE",
"826 168 LINE"
);
}
);
width = 873;
}
);
leftKerningGroup = H;
leftMetricsKey = H;
rightKerningGroup = L;
rightMetricsKey = L;
unicode = 2C62;
},
{
color = 10;
glyphname = Lslash;
lastChange = "2025-09-15 22:22:13 +0000";
layers = (
{
layerId = "FD4D3FDD-DE85-408F-A52A-FF600B1C6101";
paths = (
{
closed = 1;
nodes = (
"166 48 LINE",
"191 404 LINE",
"323 479 LINE",
"327 537 LINE",
"195 462 LINE",
"213 714 LINE",
"163 714 LINE",
"143 432 LINE",
"69 390 LINE",
"65 332 LINE",
"139 374 LINE",
"113 0 LINE",
"641 0 LINE",
"644 48 LINE"
);
}
);
width = 699;
},
{
layerId = m002;
paths = (
{
closed = 1;
nodes = (
"336 168 LINE",
"354 418 LINE",
"443 476 LINE",
"452 612 LINE",
"364 555 LINE",
"375 714 LINE",
"165 714 LINE",
"144 414 LINE",
"67 365 LINE",
"58 227 LINE",
"134 276 LINE",
"115 0 LINE",
"753 0 LINE",
"764 168 LINE"
);
}
);
width = 811;
}
);
leftKerningGroup = H;
leftMetricsKey = N;
rightKerningGroup = L;
rightMetricsKey = A;
unicode = 0141;
},
{
glyphname = M;
lastChange = "2025-09-15 22:09:16 +0000";
layers = (
{
anchors = (
{
name = Bottom;
position = "{432, 0}";
}
);
layerId = "FD4D3FDD-DE85-408F-A52A-FF600B1C6101";
paths = (
{
closed = 1;
nodes = (
"42 0 LINE",
"92 0 LINE",
"135 613 LINE",
"137 613 LINE",
"408 0 LINE",
"456 0 LINE",
"813 613 LINE",
"815 613 LINE",
"772 0 LINE",
"822 0 LINE",
"872 714 LINE",
"814 714 LINE",
"437 69 LINE",
"435 69 LINE",
"148 714 LINE",
"92 714 LINE"
);
}
);
width = 900;
},
{
anchors = (
{
name = Bottom;
position = "{496, 0}";
}
);
layerId = m002;
paths = (
{
closed = 1;
nodes = (
"42 0 LINE",
"252 0 LINE",
"275 323 LINE",
"277 323 LINE",
"432 0 LINE",
"560 0 LINE",
"761 323 LINE",
"763 323 LINE",
"740 0 LINE",
"950 0 LINE",
"1000 714 LINE",
"782 714 LINE",
"514 259 LINE",
"512 259 LINE",
"308 714 LINE",
"92 714 LINE"
);
}
);
width = 1028;
}
);
leftKerningGroup = H;
leftMetricsKey = N;
rightKerningGroup = H;
rightMetricsKey = N;
unicode = 004D;
},
{
glyphname = N;
lastChange = "2025-09-15 21:48:36 +0000";
layers = (
{
anchors = (
{
name = Bottom;
position = "{354, 0}";
},
{
name = Top;
position = "{404, 714}";
}
);
layerId = "FD4D3FDD-DE85-408F-A52A-FF600B1C6101";
paths = (
{
closed = 1;
nodes = (
"92 714 LINE",
"42 0 LINE",
"92 0 LINE",
"136 631 LINE",
"138 631 LINE",
"616 0 LINE",
"666 0 LINE",
"716 714 LINE",
"666 714 LINE",
"622 83 LINE",
"620 83 LINE",
"142 713 LINE",
"142 714 LINE"
);
}
);
width = 744;
},
{
anchors = (
{
name = Bottom;
position = "{403, 0}";
},
{
name = Top;
position = "{458, 714}";
}
);
layerId = m002;
paths = (
{
closed = 1;
nodes = (
"92 714 LINE",
"42 0 LINE",
"252 0 LINE",
"280 404 LINE",
"283 404 LINE",
"596 0 LINE",
"806 0 LINE",
"856 714 LINE",
"646 714 LINE",
"618 310 LINE",
"615 310 LINE",
"302 713 LINE",
"302 714 LINE"
);
}
);
width = 884;
}
);
leftKerningGroup = H;
rightKerningGroup = H;
unicode = 004E;
},
{
color = 10;
glyphname = Eng;
lastChange = "2025-09-15 22:22:15 +0000";
layers = (
{
layerId = "FD4D3FDD-DE85-408F-A52A-FF600B1C6101";
paths = (
{
closed = 1;
nodes = (
"92 714 LINE",
"42 0 LINE",
"92 0 LINE",
"136 631 LINE",
"138 631 LINE",
"616 0 LINE",
"615 -7 LINE SMOOTH",
"607 -119 OFFCURVE",
"526 -186 OFFCURVE",
"396 -186 CURVE SMOOTH",
"362 -186 OFFCURVE",
"332 -181 OFFCURVE",
"316 -172 CURVE",
"314 -220 LINE",
"331 -228 OFFCURVE",
"361 -233 OFFCURVE",
"395 -233 CURVE SMOOTH",
"555 -233 OFFCURVE",
"655 -150 OFFCURVE",
"665 -9 CURVE SMOOTH",
"716 714 LINE",
"666 714 LINE",
"621 83 LINE",
"619 83 LINE",
"141 714 LINE"
);
}
);
width = 744;
},
{
layerId = m002;
paths = (
{
closed = 1;
nodes = (
"92 714 LINE",
"42 0 LINE",
"252 0 LINE",
"280 404 LINE",
"283 404 LINE",
"584 18 LINE",
"584 16 LINE SMOOTH",
"582 -28 OFFCURVE",
"505 -57 OFFCURVE",
"442 -57 CURVE SMOOTH",
"421 -57 OFFCURVE",
"393 -52 OFFCURVE",
"374 -43 CURVE",
"365 -219 LINE",
"383 -227 OFFCURVE",
"417 -233 OFFCURVE",
"454 -233 CURVE SMOOTH",
"646 -233 OFFCURVE",
"783 -143 OFFCURVE",
"805 -2 CURVE",
"856 714 LINE",
"646 714 LINE",
"617 300 LINE",
"614 300 LINE",
"301 714 LINE"
);
}
);
width = 884;
}
);
leftKerningGroup = H;
leftMetricsKey = N;
rightKerningGroup = N;
rightMetricsKey = N;
unicode = 014A;
},
{
glyphname = O;
lastChange = "2025-09-15 22:22:53 +0000";
layers = (
{
anchors = (
{
name = Bottom;
position = "{419, 0}";
},
{
name = Greek;
position = "{16, 558}";
},
{
name = Top;
position = "{468, 726}";
}
);
layerId = "FD4D3FDD-DE85-408F-A52A-FF600B1C6101";
paths = (
{
closed = 1;
nodes = (
"650 -13 OFFCURVE",
"814 134 OFFCURVE",
"829 355 CURVE SMOOTH",
"845 578 OFFCURVE",
"700 726 OFFCURVE",
"467 726 CURVE SMOOTH",
"236 726 OFFCURVE",
"72 578 OFFCURVE",
"57 357 CURVE SMOOTH",
"41 135 OFFCURVE",
"185 -13 OFFCURVE",
"418 -13 CURVE SMOOTH"
);
},
{
closed = 1;
nodes = (
"120 548 OFFCURVE",
"264 677 OFFCURVE",
"466 677 CURVE SMOOTH",
"667 677 OFFCURVE",
"793 549 OFFCURVE",
"780 357 CURVE SMOOTH",
"766 164 OFFCURVE",
"622 35 OFFCURVE",
"419 35 CURVE SMOOTH",
"218 35 OFFCURVE",
"93 163 OFFCURVE",
"106 355 CURVE SMOOTH"
);
}
);
width = 872;
},
{
anchors = (
{
name = Bottom;
position = "{441, 0}";
},
{
name = Greek;
position = "{-4, 558}";
},
{
name = Top;
position = "{491, 726}";
}
);
layerId = m002;
paths = (
{
closed = 1;
nodes = (
"704 -13 OFFCURVE",
"867 122 OFFCURVE",
"883 351 CURVE SMOOTH",
"900 587 OFFCURVE",
"753 726 OFFCURVE",
"486 726 CURVE SMOOTH",
"226 726 OFFCURVE",
"63 590 OFFCURVE",
"47 361 CURVE SMOOTH",
"30 126 OFFCURVE",
"177 -13 OFFCURVE",
"443 -13 CURVE SMOOTH"
);
},
{
closed = 1;
nodes = (
"275 481 OFFCURVE",
"356 558 OFFCURVE",
"483 558 CURVE SMOOTH",
"606 558 OFFCURVE",
"673 485 OFFCURVE",
"664 361 CURVE SMOOTH",
"655 232 OFFCURVE",
"574 155 OFFCURVE",
"446 155 CURVE SMOOTH",
"325 155 OFFCURVE",
"258 228 OFFCURVE",
"266 351 CURVE SMOOTH"
);
}
);
width = 917;
}
);
leftKerningGroup = O;
rightKerningGroup = O;
unicode = 004F;
},
{
color = 10;
glyphname = Oopen;
lastChange = "2025-09-15 22:22:17 +0000";
layers = (
{
layerId = "FD4D3FDD-DE85-408F-A52A-FF600B1C6101";
paths = (
{
closed = 1;
nodes = (
"74 607 LINE",
"127 650 OFFCURVE",
"226 678 OFFCURVE",
"321 678 CURVE SMOOTH",
"482 678 OFFCURVE",
"589 562 OFFCURVE",
"589 389 CURVE SMOOTH",
"589 177 OFFCURVE",
"461 35 OFFCURVE",
"268 35 CURVE SMOOTH",
"173 35 OFFCURVE",
"81 63 OFFCURVE",
"39 105 CURVE",
"36 49 LINE",
"75 12 OFFCURVE",
"168 -13 OFFCURVE",
"267 -13 CURVE SMOOTH",
"490 -13 OFFCURVE",
"639 148 OFFCURVE",
"639 390 CURVE SMOOTH",
"639 592 OFFCURVE",
"508 726 OFFCURVE",
"312 726 CURVE SMOOTH",
"224 726 OFFCURVE",
"130 702 OFFCURVE",
"78 666 CURVE"
);
}
);
width = 681;
},
{
layerId = m002;
paths = (
{
closed = 1;
nodes = (
"61 505 LINE",
"121 538 OFFCURVE",
"195 558 OFFCURVE",
"261 558 CURVE SMOOTH",
"377 558 OFFCURVE",
"445 493 OFFCURVE",
"445 383 CURVE SMOOTH",
"445 240 OFFCURVE",
"366 155 OFFCURVE",
"231 155 CURVE SMOOTH",
"154 155 OFFCURVE",
"81 174 OFFCURVE",
"36 205 CURVE",
"26 9 LINE",
"79 -5 OFFCURVE",
"154 -13 OFFCURVE",
"227 -13 CURVE SMOOTH",
"502 -13 OFFCURVE",
"664 136 OFFCURVE",
"664 388 CURVE SMOOTH",
"664 600 OFFCURVE",
"517 726 OFFCURVE",
"269 726 CURVE SMOOTH",
"205 726 OFFCURVE",
"131 718 OFFCURVE",
"71 704 CURVE"
);
}
);
width = 696;
}
);
leftKerningGroup = O;
leftMetricsKey = O;
rightKerningGroup = O;
rightMetricsKey = O;
unicode = 0186;
},
{
color = 10;
glyphname = Oslash;
lastChange = "2025-09-15 22:22:19 +0000";
layers = (
{
anchors = (
{
name = Top;
position = "{444, 726}";
}
);
layerId = "FD4D3FDD-DE85-408F-A52A-FF600B1C6101";
paths = (
{
closed = 1;
nodes = (
"676 -13 OFFCURVE",
"831 135 OFFCURVE",
"831 356 CURVE SMOOTH",
"831 524 OFFCURVE",
"742 649 OFFCURVE",
"599 701 CURVE",
"627 778 LINE",
"569 778 LINE",
"546 716 LINE",
"514 722 OFFCURVE",
"480 726 OFFCURVE",
"444 726 CURVE SMOOTH",
"212 726 OFFCURVE",
"58 578 OFFCURVE",
"58 356 CURVE SMOOTH",
"58 188 OFFCURVE",
"147 63 OFFCURVE",
"291 12 CURVE",
"263 -64 LINE",
"321 -64 LINE",
"343 -3 LINE",
"375 -10 OFFCURVE",
"408 -13 OFFCURVE",
"444 -13 CURVE SMOOTH"
);
},
{
closed = 1;
nodes = (
"108 549 OFFCURVE",
"242 677 OFFCURVE",
"444 677 CURVE SMOOTH",
"474 677 OFFCURVE",
"502 674 OFFCURVE",
"529 669 CURVE",
"307 58 LINE",
"184 103 OFFCURVE",
"108 211 OFFCURVE",
"108 356 CURVE SMOOTH"
);
},
{
closed = 1;
nodes = (
"582 654 LINE",
"705 609 OFFCURVE",
"781 501 OFFCURVE",
"781 356 CURVE SMOOTH",
"781 163 OFFCURVE",
"646 35 OFFCURVE",
"444 35 CURVE SMOOTH",
"414 35 OFFCURVE",
"386 38 OFFCURVE",
"360 43 CURVE"
);
}
);
width = 875;
},
{
anchors = (
{
name = Top;
position = "{465, 726}";
}
);
layerId = m002;
paths = (
{
closed = 1;
nodes = (
"729 -13 OFFCURVE",
"885 124 OFFCURVE",
"885 356 CURVE SMOOTH",
"885 518 OFFCURVE",
"810 633 OFFCURVE",
"676 689 CURVE",
"708 778 LINE",
"532 778 LINE",
"513 725 LINE",
"497 725 OFFCURVE",
"482 726 OFFCURVE",
"466 726 CURVE SMOOTH",
"203 726 OFFCURVE",
"48 589 OFFCURVE",
"48 356 CURVE SMOOTH",
"48 194 OFFCURVE",
"123 79 OFFCURVE",
"258 24 CURVE",
"226 -64 LINE",
"402 -64 LINE",
"421 -12 LINE",
"436 -13 OFFCURVE",
"451 -13 OFFCURVE",
"466 -13 CURVE SMOOTH"
);
},
{
closed = 1;
nodes = (
"268 477 OFFCURVE",
"349 558 OFFCURVE",
"449 558 CURVE SMOOTH",
"450 558 OFFCURVE",
"451 558 OFFCURVE",
"452 558 CURVE",
"324 205 LINE",
"288 240 OFFCURVE",
"268 291 OFFCURVE",
"268 356 CURVE SMOOTH"
);
},
{
closed = 1;
nodes = (
"610 507 LINE",
"646 473 OFFCURVE",
"665 421 OFFCURVE",
"665 356 CURVE SMOOTH",
"665 236 OFFCURVE",
"580 155 OFFCURVE",
"484 155 CURVE SMOOTH",
"483 155 OFFCURVE",
"483 155 OFFCURVE",
"482 155 CURVE"
);
}
);
width = 920;
}
);
leftKerningGroup = O;
leftMetricsKey = O;
rightKerningGroup = O;
rightMetricsKey = O;
unicode = 00D8;
},
{
color = 10;
glyphname = OE;
lastChange = "2025-09-15 22:22:21 +0000";
layers = (
{
layerId = "FD4D3FDD-DE85-408F-A52A-FF600B1C6101";
paths = (
{
closed = 1;
nodes = (
"643 392 LINE",
"663 666 LINE",
"1153 666 LINE",
"1157 714 LINE",
"421 714 LINE SMOOTH",
"202 714 OFFCURVE",
"56 558 OFFCURVE",
"56 324 CURVE SMOOTH",
"56 130 OFFCURVE",
"182 0 OFFCURVE",
"372 0 CURVE SMOOTH",
"1107 0 LINE",
"1110 48 LINE",
"619 48 LINE",
"640 344 LINE",
"1110 344 LINE",
"1113 392 LINE"
);
},
{
closed = 1;
nodes = (
"105 530 OFFCURVE",
"231 666 OFFCURVE",
"419 666 CURVE SMOOTH",
"613 666 LINE",
"569 48 LINE",
"374 48 LINE SMOOTH",
"213 48 OFFCURVE",
"105 160 OFFCURVE",
"105 327 CURVE SMOOTH"
);
}
);
width = 1175;
},
{
layerId = m002;
paths = (
{
closed = 1;
nodes = (
"778 452 LINE",
"784 546 LINE",
"1230 546 LINE",
"1242 714 LINE",
"464 714 LINE SMOOTH",
"213 714 OFFCURVE",
"46 562 OFFCURVE",
"46 333 CURVE SMOOTH",
"46 133 OFFCURVE",
"195 0 OFFCURVE",
"419 0 CURVE SMOOTH",
"1192 0 LINE",
"1203 168 LINE",
"758 168 LINE",
"766 284 LINE",
"1190 284 LINE",
"1202 452 LINE"
);
},
{
closed = 1;
nodes = (
"274 468 OFFCURVE",
"350 546 OFFCURVE",
"457 546 CURVE SMOOTH",
"574 546 LINE",
"548 168 LINE",
"426 168 LINE SMOOTH",
"323 168 OFFCURVE",
"259 242 OFFCURVE",
"266 352 CURVE SMOOTH"
);
}
);
width = 1250;
}
);
leftKerningGroup = O;
leftMetricsKey = O;
rightKerningGroup = E;
rightMetricsKey = E;
unicode = 0152;
},
{
glyphname = P;
lastChange = "2025-09-15 22:09:35 +0000";
layers = (
{
anchors = (
{
name = Bottom;
position = "{236, 0}";
},
{
name = Top;
position = "{312, 714}";
}
);
layerId = "FD4D3FDD-DE85-408F-A52A-FF600B1C6101";
paths = (
{
closed = 1;
nodes = (
"112 291 LINE",
"461 291 LINE SMOOTH",
"589 291 OFFCURVE",
"680 375 OFFCURVE",
"689 502 CURVE SMOOTH",
"698 629 OFFCURVE",
"613 714 OFFCURVE",
"478 714 CURVE SMOOTH",
"92 714 LINE",
"42 0 LINE",
"92 0 LINE"
);
},
{
closed = 1;
nodes = (
"139 666 LINE",
"476 666 LINE SMOOTH",
"581 666 OFFCURVE",
"646 602 OFFCURVE",
"639 504 CURVE SMOOTH",
"632 405 OFFCURVE",
"561 338 OFFCURVE",
"463 338 CURVE SMOOTH",
"116 338 LINE"
);
}
);
width = 712;
},
{
anchors = (
{
name = Bottom;
position = "{296, 0}";
},
{
name = Top;
position = "{382, 714}";
}
);
layerId = m002;
paths = (
{
closed = 1;
nodes = (
"267 221 LINE",
"497 221 LINE SMOOTH",
"673 221 OFFCURVE",
"796 318 OFFCURVE",
"806 463 CURVE SMOOTH",
"817 614 OFFCURVE",
"699 714 OFFCURVE",
"516 714 CURVE SMOOTH",
"92 714 LINE",
"42 0 LINE",
"252 0 LINE"
);
},
{
closed = 1;
nodes = (
"290 546 LINE",
"509 546 LINE SMOOTH",
"566 546 OFFCURVE",
"600 517 OFFCURVE",
"597 473 CURVE SMOOTH",
"593 423 OFFCURVE",
"555 389 OFFCURVE",
"505 389 CURVE SMOOTH",
"279 389 LINE"
);
}
);
width = 832;
}
);
leftKerningGroup = H;
leftMetricsKey = N;
rightKerningGroup = P;
unicode = 0050;
},
{
color = 10;
glyphname = Thorn;
lastChange = "2025-09-15 22:22:24 +0000";
layers = (
{
layerId = "FD4D3FDD-DE85-408F-A52A-FF600B1C6101";
paths = (
{
closed = 1;
nodes = (
"103 151 LINE",
"451 151 LINE SMOOTH",
"588 151 OFFCURVE",
"679 241 OFFCURVE",
"679 375 CURVE SMOOTH",
"679 494 OFFCURVE",
"595 574 OFFCURVE",
"468 574 CURVE SMOOTH",
"132 574 LINE",
"142 714 LINE",
"92 714 LINE",
"42 0 LINE",
"92 0 LINE"
);
},
{
closed = 1;
nodes = (
"129 526 LINE",
"466 526 LINE SMOOTH",
"564 526 OFFCURVE",
"630 465 OFFCURVE",
"630 373 CURVE SMOOTH",
"630 268 OFFCURVE",
"559 198 OFFCURVE",
"453 198 CURVE SMOOTH",
"106 198 LINE"
);
}
);
width = 712;
},
{
layerId = m002;
paths = (
{
closed = 1;
nodes = (
"260 111 LINE",
"490 111 LINE SMOOTH",
"675 111 OFFCURVE",
"799 215 OFFCURVE",
"799 372 CURVE SMOOTH",
"799 511 OFFCURVE",
"683 604 OFFCURVE",
"509 604 CURVE SMOOTH",
"294 604 LINE",
"302 714 LINE",
"92 714 LINE",
"42 0 LINE",
"252 0 LINE"
);
},
{
closed = 1;
nodes = (
"283 436 LINE",
"501 436 LINE SMOOTH",
"554 436 OFFCURVE",
"589 409 OFFCURVE",
"589 368 CURVE SMOOTH",
"589 315 OFFCURVE",
"552 279 OFFCURVE",
"497 279 CURVE SMOOTH",
"272 279 LINE"
);
}
);
width = 832;
}
);
leftKerningGroup = H;
leftMetricsKey = P;
rightKerningGroup = P;
rightMetricsKey = P;
unicode = 00DE;
},
{
glyphname = Q;
lastChange = "2025-09-15 22:09:42 +0000";
layers = (
{
layerId = "FD4D3FDD-DE85-408F-A52A-FF600B1C6101";
paths = (
{
closed = 1;
nodes = (
"475 -13 OFFCURVE",
"528 -4 OFFCURVE",
"576 13 CURVE",
"610 -54 LINE",
"655 -29 LINE",
"623 33 LINE",
"742 93 OFFCURVE",
"819 207 OFFCURVE",
"829 355 CURVE SMOOTH",
"845 578 OFFCURVE",
"700 726 OFFCURVE",
"467 726 CURVE SMOOTH",
"236 726 OFFCURVE",
"72 578 OFFCURVE",
"57 357 CURVE SMOOTH",
"41 135 OFFCURVE",
"185 -13 OFFCURVE",
"418 -13 CURVE SMOOTH"
);
},
{
closed = 1;
nodes = (
"120 548 OFFCURVE",
"264 677 OFFCURVE",
"466 677 CURVE SMOOTH",
"667 677 OFFCURVE",
"793 549 OFFCURVE",
"780 357 CURVE SMOOTH",
"771 229 OFFCURVE",
"704 129 OFFCURVE",
"601 76 CURVE",
"531 213 LINE",
"487 188 LINE",
"554 56 LINE",
"513 42 OFFCURVE",
"468 35 OFFCURVE",
"419 35 CURVE SMOOTH",
"218 35 OFFCURVE",
"93 163 OFFCURVE",
"106 355 CURVE SMOOTH"
);
}
);
width = 872;
},
{
layerId = m002;
paths = (
{
closed = 1;
nodes = (
"479 -13 OFFCURVE",
"514 -10 OFFCURVE",
"546 -5 CURVE",
"586 -84 LINE",
"720 -9 LINE",
"694 42 LINE",
"806 102 OFFCURVE",
"873 208 OFFCURVE",
"883 351 CURVE SMOOTH",
"900 587 OFFCURVE",
"753 726 OFFCURVE",
"486 726 CURVE SMOOTH",
"226 726 OFFCURVE",
"63 590 OFFCURVE",
"47 361 CURVE SMOOTH",
"30 126 OFFCURVE",
"177 -13 OFFCURVE",
"443 -13 CURVE SMOOTH"
);
},
{
closed = 1;
nodes = (
"275 481 OFFCURVE",
"356 558 OFFCURVE",
"483 558 CURVE SMOOTH",
"606 558 OFFCURVE",
"673 485 OFFCURVE",
"664 361 CURVE SMOOTH",
"660 300 OFFCURVE",
"639 250 OFFCURVE",
"605 215 CURVE",
"569 285 LINE",
"436 210 LINE",
"464 156 LINE",
"456 155 OFFCURVE",
"448 155 OFFCURVE",
"446 155 CURVE SMOOTH",
"325 155 OFFCURVE",
"258 228 OFFCURVE",
"266 351 CURVE SMOOTH"
);
}
);
width = 917;
}
);
leftKerningGroup = O;
leftMetricsKey = O;
rightKerningGroup = O;
rightMetricsKey = O;
unicode = 0051;
},
{
glyphname = R;
lastChange = "2025-09-15 22:09:57 +0000";
layers = (
{
anchors = (
{
name = Bottom;
position = "{337, 0}";
},
{
name = Top;
position = "{350, 714}";
}
);
layerId = "FD4D3FDD-DE85-408F-A52A-FF600B1C6101";
paths = (
{
closed = 1;
nodes = (
"112 291 LINE",
"478 291 LINE",
"627 0 LINE",
"683 0 LINE",
"532 298 LINE",
"627 319 OFFCURVE",
"691 393 OFFCURVE",
"698 494 CURVE SMOOTH",
"707 625 OFFCURVE",
"623 714 OFFCURVE",
"488 714 CURVE SMOOTH",
"92 714 LINE",
"42 0 LINE",
"92 0 LINE"
);
},
{
closed = 1;
nodes = (
"139 666 LINE",
"486 666 LINE SMOOTH",
"591 666 OFFCURVE",
"656 599 OFFCURVE",
"648 498 CURVE SMOOTH",
"642 403 OFFCURVE",
"571 338 OFFCURVE",
"473 338 CURVE SMOOTH",
"116 338 LINE"
);
}
);
width = 741;
},
{
anchors = (
{
name = Bottom;
position = "{397, 0}";
},
{
name = Top;
position = "{430, 714}";
}
);
layerId = m002;
paths = (
{
closed = 1;
nodes = (
"269 240 LINE",
"457 240 LINE",
"579 0 LINE",
"794 0 LINE",
"659 265 LINE",
"751 301 OFFCURVE",
"810 376 OFFCURVE",
"817 472 CURVE SMOOTH",
"827 617 OFFCURVE",
"713 714 OFFCURVE",
"536 714 CURVE SMOOTH",
"92 714 LINE",
"42 0 LINE",
"252 0 LINE"
);
},
{
closed = 1;
nodes = (
"290 546 LINE",
"529 546 LINE SMOOTH",
"580 546 OFFCURVE",
"610 520 OFFCURVE",
"607 482 CURVE SMOOTH",
"604 438 OFFCURVE",
"570 408 OFFCURVE",
"526 408 CURVE SMOOTH",
"281 408 LINE"
);
}
);
width = 852;
}
);
leftKerningGroup = H;
leftMetricsKey = N;
rightKerningGroup = R;
unicode = 0052;
},
{
glyphname = S;
lastChange = "2025-09-16 14:16:01 +0000";
layers = (
{
anchors = (
{
name = Bottom;
position = "{412, 0}";
},
{
name = Top;
position = "{400, 726}";
}
);
layerId = "FD4D3FDD-DE85-408F-A52A-FF600B1C6101";
paths = (
{
closed = 1;
nodes = (
"227 726 OFFCURVE",
"97 647 OFFCURVE",
"89 528 CURVE SMOOTH",
"70 263 OFFCURVE",
"671 405 OFFCURVE",
"656 190 CURVE SMOOTH",
"649 97 OFFCURVE",
"539 35 OFFCURVE",
"381 35 CURVE SMOOTH",
"196 35 OFFCURVE",
"79 113 OFFCURVE",
"88 230 CURVE",
"38 232 LINE",
"28 85 OFFCURVE",
"163 -13 OFFCURVE",
"376 -13 CURVE SMOOTH",
"565 -13 OFFCURVE",
"697 70 OFFCURVE",
"706 194 CURVE SMOOTH",
"724 453 OFFCURVE",
"124 322 OFFCURVE",
"139 530 CURVE SMOOTH",
"145 619 OFFCURVE",
"254 678 OFFCURVE",
"412 678 CURVE SMOOTH",
"572 678 OFFCURVE",
"674 609 OFFCURVE",
"667 505 CURVE",
"717 503 LINE",
"726 637 OFFCURVE",
"604 726 OFFCURVE",
"413 726 CURVE SMOOTH"
);
}
);
width = 751;
},
{
anchors = (
{
name = Bottom;
position = "{420, 0}";
},
{
name = Top;
position = "{459, 726}";
}
);
layerId = m002;
paths = (
{
closed = 1;
nodes = (
"234 726 OFFCURVE",
"97 646 OFFCURVE",
"87 511 CURVE SMOOTH",
"65 190 OFFCURVE",
"596 338 OFFCURVE",
"588 220 CURVE SMOOTH",
"585 176 OFFCURVE",
"525 150 OFFCURVE",
"427 150 CURVE SMOOTH",
"311 150 OFFCURVE",
"245 189 OFFCURVE",
"249 254 CURVE",
"40 258 LINE",
"28 88 OFFCURVE",
"171 -13 OFFCURVE",
"424 -13 CURVE SMOOTH",
"649 -13 OFFCURVE",
"788 70 OFFCURVE",
"797 210 CURVE SMOOTH",
"819 517 OFFCURVE",
"290 404 OFFCURVE",
"297 501 CURVE SMOOTH",
"299 540 OFFCURVE",
"357 563 OFFCURVE",
"452 563 CURVE SMOOTH",
"546 563 OFFCURVE",
"599 533 OFFCURVE",
"595 481 CURVE",
"805 477 LINE",
"816 634 OFFCURVE",
"686 726 OFFCURVE",
"455 726 CURVE SMOOTH"
);
}
);
width = 840;
}
);
leftKerningGroup = S;
rightKerningGroup = S;
unicode = 0053;
},
{
color = 10;
glyphname = Saltillo;
lastChange = "2025-09-15 22:22:26 +0000";
layers = (
{
layerId = "FD4D3FDD-DE85-408F-A52A-FF600B1C6101";
paths = (
{
closed = 1;
nodes = (
"70 409 LINE",
"60 196 LINE",
"100 196 LINE",
"120 409 LINE",
"143 731 LINE",
"93 731 LINE"
);
}
);
width = 170;
},
{
layerId = m002;
paths = (
{
closed = 1;
nodes = (
"70 409 LINE",
"60 196 LINE",
"220 196 LINE",
"240 409 LINE",
"263 731 LINE",
"93 731 LINE"
);
}
);
width = 290;
}
);
leftKerningGroup = H;
leftMetricsKey = N;
rightKerningGroup = H;
rightMetricsKey = N;
unicode = A78B;
},
{
color = 10;
glyphname = Germandbls;
lastChange = "2025-09-15 22:22:28 +0000";
layers = (
{
layerId = "FD4D3FDD-DE85-408F-A52A-FF600B1C6101";
paths = (
{
closed = 1;
nodes = (
"560 -13 OFFCURVE",
"658 78 OFFCURVE",
"668 216 CURVE SMOOTH",
"677 345 OFFCURVE",
"574 432 OFFCURVE",
"409 438 CURVE",
"633 666 LINE",
"637 714 LINE",
"92 714 LINE",
"42 0 LINE",
"92 0 LINE",
"139 666 LINE",
"569 666 LINE",
"353 446 LINE",
"349 398 LINE",
"370 398 LINE SMOOTH",
"527 398 OFFCURVE",
"625 327 OFFCURVE",
"618 218 CURVE SMOOTH",
"610 109 OFFCURVE",
"532 35 OFFCURVE",
"423 35 CURVE",
"421 -13 LINE"
);
}
);
width = 721;
},
{
layerId = m002;
paths = (
{
closed = 1;
nodes = (
"654 -13 OFFCURVE",
"788 84 OFFCURVE",
"788 229 CURVE SMOOTH",
"788 319 OFFCURVE",
"735 388 OFFCURVE",
"648 423 CURVE",
"755 546 LINE",
"767 714 LINE",
"92 714 LINE",
"42 0 LINE",
"252 0 LINE",
"290 546 LINE",
"546 546 LINE",
"430 416 LINE",
"421 278 LINE",
"473 278 LINE SMOOTH",
"530 278 OFFCURVE",
"568 257 OFFCURVE",
"568 226 CURVE SMOOTH",
"568 183 OFFCURVE",
"525 155 OFFCURVE",
"460 155 CURVE",
"453 -13 LINE"
);
}
);
width = 831;
}
);
leftKerningGroup = H;
leftMetricsKey = B;
rightKerningGroup = B;
rightMetricsKey = O;
unicode = 1E9E;
},
{
color = 10;
glyphname = Schwa;
lastChange = "2025-09-15 22:22:30 +0000";
layers = (
{
layerId = "FD4D3FDD-DE85-408F-A52A-FF600B1C6101";
paths = (
{
closed = 1;
nodes = (
"124 491 LINE",
"155 603 OFFCURVE",
"290 678 OFFCURVE",
"461 678 CURVE SMOOTH",
"646 678 OFFCURVE",
"770 564 OFFCURVE",
"770 392 CURVE SMOOTH",
"770 380 OFFCURVE",
"770 368 OFFCURVE",
"769 356 CURVE",
"58 356 LINE",
"56 339 LINE SMOOTH",
"31 129 OFFCURVE",
"180 -13 OFFCURVE",
"401 -13 CURVE SMOOTH",
"652 -13 OFFCURVE",
"820 150 OFFCURVE",
"820 394 CURVE SMOOTH",
"820 593 OFFCURVE",
"678 726 OFFCURVE",
"465 726 CURVE SMOOTH",
"266 726 OFFCURVE",
"110 633 OFFCURVE",
"74 493 CURVE"
);
},
{
closed = 1;
nodes = (
"762 308 LINE",
"729 141 OFFCURVE",
"596 35 OFFCURVE",
"410 35 CURVE SMOOTH",
"213 35 OFFCURVE",
"90 145 OFFCURVE",
"104 308 CURVE"
);
}
);
width = 862;
},
{
layerId = m002;
paths = (
{
closed = 1;
nodes = (
"275 450 LINE",
"292 514 OFFCURVE",
"387 558 OFFCURVE",
"490 558 CURVE SMOOTH",
"602 558 OFFCURVE",
"671 503 OFFCURVE",
"671 411 CURVE SMOOTH",
"671 410 OFFCURVE",
"671 410 OFFCURVE",
"671 409 CURVE",
"54 408 LINE",
"49 330 LINE SMOOTH",
"36 125 OFFCURVE",
"196 -13 OFFCURVE",
"452 -13 CURVE SMOOTH",
"695 -13 OFFCURVE",
"866 136 OFFCURVE",
"882 359 CURVE SMOOTH",
"897 579 OFFCURVE",
"737 726 OFFCURVE",
"486 726 CURVE SMOOTH",
"267 726 OFFCURVE",
"95 618 OFFCURVE",
"54 454 CURVE"
);
},
{
closed = 1;
nodes = (
"639 258 LINE",
"601 194 OFFCURVE",
"532 155 OFFCURVE",
"448 155 CURVE SMOOTH",
"342 155 OFFCURVE",
"272 194 OFFCURVE",
"265 258 CURVE"
);
}
);
width = 915;
}
);
leftKerningGroup = O;
leftMetricsKey = O;
rightKerningGroup = O;
rightMetricsKey = O;
unicode = 018F;
},
{
glyphname = T;
lastChange = "2025-09-16 16:07:26 +0000";
layers = (
{
anchors = (
{
name = Bottom;
position = "{342, 0}";
},
{
name = Top;
position = "{392, 714}";
}
);
layerId = "FD4D3FDD-DE85-408F-A52A-FF600B1C6101";
paths = (
{
closed = 1;
nodes = (
"62 714 LINE",
"58 666 LINE",
"363 666 LINE",
"317 0 LINE",
"367 0 LINE",
"413 666 LINE",
"717 666 LINE",
"721 714 LINE"
);
}
);
width = 719;
},
{
anchors = (
{
name = Bottom;
position = "{407, 0}";
},
{
name = Top;
position = "{457, 714}";
}
);
layerId = m002;
paths = (
{
closed = 1;
nodes = (
"62 714 LINE",
"50 546 LINE",
"340 546 LINE",
"302 0 LINE",
"512 0 LINE",
"550 546 LINE",
"839 546 LINE",
"851 714 LINE"
);
}
);
width = 849;
}
);
leftKerningGroup = T;
rightKerningGroup = T;
unicode = 0054;
},
{
color = 10;
glyphname = Tbar;
lastChange = "2025-09-15 22:22:34 +0000";
layers = (
{
layerId = "FD4D3FDD-DE85-408F-A52A-FF600B1C6101";
paths = (
{
closed = 1;
nodes = (
"62 714 LINE",
"58 666 LINE",
"363 666 LINE",
"345 412 LINE",
"151 417 LINE",
"148 372 LINE",
"343 372 LINE",
"317 0 LINE",
"367 0 LINE",
"393 372 LINE",
"587 372 LINE",
"590 414 LINE",
"396 414 LINE",
"413 666 LINE",
"717 666 LINE",
"721 714 LINE"
);
}
);
width = 719;
},
{
layerId = m002;
paths = (
{
closed = 1;
nodes = (
"62 714 LINE",
"50 546 LINE",
"340 546 LINE",
"330 402 LINE",
"171 407 LINE",
"162 284 LINE",
"322 284 LINE",
"302 0 LINE",
"512 0 LINE",
"532 284 LINE",
"690 284 LINE",
"699 404 LINE",
"540 404 LINE",
"550 546 LINE",
"839 546 LINE",
"851 714 LINE"
);
}
);
width = 849;
}
);
leftKerningGroup = T;
leftMetricsKey = T;
rightKerningGroup = T;
rightMetricsKey = T;
unicode = 0166;
},
{
color = 10;
glyphname = Tdiagonalstroke;
lastChange = "2025-09-15 22:22:36 +0000";
layers = (
{
layerId = "FD4D3FDD-DE85-408F-A52A-FF600B1C6101";
paths = (
{
closed = 1;
nodes = (
"603 714 LINE",
"634 772 LINE",
"583 772 LINE",
"552 714 LINE",
"62 714 LINE",
"58 666 LINE",
"363 666 LINE",
"339 311 LINE",
"145 -53 LINE",
"195 -53 LINE",
"331 203 LINE",
"317 0 LINE",
"367 0 LINE",
"388 311 LINE",
"578 666 LINE",
"717 666 LINE",
"721 714 LINE"
);
},
{
closed = 1;
nodes = (
"413 666 LINE",
"527 666 LINE",
"396 420 LINE"
);
}
);
width = 719;
},
{
layerId = m002;
paths = (
{
closed = 1;
nodes = (
"776 714 LINE",
"806 772 LINE",
"755 772 LINE",
"724 714 LINE",
"62 714 LINE",
"50 546 LINE",
"340 546 LINE",
"302 0 LINE",
"349 0 LINE",
"321 -53 LINE",
"373 -53 LINE",
"401 0 LINE",
"512 0 LINE",
"529 244 LINE",
"687 546 LINE",
"839 546 LINE",
"851 714 LINE"
);
},
{
closed = 1;
nodes = (
"550 546 LINE",
"636 546 LINE",
"537 357 LINE"
);
}
);
width = 849;
}
);
leftKerningGroup = T;
leftMetricsKey = T;
rightKerningGroup = T;
rightMetricsKey = T;
unicode = 023E;
},
{
glyphname = U;
lastChange = "2025-09-15 22:11:39 +0000";
layers = (
{
anchors = (
{
name = Bottom;
position = "{344, 0}";
},
{
name = Top;
position = "{394, 714}";
}
);
layerId = "FD4D3FDD-DE85-408F-A52A-FF600B1C6101";
paths = (
{
closed = 1;
nodes = (
"39 99 OFFCURVE",
"155 -13 OFFCURVE",
"343 -13 CURVE SMOOTH",
"530 -13 OFFCURVE",
"662 97 OFFCURVE",
"674 264 CURVE SMOOTH",
"706 714 LINE",
"656 714 LINE",
"625 276 LINE SMOOTH",
"615 132 OFFCURVE",
"502 35 OFFCURVE",
"344 35 CURVE SMOOTH",
"188 36 OFFCURVE",
"91 131 OFFCURVE",
"101 274 CURVE SMOOTH",
"132 714 LINE",
"82 714 LINE",
"50 266 LINE SMOOTH"
);
}
);
width = 724;
},
{
anchors = (
{
name = Bottom;
position = "{414, 0}";
},
{
name = Top;
position = "{464, 714}";
}
);
layerId = m002;
paths = (
{
closed = 1;
nodes = (
"40 116 OFFCURVE",
"185 -13 OFFCURVE",
"416 -13 CURVE SMOOTH",
"644 -13 OFFCURVE",
"803 112 OFFCURVE",
"817 303 CURVE SMOOTH",
"846 714 LINE",
"636 714 LINE",
"606 297 LINE SMOOTH",
"601 213 OFFCURVE",
"525 155 OFFCURVE",
"419 155 CURVE SMOOTH",
"318 156 OFFCURVE",
"256 210 OFFCURVE",
"262 293 CURVE SMOOTH",
"292 714 LINE",
"82 714 LINE",
"53 307 LINE SMOOTH"
);
}
);
width = 864;
}
);
leftKerningGroup = U;
rightKerningGroup = U;
unicode = 0055;
},
{
color = 10;
glyphname = "Upsilon-latin";
lastChange = "2025-09-15 22:22:41 +0000";
layers = (
{
layerId = "FD4D3FDD-DE85-408F-A52A-FF600B1C6101";
paths = (
{
closed = 1;
nodes = (
"615 -13 OFFCURVE",
"767 134 OFFCURVE",
"767 354 CURVE SMOOTH",
"767 497 OFFCURVE",
"683 616 OFFCURVE",
"552 666 CURVE",
"779 666 LINE",
"783 714 LINE",
"488 714 LINE",
"484 666 LINE",
"624 618 OFFCURVE",
"718 491 OFFCURVE",
"718 350 CURVE SMOOTH",
"718 161 OFFCURVE",
"586 35 OFFCURVE",
"389 35 CURVE SMOOTH",
"217 35 OFFCURVE",
"103 141 OFFCURVE",
"103 301 CURVE SMOOTH",
"103 464 OFFCURVE",
"215 610 OFFCURVE",
"384 666 CURVE",
"388 714 LINE",
"93 714 LINE",
"89 666 LINE",
"314 666 LINE",
"156 609 OFFCURVE",
"54 468 OFFCURVE",
"54 297 CURVE SMOOTH",
"54 111 OFFCURVE",
"187 -13 OFFCURVE",
"387 -13 CURVE SMOOTH"
);
}
);
width = 812;
},
{
layerId = m002;
paths = (
{
closed = 1;
nodes = (
"688 -13 OFFCURVE",
"845 97 OFFCURVE",
"859 284 CURVE SMOOTH",
"867 402 OFFCURVE",
"807 493 OFFCURVE",
"694 546 CURVE",
"886 546 LINE",
"898 714 LINE",
"535 714 LINE",
"523 546 LINE",
"600 517 OFFCURVE",
"645 456 OFFCURVE",
"645 382 CURVE SMOOTH",
"645 264 OFFCURVE",
"571 194 OFFCURVE",
"446 194 CURVE SMOOTH",
"339 194 OFFCURVE",
"275 248 OFFCURVE",
"275 340 CURVE SMOOTH",
"275 435 OFFCURVE",
"330 511 OFFCURVE",
"423 546 CURVE",
"435 714 LINE",
"72 714 LINE",
"60 546 LINE",
"241 546 LINE",
"119 491 OFFCURVE",
"50 394 OFFCURVE",
"50 270 CURVE SMOOTH",
"50 92 OFFCURVE",
"193 -13 OFFCURVE",
"436 -13 CURVE SMOOTH"
);
}
);
width = 906;
}
);
leftKerningGroup = O;
leftMetricsKey = O;
rightKerningGroup = O;
rightMetricsKey = O;
unicode = 01B1;
},
{
glyphname = V;
lastChange = "2025-09-15 22:23:08 +0000";
layers = (
{
anchors = (
{
name = Bottom;
position = "{379, 0}";
},
{
name = Top;
position = "{429, 714}";
}
);
layerId = "FD4D3FDD-DE85-408F-A52A-FF600B1C6101";
paths = (
{
closed = 1;
nodes = (
"385 98 LINE",
"383 98 LINE",
"124 714 LINE",
"72 714 LINE",
"361 0 LINE",
"395 0 LINE",
"785 714 LINE",
"731 714 LINE"
);
}
);
width = 793;
},
{
anchors = (
{
name = Bottom;
position = "{469, 0}";
},
{
name = Top;
position = "{519, 714}";
}
);
layerId = m002;
paths = (
{
closed = 1;
nodes = (
"485 250 LINE",
"483 250 LINE",
"284 714 LINE",
"72 714 LINE",
"381 0 LINE",
"555 0 LINE",
"965 714 LINE",
"751 714 LINE"
);
}
);
width = 973;
}
);
leftKerningGroup = V;
leftMetricsKey = A;
rightKerningGroup = V;
rightMetricsKey = A;
unicode = 0056;
},
{
color = 10;
glyphname = "Gamma-latin";
lastChange = "2025-09-15 22:22:43 +0000";
layers = (
{
layerId = "FD4D3FDD-DE85-408F-A52A-FF600B1C6101";
paths = (
{
closed = 1;
nodes = (
"392 -13 OFFCURVE",
"467 46 OFFCURVE",
"473 135 CURVE SMOOTH",
"477 184 OFFCURVE",
"462 236 OFFCURVE",
"420 297 CURVE SMOOTH",
"347 402 LINE",
"604 714 LINE",
"546 714 LINE",
"321 439 LINE",
"130 714 LINE",
"72 714 LINE",
"291 403 LINE",
"201 293 LINE SMOOTH",
"150 230 OFFCURVE",
"125 190 OFFCURVE",
"121 135 CURVE SMOOTH",
"115 46 OFFCURVE",
"180 -13 OFFCURVE",
"284 -13 CURVE SMOOTH"
);
},
{
closed = 1;
nodes = (
"175 179 OFFCURVE",
"203 229 OFFCURVE",
"257 294 CURVE SMOOTH",
"317 366 LINE",
"370 290 LINE SMOOTH",
"415 225 OFFCURVE",
"426 185 OFFCURVE",
"423 135 CURVE SMOOTH",
"419 75 OFFCURVE",
"367 35 OFFCURVE",
"292 35 CURVE SMOOTH",
"216 35 OFFCURVE",
"167 75 OFFCURVE",
"171 135 CURVE SMOOTH"
);
}
);
width = 612;
},
{
layerId = m002;
paths = (
{
closed = 1;
nodes = (
"516 -13 OFFCURVE",
"638 80 OFFCURVE",
"649 236 CURVE SMOOTH",
"652 277 OFFCURVE",
"635 326 OFFCURVE",
"603 366 CURVE SMOOTH",
"482 509 LINE",
"669 714 LINE",
"447 714 LINE",
"373 638 LINE",
"309 714 LINE",
"85 714 LINE",
"244 504 LINE",
"107 362 LINE SMOOTH",
"69 322 OFFCURVE",
"42 273 OFFCURVE",
"38 226 CURVE SMOOTH",
"28 76 OFFCURVE",
"132 -13 OFFCURVE",
"324 -13 CURVE SMOOTH"
);
},
{
closed = 1;
nodes = (
"249 240 OFFCURVE",
"263 267 OFFCURVE",
"287 294 CURVE SMOOTH",
"350 363 LINE",
"405 290 LINE SMOOTH",
"427 263 OFFCURVE",
"439 236 OFFCURVE",
"438 213 CURVE SMOOTH",
"435 176 OFFCURVE",
"401 155 OFFCURVE",
"341 155 CURVE SMOOTH",
"281 155 OFFCURVE",
"245 180 OFFCURVE",
"248 223 CURVE SMOOTH"
);
}
);
width = 691;
}
);
leftKerningGroup = V;
leftMetricsKey = V;
rightKerningGroup = V;
rightMetricsKey = V;
unicode = 0194;
},
{
glyphname = W;
lastChange = "2025-09-15 22:11:57 +0000";
layers = (
{
anchors = (
{
name = Bottom;
position = "{500, 0}";
},
{
name = Top;
position = "{551, 714}";
}
);
layerId = "FD4D3FDD-DE85-408F-A52A-FF600B1C6101";
paths = (
{
closed = 1;
nodes = (
"219 0 LINE",
"271 0 LINE",
"544 640 LINE",
"546 640 LINE",
"731 0 LINE",
"783 0 LINE",
"1029 714 LINE",
"975 714 LINE",
"759 84 LINE",
"757 84 LINE",
"576 713 LINE",
"577 714 LINE",
"523 714 LINE",
"254 84 LINE",
"252 84 LINE",
"124 714 LINE",
"72 714 LINE"
);
}
);
width = 1037;
},
{
anchors = (
{
name = Bottom;
position = "{605, 0}";
},
{
name = Top;
position = "{656, 714}";
}
);
layerId = m002;
paths = (
{
closed = 1;
nodes = (
"218 0 LINE",
"448 0 LINE",
"636 450 LINE",
"638 450 LINE",
"764 0 LINE",
"994 0 LINE",
"1240 714 LINE",
"1019 714 LINE",
"870 280 LINE",
"868 280 LINE",
"747 713 LINE",
"748 714 LINE",
"562 714 LINE",
"381 280 LINE",
"379 280 LINE",
"291 714 LINE",
"72 714 LINE"
);
}
);
width = 1248;
}
);
leftKerningGroup = V;
leftMetricsKey = A;
rightKerningGroup = V;
rightMetricsKey = A;
unicode = 0057;
},
{
glyphname = X;
lastChange = "2025-09-16 14:19:08 +0000";
layers = (
{
anchors = (
{
name = Bottom;
position = "{335, 0}";
},
{
name = Top;
position = "{385, 714}";
}
);
layerId = "FD4D3FDD-DE85-408F-A52A-FF600B1C6101";
paths = (
{
closed = 1;
nodes = (
"400 357 LINE",
"713 714 LINE",
"648 714 LINE",
"371 397 LINE",
"136 714 LINE",
"73 714 LINE",
"336 358 LINE",
"22 0 LINE",
"87 0 LINE",
"365 317 LINE",
"599 0 LINE",
"665 0 LINE"
);
}
);
width = 723;
},
{
anchors = (
{
name = Bottom;
position = "{424, 0}";
},
{
name = Top;
position = "{474, 714}";
}
);
layerId = m002;
paths = (
{
closed = 1;
nodes = (
"584 356 LINE",
"872 714 LINE",
"598 714 LINE",
"459 542 LINE",
"345 714 LINE",
"73 714 LINE",
"311 358 LINE",
"22 0 LINE",
"297 0 LINE",
"436 172 LINE",
"550 0 LINE",
"821 0 LINE"
);
}
);
width = 880;
}
);
leftKerningGroup = X;
leftMetricsKey = A;
rightKerningGroup = X;
rightMetricsKey = A;
unicode = 0058;
},
{
glyphname = Y;
lastChange = "2025-09-15 22:12:39 +0000";
layers = (
{
anchors = (
{
name = Bottom;
position = "{346, 0}";
},
{
name = Top;
position = "{396, 714}";
}
);
layerId = "FD4D3FDD-DE85-408F-A52A-FF600B1C6101";
paths = (
{
closed = 1;
nodes = (
"321 0 LINE",
"371 0 LINE",
"390 273 LINE",
"719 714 LINE",
"660 714 LINE",
"369 326 LINE",
"367 326 LINE",
"129 714 LINE",
"72 714 LINE",
"340 273 LINE"
);
}
);
width = 727;
},
{
anchors = (
{
name = Bottom;
position = "{436, 0}";
},
{
name = Top;
position = "{486, 714}";
}
);
layerId = m002;
paths = (
{
closed = 1;
nodes = (
"331 0 LINE",
"541 0 LINE",
"561 273 LINE",
"900 714 LINE",
"643 714 LINE",
"468 482 LINE",
"466 482 LINE",
"327 714 LINE",
"72 714 LINE",
"351 273 LINE"
);
}
);
width = 908;
}
);
leftKerningGroup = V;
leftMetricsKey = A;
rightKerningGroup = V;
rightMetricsKey = A;
unicode = 0059;
},
{
glyphname = Z;
lastChange = "2025-09-15 22:13:01 +0000";
layers = (
{
anchors = (
{
name = Bottom;
position = "{349, 0}";
},
{
name = Top;
position = "{422, 714}";
}
);
layerId = "FD4D3FDD-DE85-408F-A52A-FF600B1C6101";
paths = (
{
closed = 1;
nodes = (
"93 714 LINE",
"89 664 LINE",
"634 664 LINE",
"35 50 LINE",
"32 0 LINE",
"661 0 LINE",
"664 50 LINE",
"107 50 LINE",
"706 664 LINE",
"710 714 LINE"
);
}
);
width = 729;
},
{
anchors = (
{
name = Bottom;
position = "{409, 0}";
},
{
name = Top;
position = "{473, 714}";
}
);
layerId = m002;
paths = (
{
closed = 1;
nodes = (
"94 714 LINE",
"82 546 LINE",
"529 546 LINE",
"44 168 LINE",
"33 0 LINE",
"762 0 LINE",
"773 168 LINE",
"314 168 LINE",
"799 546 LINE",
"811 714 LINE"
);
}
);
width = 830;
}
);
leftKerningGroup = Z;
rightKerningGroup = Z;
unicode = 005A;
},
{
color = 10;
glyphname = Ismall;
lastChange = "2025-09-15 22:31:57 +0000";
layers = (
{
layerId = "FD4D3FDD-DE85-408F-A52A-FF600B1C6101";
paths = (
{
closed = 1;
nodes = (
"78 520 LINE",
"75 478 LINE",
"239 478 LINE",
"209 42 LINE",
"45 42 LINE",
"42 0 LINE",
"417 0 LINE",
"420 42 LINE",
"257 42 LINE",
"287 478 LINE",
"450 478 LINE",
"453 520 LINE"
);
}
);
width = 495;
},
{
layerId = m002;
paths = (
{
closed = 1;
nodes = (
"78 520 LINE",
"68 370 LINE",
"227 370 LINE",
"211 150 LINE",
"52 150 LINE",
"42 0 LINE",
"517 0 LINE",
"527 150 LINE",
"369 150 LINE",
"385 370 LINE",
"543 370 LINE",
"553 520 LINE"
);
}
);
width = 595;
}
);
leftKerningGroup = n;
leftMetricsKey = I;
rightKerningGroup = n;
rightMetricsKey = I;
unicode = 026A;
},
{
glyphname = a;
lastChange = "2025-09-16 16:06:03 +0000";
layers = (
{
anchors = (
{
name = Bottom;
position = "{344, 0}";
},
{
name = Ogonek;
position = "{575, 0}";
},
{
name = Top;
position = "{376, 532}";
}
);
background = {
paths = (
{
closed = 1;
nodes = (
"659 297 LINE",
"539 297 LINE SMOOTH",
"395 297 OFFCURVE",
"310 236 OFFCURVE",
"310 132 CURVE SMOOTH",
"310 45 OFFCURVE",
"378 -13 OFFCURVE",
"480 -13 CURVE SMOOTH",
"564 -13 OFFCURVE",
"631 25 OFFCURVE",
"659 88 CURVE",
"661 88 LINE",
"669 0 LINE",
"707 0 LINE",
"707 364 LINE SMOOTH",
"707 470 OFFCURVE",
"643 532 OFFCURVE",
"534 532 CURVE SMOOTH",
"413 532 OFFCURVE",
"341 476 OFFCURVE",
"341 382 CURVE",
"389 382 LINE",
"389 450 OFFCURVE",
"442 490 OFFCURVE",
"532 490 CURVE SMOOTH",
"612 490 OFFCURVE",
"659 446 OFFCURVE",
"659 372 CURVE SMOOTH"
);
},
{
closed = 1;
nodes = (
"362 214 OFFCURVE",
"424 257 OFFCURVE",
"544 257 CURVE SMOOTH",
"658 257 LINE",
"658 212 LINE SMOOTH",
"658 96 OFFCURVE",
"592 28 OFFCURVE",
"480 28 CURVE SMOOTH",
"409 28 OFFCURVE",
"362 69 OFFCURVE",
"362 131 CURVE SMOOTH"
);
},
{
closed = 1;
nodes = (
"639 90 LINE",
"639 45 OFFCURVE",
"652 25 QCURVE SMOOTH",
"668 0 OFFCURVE",
"713 0 QCURVE SMOOTH",
"735 0 OFFCURVE",
"754 4 QCURVE",
"754 57 LINE",
"744 53 OFFCURVE",
"734 53 QCURVE SMOOTH",
"697 53 OFFCURVE",
"697 91 QCURVE"
);
}
);
};
layerId = "FD4D3FDD-DE85-408F-A52A-FF600B1C6101";
paths = (
{
closed = 1;
nodes = (
"421 -13 OFFCURVE",
"517 31 OFFCURVE",
"567 97 CURVE",
"569 98 LINE",
"547 0 LINE",
"610 0 LINE",
"646 520 LINE",
"598 520 LINE",
"595 412 LINE",
"593 411 LINE",
"554 484 OFFCURVE",
"456 532 OFFCURVE",
"348 532 CURVE SMOOTH",
"169 532 OFFCURVE",
"49 414 OFFCURVE",
"49 238 CURVE SMOOTH",
"49 87 OFFCURVE",
"160 -13 OFFCURVE",
"327 -13 CURVE SMOOTH"
);
},
{
closed = 1;
nodes = (
"97 390 OFFCURVE",
"199 490 OFFCURVE",
"353 490 CURVE SMOOTH",
"490 490 OFFCURVE",
"581 407 OFFCURVE",
"581 282 CURVE SMOOTH",
"581 130 OFFCURVE",
"479 29 OFFCURVE",
"327 29 CURVE SMOOTH",
"189 29 OFFCURVE",
"97 113 OFFCURVE",
"97 240 CURVE SMOOTH"
);
}
);
width = 688;
},
{
anchors = (
{
name = Bottom;
position = "{331, 0}";
},
{
name = Ogonek;
position = "{623, 0}";
},
{
name = Top;
position = "{380, 532}";
}
);
background = {
paths = (
{
closed = 1;
nodes = (
"568 297 LINE",
"448 297 LINE SMOOTH",
"304 297 OFFCURVE",
"219 236 OFFCURVE",
"219 132 CURVE SMOOTH",
"219 45 OFFCURVE",
"287 -13 OFFCURVE",
"389 -13 CURVE SMOOTH",
"473 -13 OFFCURVE",
"540 25 OFFCURVE",
"568 88 CURVE",
"570 88 LINE",
"578 0 LINE",
"616 0 LINE",
"616 364 LINE SMOOTH",
"616 470 OFFCURVE",
"552 532 OFFCURVE",
"443 532 CURVE SMOOTH",
"322 532 OFFCURVE",
"250 476 OFFCURVE",
"250 382 CURVE",
"298 382 LINE",
"298 450 OFFCURVE",
"351 490 OFFCURVE",
"441 490 CURVE SMOOTH",
"521 490 OFFCURVE",
"568 446 OFFCURVE",
"568 372 CURVE SMOOTH"
);
},
{
closed = 1;
nodes = (
"271 214 OFFCURVE",
"333 257 OFFCURVE",
"453 257 CURVE SMOOTH",
"567 257 LINE",
"567 212 LINE SMOOTH",
"567 96 OFFCURVE",
"501 28 OFFCURVE",
"389 28 CURVE SMOOTH",
"318 28 OFFCURVE",
"271 69 OFFCURVE",
"271 131 CURVE SMOOTH"
);
},
{
closed = 1;
nodes = (
"548 90 LINE",
"548 45 OFFCURVE",
"561 25 QCURVE SMOOTH",
"577 0 OFFCURVE",
"622 0 QCURVE SMOOTH",
"644 0 OFFCURVE",
"663 4 QCURVE",
"663 57 LINE",
"653 53 OFFCURVE",
"643 53 QCURVE SMOOTH",
"606 53 OFFCURVE",
"606 91 QCURVE"
);
}
);
};
layerId = m002;
paths = (
{
closed = 1;
nodes = (
"407 -13 OFFCURVE",
"479 6 OFFCURVE",
"509 35 CURVE SMOOTH",
"511 37 LINE",
"488 0 LINE",
"695 0 LINE",
"731 520 LINE",
"533 520 LINE",
"536 487 LINE",
"532 486 LINE",
"496 514 OFFCURVE",
"431 532 OFFCURVE",
"369 532 CURVE SMOOTH",
"166 532 OFFCURVE",
"30 417 OFFCURVE",
"30 245 CURVE SMOOTH",
"30 90 OFFCURVE",
"150 -13 OFFCURVE",
"329 -13 CURVE SMOOTH"
);
},
{
closed = 1;
nodes = (
"239 337 OFFCURVE",
"300 400 OFFCURVE",
"391 400 CURVE SMOOTH",
"465 400 OFFCURVE",
"515 352 OFFCURVE",
"515 279 CURVE SMOOTH",
"515 184 OFFCURVE",
"454 121 OFFCURVE",
"363 121 CURVE SMOOTH",
"289 121 OFFCURVE",
"239 170 OFFCURVE",
"239 243 CURVE SMOOTH"
);
}
);
width = 763;
}
);
leftKerningGroup = o;
leftMetricsKey = o;
rightKerningGroup = n;
rightMetricsKey = n;
unicode = 0061;
},
{
color = 10;
glyphname = astroke;
lastChange = "2025-09-15 22:31:59 +0000";
layers = (
{
layerId = "FD4D3FDD-DE85-408F-A52A-FF600B1C6101";
paths = (
{
closed = 1;
nodes = (
"421 -13 OFFCURVE",
"517 31 OFFCURVE",
"567 97 CURVE",
"569 98 LINE",
"547 0 LINE",
"610 0 LINE",
"646 520 LINE",
"598 520 LINE",
"595 412 LINE",
"593 411 LINE",
"569 455 OFFCURVE",
"524 490 OFFCURVE",
"469 511 CURVE",
"489 558 LINE",
"447 558 LINE",
"431 522 LINE",
"405 529 OFFCURVE",
"377 532 OFFCURVE",
"348 532 CURVE SMOOTH",
"169 532 OFFCURVE",
"49 414 OFFCURVE",
"49 238 CURVE SMOOTH",
"49 127 OFFCURVE",
"109 44 OFFCURVE",
"207 7 CURVE",
"182 -50 LINE",
"225 -50 LINE",
"245 -4 LINE",
"270 -10 OFFCURVE",
"298 -13 OFFCURVE",
"327 -13 CURVE SMOOTH"
);
},
{
closed = 1;
nodes = (
"97 390 OFFCURVE",
"199 490 OFFCURVE",
"353 490 CURVE SMOOTH",
"375 490 OFFCURVE",
"395 488 OFFCURVE",
"415 484 CURVE",
"224 47 LINE",
"145 79 OFFCURVE",
"97 148 OFFCURVE",
"97 240 CURVE SMOOTH"
);
},
{
closed = 1;
nodes = (
"452 473 LINE",
"532 443 OFFCURVE",
"581 374 OFFCURVE",
"581 282 CURVE SMOOTH",
"581 130 OFFCURVE",
"479 29 OFFCURVE",
"327 29 CURVE SMOOTH",
"304 29 OFFCURVE",
"282 31 OFFCURVE",
"262 36 CURVE"
);
}
);
width = 688;
},
{
layerId = m002;
paths = (
{
closed = 1;
nodes = (
"407 -13 OFFCURVE",
"479 5 OFFCURVE",
"509 35 CURVE SMOOTH",
"511 37 LINE",
"488 0 LINE",
"695 0 LINE",
"731 520 LINE",
"533 520 LINE",
"536 487 LINE",
"534 486 LINE",
"525 493 OFFCURVE",
"511 500 OFFCURVE",
"498 506 CURVE",
"521 558 LINE",
"469 558 LINE",
"453 521 LINE",
"426 528 OFFCURVE",
"397 532 OFFCURVE",
"369 532 CURVE SMOOTH",
"166 532 OFFCURVE",
"30 417 OFFCURVE",
"30 245 CURVE SMOOTH",
"30 122 OFFCURVE",
"105 32 OFFCURVE",
"226 0 CURVE",
"204 -50 LINE",
"257 -50 LINE",
"275 -10 LINE",
"292 -12 OFFCURVE",
"310 -13 OFFCURVE",
"329 -13 CURVE SMOOTH"
);
},
{
closed = 1;
nodes = (
"239 337 OFFCURVE",
"300 400 OFFCURVE",
"391 400 CURVE",
"394 400 OFFCURVE",
"397 400 OFFCURVE",
"400 400 CURVE",
"288 143 LINE",
"257 164 OFFCURVE",
"239 199 OFFCURVE",
"239 243 CURVE SMOOTH"
);
},
{
closed = 1;
nodes = (
"448 389 LINE",
"489 371 OFFCURVE",
"515 331 OFFCURVE",
"515 279 CURVE SMOOTH",
"515 184 OFFCURVE",
"454 121 OFFCURVE",
"363 121 CURVE SMOOTH",
"352 121 OFFCURVE",
"342 122 OFFCURVE",
"333 124 CURVE"
);
}
);
width = 763;
}
);
leftKerningGroup = o;
leftMetricsKey = a;
rightKerningGroup = n;
rightMetricsKey = a;
unicode = 2C65;
},
{
color = 10;
glyphname = ae;
lastChange = "2025-09-15 22:32:01 +0000";
layers = (
{
anchors = (
{
name = Top;
position = "{646, 532}";
}
);
layerId = "FD4D3FDD-DE85-408F-A52A-FF600B1C6101";
paths = (
{
closed = 1;
nodes = (
"671 415 OFFCURVE",
"766 490 OFFCURVE",
"899 490 CURVE SMOOTH",
"1041 490 OFFCURVE",
"1129 413 OFFCURVE",
"1122 298 CURVE",
"648 298 LINE"
);
},
{
closed = 1;
nodes = (
"421 -13 OFFCURVE",
"517 32 OFFCURVE",
"567 98 CURVE",
"569 98 LINE",
"547 0 LINE",
"610 0 LINE",
"619 126 LINE",
"659 39 OFFCURVE",
"748 -13 OFFCURVE",
"869 -13 CURVE SMOOTH",
"1014 -13 OFFCURVE",
"1129 55 OFFCURVE",
"1155 158 CURVE",
"1107 160 LINE",
"1085 82 OFFCURVE",
"991 29 OFFCURVE",
"872 29 CURVE SMOOTH",
"735 29 OFFCURVE",
"643 114 OFFCURVE",
"643 241 CURVE SMOOTH",
"643 256 LINE",
"1169 256 LINE",
"1169 297 LINE SMOOTH",
"1169 438 OFFCURVE",
"1071 532 OFFCURVE",
"899 532 CURVE SMOOTH",
"782 532 OFFCURVE",
"689 482 OFFCURVE",
"638 399 CURVE",
"646 520 LINE",
"598 520 LINE",
"595 411 LINE",
"593 411 LINE",
"554 484 OFFCURVE",
"456 532 OFFCURVE",
"348 532 CURVE SMOOTH",
"169 532 OFFCURVE",
"49 414 OFFCURVE",
"49 238 CURVE SMOOTH",
"49 87 OFFCURVE",
"160 -13 OFFCURVE",
"327 -13 CURVE SMOOTH"
);
},
{
closed = 1;
nodes = (
"97 390 OFFCURVE",
"199 490 OFFCURVE",
"353 490 CURVE SMOOTH",
"490 490 OFFCURVE",
"581 407 OFFCURVE",
"581 282 CURVE SMOOTH",
"581 130 OFFCURVE",
"479 29 OFFCURVE",
"327 29 CURVE SMOOTH",
"189 29 OFFCURVE",
"97 113 OFFCURVE",
"97 240 CURVE SMOOTH"
);
}
);
width = 1219;
},
{
anchors = (
{
name = Top;
position = "{681, 532}";
}
);
layerId = m002;
paths = (
{
closed = 1;
nodes = (
"889 366 OFFCURVE",
"937 395 OFFCURVE",
"1003 395 CURVE SMOOTH",
"1066 395 OFFCURVE",
"1106 366 OFFCURVE",
"1115 315 CURVE",
"866 314 LINE"
);
},
{
closed = 1;
nodes = (
"407 -13 OFFCURVE",
"479 8 OFFCURVE",
"509 37 CURVE",
"511 37 LINE",
"488 0 LINE",
"695 0 LINE",
"700 78 LINE",
"757 19 OFFCURVE",
"851 -13 OFFCURVE",
"977 -13 CURVE SMOOTH",
"1162 -13 OFFCURVE",
"1289 55 OFFCURVE",
"1321 173 CURVE",
"1122 177 LINE",
"1112 145 OFFCURVE",
"1060 124 OFFCURVE",
"985 124 CURVE SMOOTH",
"914 124 OFFCURVE",
"866 155 OFFCURVE",
"855 209 CURVE SMOOTH",
"854 214 LINE",
"1322 214 LINE",
"1322 260 LINE SMOOTH",
"1322 431 OFFCURVE",
"1216 532 OFFCURVE",
"1003 532 CURVE SMOOTH",
"883 532 OFFCURVE",
"788 501 OFFCURVE",
"726 445 CURVE",
"731 520 LINE",
"533 520 LINE",
"536 486 LINE",
"532 486 LINE",
"496 514 OFFCURVE",
"431 532 OFFCURVE",
"369 532 CURVE SMOOTH",
"166 532 OFFCURVE",
"30 417 OFFCURVE",
"30 245 CURVE SMOOTH",
"30 90 OFFCURVE",
"150 -13 OFFCURVE",
"329 -13 CURVE SMOOTH"
);
},
{
closed = 1;
nodes = (
"239 337 OFFCURVE",
"300 400 OFFCURVE",
"391 400 CURVE SMOOTH",
"465 400 OFFCURVE",
"515 352 OFFCURVE",
"515 279 CURVE SMOOTH",
"515 184 OFFCURVE",
"454 121 OFFCURVE",
"363 121 CURVE SMOOTH",
"289 121 OFFCURVE",
"239 170 OFFCURVE",
"239 243 CURVE SMOOTH"
);
}
);
width = 1357;
}
);
leftKerningGroup = o;
leftMetricsKey = a;
rightKerningGroup = o;
rightMetricsKey = e;
unicode = 00E6;
},
{
glyphname = b;
lastChange = "2025-09-16 16:06:38 +0000";
layers = (
{
anchors = (
{
name = Top;
position = "{373, 532}";
}
);
layerId = "FD4D3FDD-DE85-408F-A52A-FF600B1C6101";
paths = (
{
closed = 1;
nodes = (
"513 -13 OFFCURVE",
"639 105 OFFCURVE",
"639 283 CURVE SMOOTH",
"639 432 OFFCURVE",
"534 532 OFFCURVE",
"376 532 CURVE SMOOTH",
"268 532 OFFCURVE",
"165 482 OFFCURVE",
"116 411 CURVE",
"113 411 LINE",
"126 520 LINE",
"141 736 LINE",
"93 736 LINE",
"42 0 LINE",
"105 0 LINE",
"94 98 LINE",
"97 98 LINE",
"138 28 OFFCURVE",
"223 -13 OFFCURVE",
"325 -13 CURVE SMOOTH"
);
},
{
closed = 1;
nodes = (
"107 390 OFFCURVE",
"212 490 OFFCURVE",
"369 490 CURVE SMOOTH",
"502 490 OFFCURVE",
"591 407 OFFCURVE",
"591 283 CURVE SMOOTH",
"591 131 OFFCURVE",
"485 29 OFFCURVE",
"325 29 CURVE SMOOTH",
"194 29 OFFCURVE",
"107 113 OFFCURVE",
"107 239 CURVE SMOOTH"
);
}
);
width = 688;
},
{
anchors = (
{
name = Top;
position = "{425, 532}";
}
);
layerId = m002;
paths = (
{
closed = 1;
nodes = (
"611 -13 OFFCURVE",
"733 96 OFFCURVE",
"733 281 CURVE SMOOTH",
"733 439 OFFCURVE",
"620 532 OFFCURVE",
"429 532 CURVE SMOOTH",
"362 532 OFFCURVE",
"300 517 OFFCURVE",
"262 497 CURVE",
"260 497 LINE",
"268 549 LINE",
"281 736 LINE",
"83 736 LINE",
"32 0 LINE",
"239 0 LINE",
"221 38 LINE",
"225 38 LINE",
"255 5 OFFCURVE",
"322 -13 OFFCURVE",
"404 -13 CURVE SMOOTH"
);
},
{
closed = 1;
nodes = (
"247 341 OFFCURVE",
"304 400 OFFCURVE",
"400 400 CURVE SMOOTH",
"479 400 OFFCURVE",
"525 356 OFFCURVE",
"525 281 CURVE SMOOTH",
"525 180 OFFCURVE",
"468 121 OFFCURVE",
"372 121 CURVE SMOOTH",
"293 121 OFFCURVE",
"247 166 OFFCURVE",
"247 241 CURVE SMOOTH"
);
}
);
width = 763;
}
);
leftKerningGroup = h;
leftMetricsKey = n;
rightKerningGroup = o;
rightMetricsKey = o;
unicode = 0062;
},
{
glyphname = c;
lastChange = "2025-09-15 22:16:34 +0000";
layers = (
{
anchors = (
{
name = Bottom;
position = "{318, 0}";
},
{
name = Top;
position = "{365, 532}";
}
);
layerId = "FD4D3FDD-DE85-408F-A52A-FF600B1C6101";
paths = (
{
closed = 1;
nodes = (
"538 156 LINE",
"523 80 OFFCURVE",
"435 29 OFFCURVE",
"318 29 CURVE SMOOTH",
"185 29 OFFCURVE",
"97 112 OFFCURVE",
"97 237 CURVE SMOOTH",
"97 389 OFFCURVE",
"199 490 OFFCURVE",
"353 490 CURVE SMOOTH",
"472 490 OFFCURVE",
"555 439 OFFCURVE",
"561 362 CURVE",
"609 360 LINE",
"605 463 OFFCURVE",
"503 532 OFFCURVE",
"354 532 CURVE SMOOTH",
"183 532 OFFCURVE",
"61 423 OFFCURVE",
"50 260 CURVE SMOOTH",
"38 96 OFFCURVE",
"145 -13 OFFCURVE",
"318 -13 CURVE SMOOTH",
"462 -13 OFFCURVE",
"569 54 OFFCURVE",
"586 154 CURVE"
);
}
);
width = 652;
},
{
anchors = (
{
name = Bottom;
position = "{352, 0}";
},
{
name = Top;
position = "{392, 532}";
}
);
layerId = m002;
paths = (
{
closed = 1;
nodes = (
"488 212 LINE",
"481 172 OFFCURVE",
"434 149 OFFCURVE",
"362 149 CURVE SMOOTH",
"279 149 OFFCURVE",
"233 188 OFFCURVE",
"237 254 CURVE SMOOTH",
"242 327 OFFCURVE",
"297 370 OFFCURVE",
"386 370 CURVE SMOOTH",
"458 370 OFFCURVE",
"501 347 OFFCURVE",
"503 308 CURVE",
"711 304 LINE",
"705 447 OFFCURVE",
"585 532 OFFCURVE",
"388 532 CURVE SMOOTH",
"175 532 OFFCURVE",
"42 432 OFFCURVE",
"30 264 CURVE SMOOTH",
"18 90 OFFCURVE",
"138 -13 OFFCURVE",
"354 -13 CURVE SMOOTH",
"545 -13 OFFCURVE",
"672 69 OFFCURVE",
"696 208 CURVE"
);
}
);
width = 738;
}
);
leftKerningGroup = o;
leftMetricsKey = o;
rightKerningGroup = c;
rightMetricsKey = o;
unicode = 0063;
},
{
color = 10;
glyphname = "chi-latin";
lastChange = "2025-09-15 22:32:07 +0000";
layers = (
{
layerId = "FD4D3FDD-DE85-408F-A52A-FF600B1C6101";
paths = (
{
closed = 1;
nodes = (
"404 151 LINE",
"669 520 LINE",
"614 520 LINE",
"379 194 LINE",
"266 393 LINE SMOOTH",
"218 478 OFFCURVE",
"181 532 OFFCURVE",
"106 532 CURVE SMOOTH",
"90 532 OFFCURVE",
"72 529 OFFCURVE",
"58 524 CURVE",
"55 476 LINE",
"67 482 OFFCURVE",
"89 485 OFFCURVE",
"109 485 CURVE SMOOTH",
"156 485 OFFCURVE",
"180 449 OFFCURVE",
"212 395 CURVE SMOOTH",
"350 153 LINE",
"83 -217 LINE",
"139 -217 LINE",
"374 110 LINE",
"491 -94 LINE SMOOTH",
"538 -178 OFFCURVE",
"570 -233 OFFCURVE",
"646 -233 CURVE SMOOTH",
"661 -233 OFFCURVE",
"679 -230 OFFCURVE",
"693 -225 CURVE",
"696 -177 LINE",
"684 -183 OFFCURVE",
"662 -186 OFFCURVE",
"642 -186 CURVE SMOOTH",
"595 -186 OFFCURVE",
"576 -150 OFFCURVE",
"545 -96 CURVE SMOOTH"
);
}
);
width = 767;
},
{
layerId = m002;
paths = (
{
closed = 1;
nodes = (
"525 156 LINE",
"817 520 LINE",
"589 520 LINE",
"406 292 LINE",
"346 361 LINE SMOOTH",
"254 466 OFFCURVE",
"187 532 OFFCURVE",
"107 532 CURVE SMOOTH",
"87 532 OFFCURVE",
"67 531 OFFCURVE",
"48 522 CURVE",
"40 360 LINE",
"46 363 OFFCURVE",
"56 365 OFFCURVE",
"67 365 CURVE SMOOTH",
"92 365 OFFCURVE",
"117 345 OFFCURVE",
"151 307 CURVE SMOOTH",
"291 147 LINE",
"-1 -217 LINE",
"226 -217 LINE",
"409 11 LINE",
"473 -62 LINE SMOOTH",
"564 -167 OFFCURVE",
"652 -233 OFFCURVE",
"711 -233 CURVE SMOOTH",
"734 -233 OFFCURVE",
"756 -230 OFFCURVE",
"770 -223 CURVE",
"778 -61 LINE",
"773 -64 OFFCURVE",
"764 -66 OFFCURVE",
"750 -66 CURVE SMOOTH",
"726 -66 OFFCURVE",
"701 -46 OFFCURVE",
"668 -8 CURVE SMOOTH"
);
}
);
width = 834;
}
);
leftKerningGroup = x;
leftMetricsKey = x;
rightKerningGroup = x;
rightMetricsKey = x;
unicode = AB53;
},
{
color = 10;
glyphname = cstroke;
lastChange = "2025-09-15 22:32:36 +0000";
layers = (
{
layerId = "FD4D3FDD-DE85-408F-A52A-FF600B1C6101";
paths = (
{
closed = 1;
nodes = (
"538 156 LINE",
"523 80 OFFCURVE",
"435 29 OFFCURVE",
"318 29 CURVE SMOOTH",
"298 29 OFFCURVE",
"279 31 OFFCURVE",
"261 35 CURVE",
"453 476 LINE",
"517 455 OFFCURVE",
"557 415 OFFCURVE",
"561 362 CURVE",
"609 360 LINE",
"606 433 OFFCURVE",
"554 489 OFFCURVE",
"470 515 CURVE",
"489 558 LINE",
"447 558 LINE",
"433 525 LINE",
"408 530 OFFCURVE",
"382 532 OFFCURVE",
"354 532 CURVE SMOOTH",
"171 532 OFFCURVE",
"49 413 OFFCURVE",
"49 235 CURVE SMOOTH",
"49 124 OFFCURVE",
"109 40 OFFCURVE",
"207 5 CURVE",
"183 -50 LINE",
"224 -50 LINE",
"243 -5 LINE",
"267 -10 OFFCURVE",
"292 -13 OFFCURVE",
"318 -13 CURVE SMOOTH",
"462 -13 OFFCURVE",
"569 54 OFFCURVE",
"586 154 CURVE"
);
},
{
closed = 1;
nodes = (
"97 389 OFFCURVE",
"199 490 OFFCURVE",
"353 490 CURVE SMOOTH",
"375 490 OFFCURVE",
"396 488 OFFCURVE",
"415 485 CURVE",
"224 45 LINE",
"145 75 OFFCURVE",
"97 144 OFFCURVE",
"97 237 CURVE SMOOTH"
);
}
);
width = 652;
},
{
layerId = m002;
paths = (
{
closed = 1;
nodes = (
"489 212 LINE",
"480 168 OFFCURVE",
"429 139 OFFCURVE",
"362 139 CURVE",
"358 139 OFFCURVE",
"354 139 OFFCURVE",
"350 139 CURVE",
"450 370 LINE",
"483 358 OFFCURVE",
"503 336 OFFCURVE",
"505 308 CURVE",
"712 304 LINE",
"707 408 OFFCURVE",
"632 485 OFFCURVE",
"514 517 CURVE",
"532 558 LINE",
"480 558 LINE",
"466 526 LINE",
"442 530 OFFCURVE",
"416 532 OFFCURVE",
"389 532 CURVE SMOOTH",
"174 532 OFFCURVE",
"30 417 OFFCURVE",
"30 245 CURVE SMOOTH",
"30 124 OFFCURVE",
"109 34 OFFCURVE",
"237 1 CURVE",
"215 -50 LINE",
"268 -50 LINE",
"286 -8 LINE",
"308 -11 OFFCURVE",
"331 -13 OFFCURVE",
"355 -13 CURVE SMOOTH",
"537 -13 OFFCURVE",
"674 75 OFFCURVE",
"697 208 CURVE"
);
},
{
closed = 1;
nodes = (
"244 330 OFFCURVE",
"305 380 OFFCURVE",
"390 380 CURVE SMOOTH",
"392 380 OFFCURVE",
"394 380 OFFCURVE",
"402 380 CURVE",
"302 150 LINE",
"260 167 OFFCURVE",
"235 205 OFFCURVE",
"238 254 CURVE SMOOTH"
);
}
);
width = 739;
}
);
leftKerningGroup = o;
leftMetricsKey = c;
rightKerningGroup = c;
rightMetricsKey = c;
unicode = 023C;
},
{
glyphname = d;
lastChange = "2025-09-15 22:16:36 +0000";
layers = (
{
anchors = (
{
name = Bottom;
position = "{338, 0}";
},
{
name = Top;
position = "{363, 532}";
},
{
name = Top_EC;
position = "{705, 532}";
}
);
layerId = "FD4D3FDD-DE85-408F-A52A-FF600B1C6101";
paths = (
{
closed = 1;
nodes = (
"422 -13 OFFCURVE",
"511 28 OFFCURVE",
"566 97 CURVE",
"569 97 LINE",
"547 0 LINE",
"610 0 LINE",
"661 736 LINE",
"613 736 LINE",
"598 520 LINE",
"595 411 LINE",
"592 411 LINE",
"553 484 OFFCURVE",
"456 532 OFFCURVE",
"348 532 CURVE SMOOTH",
"169 532 OFFCURVE",
"49 414 OFFCURVE",
"49 238 CURVE SMOOTH",
"49 87 OFFCURVE",
"160 -13 OFFCURVE",
"327 -13 CURVE SMOOTH"
);
},
{
closed = 1;
nodes = (
"97 390 OFFCURVE",
"199 490 OFFCURVE",
"353 490 CURVE SMOOTH",
"490 490 OFFCURVE",
"581 407 OFFCURVE",
"581 282 CURVE SMOOTH",
"581 130 OFFCURVE",
"479 29 OFFCURVE",
"327 29 CURVE SMOOTH",
"189 29 OFFCURVE",
"97 113 OFFCURVE",
"97 240 CURVE SMOOTH"
);
}
);
width = 688;
},
{
anchors = (
{
name = Bottom;
position = "{384, 0}";
},
{
name = Top;
position = "{396, 532}";
},
{
name = Top_EC;
position = "{824, 500}";
}
);
layerId = m002;
paths = (
{
closed = 1;
nodes = (
"407 -13 OFFCURVE",
"478 7 OFFCURVE",
"508 37 CURVE",
"511 37 LINE",
"488 0 LINE",
"695 0 LINE",
"746 736 LINE",
"548 736 LINE",
"535 549 LINE",
"536 486 LINE",
"533 486 LINE",
"497 514 OFFCURVE",
"431 532 OFFCURVE",
"369 532 CURVE SMOOTH",
"166 532 OFFCURVE",
"30 417 OFFCURVE",
"30 245 CURVE SMOOTH",
"30 90 OFFCURVE",
"150 -13 OFFCURVE",
"329 -13 CURVE SMOOTH"
);
},
{
closed = 1;
nodes = (
"239 337 OFFCURVE",
"300 400 OFFCURVE",
"391 400 CURVE SMOOTH",
"465 400 OFFCURVE",
"515 352 OFFCURVE",
"515 279 CURVE SMOOTH",
"515 184 OFFCURVE",
"454 121 OFFCURVE",
"363 121 CURVE SMOOTH",
"289 121 OFFCURVE",
"239 170 OFFCURVE",
"239 243 CURVE SMOOTH"
);
}
);
width = 763;
}
);
leftKerningGroup = o;
leftMetricsKey = o;
rightKerningGroup = n;
rightMetricsKey = n;
unicode = 0064;
},
{
color = 10;
glyphname = eth;
lastChange = "2025-09-15 22:32:39 +0000";
layers = (
{
layerId = "FD4D3FDD-DE85-408F-A52A-FF600B1C6101";
paths = (
{
closed = 1;
nodes = (
"489 -12 OFFCURVE",
"611 120 OFFCURVE",
"611 318 CURVE SMOOTH",
"611 446 OFFCURVE",
"551 565 OFFCURVE",
"452 648 CURVE",
"523 704 LINE",
"501 731 LINE",
"424 670 LINE",
"389 695 OFFCURVE",
"350 715 OFFCURVE",
"308 731 CURVE",
"279 695 LINE",
"317 682 OFFCURVE",
"354 663 OFFCURVE",
"387 640 CURVE",
"317 585 LINE",
"337 559 LINE",
"414 619 LINE",
"470 574 OFFCURVE",
"514 516 OFFCURVE",
"535 455 CURVE",
"532 453 LINE",
"493 500 OFFCURVE",
"417 532 OFFCURVE",
"342 532 CURVE SMOOTH",
"166 532 OFFCURVE",
"49 413 OFFCURVE",
"49 234 CURVE SMOOTH",
"49 86 OFFCURVE",
"152 -12 OFFCURVE",
"306 -12 CURVE SMOOTH"
);
},
{
closed = 1;
nodes = (
"97 389 OFFCURVE",
"195 490 OFFCURVE",
"341 490 CURVE SMOOTH",
"468 490 OFFCURVE",
"553 407 OFFCURVE",
"553 283 CURVE SMOOTH",
"553 131 OFFCURVE",
"455 30 OFFCURVE",
"307 30 CURVE SMOOTH",
"181 30 OFFCURVE",
"97 113 OFFCURVE",
"97 237 CURVE SMOOTH"
);
}
);
width = 658;
},
{
layerId = m002;
paths = (
{
closed = 1;
nodes = (
"535 -12 OFFCURVE",
"672 118 OFFCURVE",
"672 314 CURVE SMOOTH",
"672 450 OFFCURVE",
"601 578 OFFCURVE",
"484 666 CURVE",
"540 710 LINE",
"484 777 LINE",
"406 715 LINE",
"380 729 OFFCURVE",
"353 741 OFFCURVE",
"324 751 CURVE",
"239 648 LINE",
"258 641 OFFCURVE",
"276 634 OFFCURVE",
"293 626 CURVE",
"262 601 LINE",
"317 535 LINE",
"375 580 LINE",
"405 560 OFFCURVE",
"432 537 OFFCURVE",
"453 514 CURVE",
"451 512 LINE",
"426 527 OFFCURVE",
"391 532 OFFCURVE",
"359 532 CURVE SMOOTH",
"162 532 OFFCURVE",
"30 416 OFFCURVE",
"30 242 CURVE SMOOTH",
"30 90 OFFCURVE",
"150 -12 OFFCURVE",
"330 -12 CURVE SMOOTH"
);
},
{
closed = 1;
nodes = (
"198 332 OFFCURVE",
"262 390 OFFCURVE",
"358 390 CURVE SMOOTH",
"439 390 OFFCURVE",
"493 344 OFFCURVE",
"493 275 CURVE SMOOTH",
"493 188 OFFCURVE",
"428 130 OFFCURVE",
"331 130 CURVE SMOOTH",
"251 130 OFFCURVE",
"198 176 OFFCURVE",
"198 245 CURVE SMOOTH"
);
}
);
width = 699;
}
);
leftKerningGroup = o;
leftMetricsKey = d;
rightKerningGroup = o;
rightMetricsKey = o;
unicode = 00F0;
},
{
color = 10;
glyphname = dcroat;
lastChange = "2025-09-15 22:32:41 +0000";
layers = (
{
layerId = "FD4D3FDD-DE85-408F-A52A-FF600B1C6101";
paths = (
{
closed = 1;
nodes = (
"421 -13 OFFCURVE",
"517 31 OFFCURVE",
"567 97 CURVE",
"569 98 LINE",
"547 0 LINE",
"610 0 LINE",
"653 619 LINE",
"746 619 LINE",
"749 664 LINE",
"656 659 LINE",
"661 736 LINE",
"613 736 LINE",
"608 661 LINE",
"474 661 LINE",
"471 619 LINE",
"605 619 LINE",
"598 520 LINE",
"595 412 LINE",
"593 411 LINE",
"554 484 OFFCURVE",
"456 532 OFFCURVE",
"348 532 CURVE SMOOTH",
"169 532 OFFCURVE",
"49 414 OFFCURVE",
"49 238 CURVE SMOOTH",
"49 87 OFFCURVE",
"160 -13 OFFCURVE",
"327 -13 CURVE SMOOTH"
);
},
{
closed = 1;
nodes = (
"97 390 OFFCURVE",
"199 490 OFFCURVE",
"353 490 CURVE SMOOTH",
"490 490 OFFCURVE",
"581 407 OFFCURVE",
"581 282 CURVE SMOOTH",
"581 130 OFFCURVE",
"479 29 OFFCURVE",
"327 29 CURVE SMOOTH",
"189 29 OFFCURVE",
"97 113 OFFCURVE",
"97 240 CURVE SMOOTH"
);
}
);
width = 781;
},
{
layerId = m002;
paths = (
{
closed = 1;
nodes = (
"407 -13 OFFCURVE",
"479 5 OFFCURVE",
"509 35 CURVE SMOOTH",
"511 37 LINE",
"488 0 LINE",
"695 0 LINE",
"736 587 LINE",
"809 587 LINE",
"816 690 LINE",
"742 685 LINE",
"746 736 LINE",
"548 736 LINE",
"545 687 LINE",
"471 687 LINE",
"464 587 LINE",
"538 587 LINE",
"535 549 LINE",
"536 487 LINE",
"534 486 LINE",
"498 514 OFFCURVE",
"431 532 OFFCURVE",
"369 532 CURVE SMOOTH",
"166 532 OFFCURVE",
"30 417 OFFCURVE",
"30 245 CURVE SMOOTH",
"30 90 OFFCURVE",
"150 -13 OFFCURVE",
"329 -13 CURVE SMOOTH"
);
},
{
closed = 1;
nodes = (
"239 337 OFFCURVE",
"300 400 OFFCURVE",
"391 400 CURVE SMOOTH",
"465 400 OFFCURVE",
"515 352 OFFCURVE",
"515 279 CURVE SMOOTH",
"515 184 OFFCURVE",
"454 121 OFFCURVE",
"363 121 CURVE SMOOTH",
"289 121 OFFCURVE",
"239 170 OFFCURVE",
"239 243 CURVE SMOOTH"
);
}
);
width = 836;
}
);
leftKerningGroup = o;
leftMetricsKey = o;
rightKerningGroup = dcroat;
rightMetricsKey = n;
unicode = 0111;
},
{
glyphname = e;
lastChange = "2025-09-15 22:16:38 +0000";
layers = (
{
anchors = (
{
name = Bottom;
position = "{325, 0}";
},
{
name = Top;
position = "{364, 532}";
}
);
layerId = "FD4D3FDD-DE85-408F-A52A-FF600B1C6101";
paths = (
{
closed = 1;
nodes = (
"561 160 LINE",
"539 81 OFFCURVE",
"445 29 OFFCURVE",
"326 29 CURVE SMOOTH",
"189 29 OFFCURVE",
"97 114 OFFCURVE",
"97 256 CURVE",
"621 256 LINE",
"623 297 LINE SMOOTH",
"633 438 OFFCURVE",
"525 532 OFFCURVE",
"353 532 CURVE SMOOTH",
"182 532 OFFCURVE",
"61 425 OFFCURVE",
"50 264 CURVE SMOOTH",
"38 98 OFFCURVE",
"147 -13 OFFCURVE",
"323 -13 CURVE SMOOTH",
"469 -13 OFFCURVE",
"583 55 OFFCURVE",
"609 158 CURVE"
);
},
{
closed = 1;
nodes = (
"125 415 OFFCURVE",
"220 490 OFFCURVE",
"353 490 CURVE SMOOTH",
"495 490 OFFCURVE",
"583 413 OFFCURVE",
"576 298 CURVE",
"102 298 LINE"
);
}
);
width = 671;
},
{
anchors = (
{
name = Bottom;
position = "{368, 0}";
},
{
name = Top;
position = "{397, 532}";
}
);
layerId = m002;
paths = (
{
closed = 1;
nodes = (
"512 177 LINE",
"502 144 OFFCURVE",
"451 124 OFFCURVE",
"375 124 CURVE SMOOTH",
"302 124 OFFCURVE",
"255 157 OFFCURVE",
"244 214 CURVE",
"709 214 LINE",
"711 263 LINE SMOOTH",
"719 432 OFFCURVE",
"601 532 OFFCURVE",
"393 532 CURVE SMOOTH",
"177 532 OFFCURVE",
"42 432 OFFCURVE",
"30 264 CURVE SMOOTH",
"18 90 OFFCURVE",
"143 -13 OFFCURVE",
"367 -13 CURVE SMOOTH",
"551 -13 OFFCURVE",
"679 56 OFFCURVE",
"711 173 CURVE"
);
},
{
closed = 1;
nodes = (
"279 366 OFFCURVE",
"327 395 OFFCURVE",
"393 395 CURVE SMOOTH",
"456 395 OFFCURVE",
"496 366 OFFCURVE",
"505 315 CURVE",
"256 314 LINE"
);
}
);
width = 747;
}
);
leftKerningGroup = o;
leftMetricsKey = o;
rightKerningGroup = o;
rightMetricsKey = o;
unicode = 0065;
},
{
color = 10;
glyphname = eopen;
lastChange = "2025-09-15 22:32:43 +0000";
layers = (
{
layerId = "FD4D3FDD-DE85-408F-A52A-FF600B1C6101";
paths = (
{
closed = 1;
nodes = (
"94 208 OFFCURVE",
"146 250 OFFCURVE",
"229 250 CURVE SMOOTH",
"302 250 LINE",
"305 292 LINE",
"228 292 LINE SMOOTH",
"158 292 OFFCURVE",
"119 327 OFFCURVE",
"124 386 CURVE SMOOTH",
"128 451 OFFCURVE",
"188 490 OFFCURVE",
"286 490 CURVE SMOOTH",
"385 490 OFFCURVE",
"441 452 OFFCURVE",
"437 388 CURVE",
"484 384 LINE",
"491 477 OFFCURVE",
"417 532 OFFCURVE",
"285 532 CURVE SMOOTH",
"160 532 OFFCURVE",
"82 479 OFFCURVE",
"76 390 CURVE SMOOTH",
"72 332 OFFCURVE",
"95 288 OFFCURVE",
"138 273 CURVE",
"138 270 LINE",
"83 259 OFFCURVE",
"47 211 OFFCURVE",
"42 142 CURVE SMOOTH",
"35 45 OFFCURVE",
"112 -13 OFFCURVE",
"249 -13 CURVE SMOOTH",
"383 -13 OFFCURVE",
"466 42 OFFCURVE",
"473 136 CURVE",
"425 140 LINE",
"421 70 OFFCURVE",
"355 29 OFFCURVE",
"247 29 CURVE SMOOTH",
"143 29 OFFCURVE",
"84 69 OFFCURVE",
"89 138 CURVE SMOOTH"
);
}
);
width = 532;
},
{
layerId = m002;
paths = (
{
closed = 1;
nodes = (
"235 206 OFFCURVE",
"254 220 OFFCURVE",
"280 220 CURVE SMOOTH",
"343 220 LINE",
"350 316 LINE",
"282 316 LINE SMOOTH",
"269 316 OFFCURVE",
"261 326 OFFCURVE",
"262 340 CURVE SMOOTH",
"264 361 OFFCURVE",
"296 375 OFFCURVE",
"341 375 CURVE SMOOTH",
"386 375 OFFCURVE",
"415 358 OFFCURVE",
"413 333 CURVE",
"621 329 LINE",
"629 451 OFFCURVE",
"520 532 OFFCURVE",
"348 532 CURVE SMOOTH",
"180 532 OFFCURVE",
"64 466 OFFCURVE",
"56 366 CURVE SMOOTH",
"53 323 OFFCURVE",
"71 286 OFFCURVE",
"100 273 CURVE",
"100 271 LINE",
"57 257 OFFCURVE",
"27 217 OFFCURVE",
"24 171 CURVE SMOOTH",
"16 61 OFFCURVE",
"129 -13 OFFCURVE",
"307 -13 CURVE SMOOTH",
"490 -13 OFFCURVE",
"617 70 OFFCURVE",
"626 194 CURVE",
"419 198 LINE",
"416 166 OFFCURVE",
"374 144 OFFCURVE",
"313 144 CURVE SMOOTH",
"264 144 OFFCURVE",
"232 160 OFFCURVE",
"233 184 CURVE SMOOTH"
);
}
);
width = 661;
}
);
leftKerningGroup = o;
leftMetricsKey = o;
rightKerningGroup = o;
rightMetricsKey = o;
unicode = 025B;
},
{
color = 10;
glyphname = schwa;
lastChange = "2025-09-15 22:32:47 +0000";
layers = (
{
layerId = "FD4D3FDD-DE85-408F-A52A-FF600B1C6101";
paths = (
{
closed = 1;
nodes = (
"110 359 LINE",
"131 438 OFFCURVE",
"225 490 OFFCURVE",
"344 490 CURVE SMOOTH",
"488 490 OFFCURVE",
"579 400 OFFCURVE",
"573 263 CURVE",
"50 263 LINE",
"47 222 LINE SMOOTH",
"37 81 OFFCURVE",
"145 -13 OFFCURVE",
"318 -13 CURVE SMOOTH",
"488 -13 OFFCURVE",
"609 94 OFFCURVE",
"620 255 CURVE SMOOTH",
"632 421 OFFCURVE",
"523 532 OFFCURVE",
"347 532 CURVE SMOOTH",
"202 532 OFFCURVE",
"88 464 OFFCURVE",
"62 361 CURVE"
);
},
{
closed = 1;
nodes = (
"568 221 LINE",
"542 104 OFFCURVE",
"446 29 OFFCURVE",
"317 29 CURVE SMOOTH",
"176 29 OFFCURVE",
"87 105 OFFCURVE",
"95 220 CURVE"
);
}
);
width = 670;
},
{
layerId = m002;
paths = (
{
closed = 1;
nodes = (
"235 342 LINE",
"245 375 OFFCURVE",
"300 395 OFFCURVE",
"382 395 CURVE SMOOTH",
"451 395 OFFCURVE",
"494 362 OFFCURVE",
"503 305 CURVE",
"39 305 LINE",
"36 259 LINE SMOOTH",
"24 88 OFFCURVE",
"142 -13 OFFCURVE",
"354 -13 CURVE SMOOTH",
"571 -13 OFFCURVE",
"706 87 OFFCURVE",
"717 255 CURVE SMOOTH",
"730 429 OFFCURVE",
"609 532 OFFCURVE",
"391 532 CURVE SMOOTH",
"201 532 OFFCURVE",
"69 463 OFFCURVE",
"36 346 CURVE"
);
},
{
closed = 1;
nodes = (
"491 205 LINE",
"469 153 OFFCURVE",
"421 124 OFFCURVE",
"355 124 CURVE SMOOTH",
"291 124 OFFCURVE",
"251 153 OFFCURVE",
"243 204 CURVE"
);
}
);
width = 747;
}
);
leftKerningGroup = o;
leftMetricsKey = e;
rightKerningGroup = o;
rightMetricsKey = e;
unicode = 0259;
},
{
color = 10;
glyphname = ezh;
lastChange = "2025-09-15 22:32:48 +0000";
layers = (
{
anchors = (
{
name = Top;
position = "{338, 520}";
}
);
layerId = "FD4D3FDD-DE85-408F-A52A-FF600B1C6101";
paths = (
{
closed = 1;
nodes = (
"87 478 LINE",
"514 478 LINE",
"296 275 LINE",
"293 233 LINE",
"329 233 LINE SMOOTH",
"453 233 OFFCURVE",
"531 161 OFFCURVE",
"523 53 CURVE SMOOTH",
"516 -58 OFFCURVE",
"424 -132 OFFCURVE",
"294 -132 CURVE SMOOTH",
"159 -132 OFFCURVE",
"75 -62 OFFCURVE",
"83 44 CURVE",
"35 46 LINE",
"26 -86 OFFCURVE",
"129 -174 OFFCURVE",
"292 -174 CURVE SMOOTH",
"450 -174 OFFCURVE",
"562 -84 OFFCURVE",
"571 51 CURVE SMOOTH",
"580 177 OFFCURVE",
"495 265 OFFCURVE",
"355 274 CURVE",
"574 478 LINE",
"577 520 LINE",
"90 520 LINE"
);
}
);
width = 636;
},
{
anchors = (
{
name = Top;
position = "{371, 520}";
}
);
layerId = m002;
paths = (
{
closed = 1;
nodes = (
"61 370 LINE",
"400 370 LINE",
"307 285 LINE",
"296 135 LINE",
"346 135 LINE SMOOTH",
"411 135 OFFCURVE",
"448 108 OFFCURVE",
"445 63 CURVE SMOOTH",
"442 16 OFFCURVE",
"400 -12 OFFCURVE",
"332 -12 CURVE SMOOTH",
"262 -12 OFFCURVE",
"222 16 OFFCURVE",
"225 63 CURVE",
"17 67 LINE",
"7 -84 OFFCURVE",
"121 -174 OFFCURVE",
"325 -174 CURVE SMOOTH",
"521 -174 OFFCURVE",
"642 -90 OFFCURVE",
"652 53 CURVE SMOOTH",
"659 151 OFFCURVE",
"611 222 OFFCURVE",
"518 258 CURVE",
"648 370 LINE",
"658 520 LINE",
"71 520 LINE"
);
}
);
width = 696;
}
);
leftKerningGroup = o;
leftMetricsKey = o;
rightKerningGroup = o;
rightMetricsKey = o;
unicode = 0292;
},
{
glyphname = f;
lastChange = "2025-09-15 22:17:26 +0000";
layers = (
{
layerId = "FD4D3FDD-DE85-408F-A52A-FF600B1C6101";
paths = (
{
closed = 1;
nodes = (
"171 518 LINE",
"78 523 LINE",
"75 478 LINE",
"168 478 LINE",
"135 0 LINE",
"183 0 LINE",
"216 478 LINE",
"360 478 LINE",
"363 520 LINE",
"219 520 LINE",
"222 564 LINE SMOOTH",
"228 646 OFFCURVE",
"282 695 OFFCURVE",
"366 695 CURVE SMOOTH",
"388 695 OFFCURVE",
"410 690 OFFCURVE",
"429 681 CURVE",
"431 723 LINE",
"413 731 OFFCURVE",
"389 736 OFFCURVE",
"364 736 CURVE SMOOTH",
"252 736 OFFCURVE",
"182 672 OFFCURVE",
"174 563 CURVE SMOOTH"
);
}
);
width = 410;
},
{
layerId = m002;
paths = (
{
closed = 1;
nodes = (
"141 518 LINE",
"68 523 LINE",
"58 370 LINE",
"131 370 LINE",
"105 0 LINE",
"303 0 LINE",
"329 370 LINE",
"463 370 LINE",
"473 520 LINE",
"339 520 LINE",
"340 533 LINE SMOOTH",
"342 558 OFFCURVE",
"373 577 OFFCURVE",
"417 577 CURVE SMOOTH",
"438 577 OFFCURVE",
"470 572 OFFCURVE",
"492 564 CURVE",
"499 722 LINE",
"483 730 OFFCURVE",
"446 736 OFFCURVE",
"404 736 CURVE SMOOTH",
"255 736 OFFCURVE",
"151 666 OFFCURVE",
"144 559 CURVE SMOOTH"
);
}
);
width = 501;
}
);
leftKerningGroup = f;
leftMetricsKey = n;
rightKerningGroup = f;
unicode = 0066;
},
{
glyphname = g;
lastChange = "2025-09-15 22:17:33 +0000";
layers = (
{
anchors = (
{
name = Top;
position = "{364, 531}";
}
);
layerId = "FD4D3FDD-DE85-408F-A52A-FF600B1C6101";
paths = (
{
closed = 1;
nodes = (
"646 520 LINE",
"583 520 LINE",
"595 411 LINE",
"593 411 LINE",
"546 487 OFFCURVE",
"461 532 OFFCURVE",
"363 532 CURVE SMOOTH",
"175 532 OFFCURVE",
"49 414 OFFCURVE",
"49 238 CURVE SMOOTH",
"49 87 OFFCURVE",
"163 -13 OFFCURVE",
"333 -13 CURVE SMOOTH",
"422 -13 OFFCURVE",
"517 32 OFFCURVE",
"571 98 CURVE",
"574 98 LINE",
"560 -21 LINE SMOOTH",
"548 -123 OFFCURVE",
"451 -191 OFFCURVE",
"316 -191 CURVE SMOOTH",
"193 -191 OFFCURVE",
"103 -139 OFFCURVE",
"92 -62 CURVE",
"45 -60 LINE",
"56 -164 OFFCURVE",
"164 -233 OFFCURVE",
"315 -233 CURVE SMOOTH",
"482 -233 OFFCURVE",
"600 -145 OFFCURVE",
"609 -12 CURVE SMOOTH"
);
},
{
closed = 1;
nodes = (
"97 390 OFFCURVE",
"203 490 OFFCURVE",
"363 490 CURVE SMOOTH",
"493 490 OFFCURVE",
"580 407 OFFCURVE",
"580 282 CURVE SMOOTH",
"580 130 OFFCURVE",
"479 29 OFFCURVE",
"328 29 CURVE SMOOTH",
"189 29 OFFCURVE",
"97 113 OFFCURVE",
"97 239 CURVE SMOOTH"
);
}
);
width = 688;
},
{
anchors = (
{
name = Top;
position = "{383, 532}";
}
);
layerId = m002;
paths = (
{
closed = 1;
nodes = (
"731 520 LINE",
"524 520 LINE",
"539 488 LINE",
"536 488 LINE",
"504 516 OFFCURVE",
"447 532 OFFCURVE",
"381 532 CURVE SMOOTH",
"160 532 OFFCURVE",
"30 424 OFFCURVE",
"30 240 CURVE SMOOTH",
"30 81 OFFCURVE",
"144 -13 OFFCURVE",
"337 -13 CURVE SMOOTH",
"421 -13 OFFCURVE",
"485 9 OFFCURVE",
"513 42 CURVE",
"515 42 LINE",
"511 -8 LINE SMOOTH",
"507 -63 OFFCURVE",
"452 -96 OFFCURVE",
"364 -96 CURVE SMOOTH",
"277 -96 OFFCURVE",
"227 -68 OFFCURVE",
"230 -21 CURVE",
"32 -17 LINE",
"23 -153 OFFCURVE",
"144 -233 OFFCURVE",
"359 -233 CURVE SMOOTH",
"560 -233 OFFCURVE",
"685 -152 OFFCURVE",
"694 -15 CURVE SMOOTH"
);
},
{
closed = 1;
nodes = (
"238 329 OFFCURVE",
"297 379 OFFCURVE",
"397 379 CURVE SMOOTH",
"471 379 OFFCURVE",
"514 341 OFFCURVE",
"514 276 CURVE SMOOTH",
"514 190 OFFCURVE",
"461 139 OFFCURVE",
"371 139 CURVE SMOOTH",
"287 139 OFFCURVE",
"238 178 OFFCURVE",
"238 245 CURVE SMOOTH"
);
}
);
width = 763;
}
);
leftKerningGroup = o;
leftMetricsKey = o;
rightKerningGroup = g;
rightMetricsKey = n;
unicode = 0067;
},
{
color = 10;
glyphname = "gamma-latin";
lastChange = "2025-09-15 22:32:52 +0000";
layers = (
{
layerId = "FD4D3FDD-DE85-408F-A52A-FF600B1C6101";
paths = (
{
closed = 1;
nodes = (
"374 -217 OFFCURVE",
"447 -151 OFFCURVE",
"447 -53 CURVE SMOOTH",
"447 -2 OFFCURVE",
"425 40 OFFCURVE",
"390 92 CURVE SMOOTH",
"317 202 LINE",
"568 520 LINE",
"517 520 LINE",
"294 238 LINE",
"109 520 LINE",
"58 520 LINE",
"265 202 LINE",
"179 99 LINE SMOOTH",
"129 39 OFFCURVE",
"95 -12 OFFCURVE",
"95 -70 CURVE SMOOTH",
"95 -158 OFFCURVE",
"163 -217 OFFCURVE",
"265 -217 CURVE SMOOTH"
);
},
{
closed = 1;
nodes = (
"143 -7 OFFCURVE",
"173 28 OFFCURVE",
"224 89 CURVE SMOOTH",
"289 168 LINE",
"345 87 LINE SMOOTH",
"405 0 OFFCURVE",
"399 -34 OFFCURVE",
"399 -53 CURVE SMOOTH",
"399 -126 OFFCURVE",
"347 -175 OFFCURVE",
"271 -175 CURVE SMOOTH",
"194 -175 OFFCURVE",
"143 -131 OFFCURVE",
"143 -64 CURVE SMOOTH"
);
}
);
width = 590;
},
{
layerId = m002;
paths = (
{
closed = 1;
nodes = (
"500 -217 OFFCURVE",
"628 -119 OFFCURVE",
"628 27 CURVE SMOOTH",
"628 69 OFFCURVE",
"606 123 OFFCURVE",
"569 171 CURVE SMOOTH",
"455 320 LINE",
"623 520 LINE",
"404 520 LINE",
"349 458 LINE",
"302 520 LINE",
"79 520 LINE",
"221 314 LINE",
"76 151 LINE SMOOTH",
"38 108 OFFCURVE",
"12 49 OFFCURVE",
"12 -10 CURVE SMOOTH",
"12 -134 OFFCURVE",
"130 -217 OFFCURVE",
"308 -217 CURVE SMOOTH"
);
},
{
closed = 1;
nodes = (
"222 31 OFFCURVE",
"234 57 OFFCURVE",
"261 90 CURVE SMOOTH",
"324 165 LINE",
"379 86 LINE SMOOTH",
"399 58 OFFCURVE",
"413 37 OFFCURVE",
"413 15 CURVE SMOOTH",
"413 -25 OFFCURVE",
"375 -49 OFFCURVE",
"315 -49 CURVE SMOOTH",
"257 -49 OFFCURVE",
"222 -25 OFFCURVE",
"222 15 CURVE SMOOTH"
);
}
);
width = 675;
}
);
leftKerningGroup = v;
leftMetricsKey = v;
rightKerningGroup = v;
rightMetricsKey = v;
unicode = 0263;
},
{
color = 10;
glyphname = glottalstop;
lastChange = "2025-09-15 22:32:54 +0000";
layers = (
{
layerId = "FD4D3FDD-DE85-408F-A52A-FF600B1C6101";
paths = (
{
closed = 1;
nodes = (
"285 0 LINE",
"307 315 OFFCURVE",
"578 284 OFFCURVE",
"594 520 CURVE SMOOTH",
"603 649 OFFCURVE",
"512 726 OFFCURVE",
"349 726 CURVE SMOOTH",
"181 726 OFFCURVE",
"77 650 OFFCURVE",
"68 521 CURVE",
"116 519 LINE",
"123 623 OFFCURVE",
"210 684 OFFCURVE",
"349 684 CURVE SMOOTH",
"480 684 OFFCURVE",
"553 624 OFFCURVE",
"546 522 CURVE SMOOTH",
"532 316 OFFCURVE",
"260 340 OFFCURVE",
"237 0 CURVE"
);
}
);
width = 626;
},
{
layerId = m002;
paths = (
{
closed = 1;
nodes = (
"378 0 LINE",
"398 265 OFFCURVE",
"718 211 OFFCURVE",
"718 490 CURVE SMOOTH",
"718 638 OFFCURVE",
"598 726 OFFCURVE",
"394 726 CURVE SMOOTH",
"186 726 OFFCURVE",
"56 630 OFFCURVE",
"44 467 CURVE",
"252 463 LINE",
"257 529 OFFCURVE",
"309 568 OFFCURVE",
"392 568 CURVE SMOOTH",
"470 568 OFFCURVE",
"513 535 OFFCURVE",
"509 480 CURVE SMOOTH",
"497 305 OFFCURVE",
"203 321 OFFCURVE",
"181 0 CURVE"
);
}
);
width = 733;
}
);
leftKerningGroup = o;
leftMetricsKey = o;
rightKerningGroup = p;
rightMetricsKey = o;
unicode = 0294;
},
{
color = 10;
glyphname = glottalstopreversed;
lastChange = "2025-09-15 22:32:57 +0000";
layers = (
{
layerId = "FD4D3FDD-DE85-408F-A52A-FF600B1C6101";
paths = (
{
closed = 1;
nodes = (
"353 0 LINE",
"376 340 OFFCURVE",
"102 314 OFFCURVE",
"116 520 CURVE SMOOTH",
"123 622 OFFCURVE",
"206 684 OFFCURVE",
"339 684 CURVE SMOOTH",
"476 684 OFFCURVE",
"553 624 OFFCURVE",
"546 521 CURVE",
"594 519 LINE",
"603 648 OFFCURVE",
"508 726 OFFCURVE",
"339 726 CURVE SMOOTH",
"178 726 OFFCURVE",
"77 651 OFFCURVE",
"68 522 CURVE SMOOTH",
"52 286 OFFCURVE",
"327 315 OFFCURVE",
"305 0 CURVE"
);
}
);
width = 626;
},
{
layerId = m002;
paths = (
{
closed = 1;
nodes = (
"515 0 LINE",
"515 286 OFFCURVE",
"254 290 OFFCURVE",
"254 460 CURVE SMOOTH",
"254 528 OFFCURVE",
"306 568 OFFCURVE",
"393 568 CURVE SMOOTH",
"471 568 OFFCURVE",
"514 530 OFFCURVE",
"509 467 CURVE",
"717 463 LINE",
"728 628 OFFCURVE",
"608 726 OFFCURVE",
"395 726 CURVE SMOOTH",
"175 726 OFFCURVE",
"45 627 OFFCURVE",
"45 459 CURVE SMOOTH",
"45 223 OFFCURVE",
"318 239 OFFCURVE",
"318 0 CURVE"
);
}
);
width = 733;
}
);
leftKerningGroup = o;
leftMetricsKey = o;
rightKerningGroup = o;
rightMetricsKey = c;
unicode = 0295;
},
{
color = 10;
glyphname = gstroke;
lastChange = "2025-09-15 22:32:59 +0000";
layers = (
{
layerId = "FD4D3FDD-DE85-408F-A52A-FF600B1C6101";
paths = (
{
closed = 1;
nodes = (
"626 238 LINE",
"702 238 LINE",
"705 280 LINE",
"629 280 LINE",
"646 520 LINE",
"583 520 LINE",
"596 411 LINE",
"594 410 LINE",
"535 496 OFFCURVE",
"461 532 OFFCURVE",
"363 532 CURVE SMOOTH",
"175 532 OFFCURVE",
"49 414 OFFCURVE",
"49 238 CURVE SMOOTH",
"49 87 OFFCURVE",
"163 -13 OFFCURVE",
"333 -13 CURVE SMOOTH",
"422 -13 OFFCURVE",
"518 31 OFFCURVE",
"572 97 CURVE",
"574 98 LINE",
"560 -21 LINE SMOOTH",
"548 -123 OFFCURVE",
"450 -191 OFFCURVE",
"316 -191 CURVE SMOOTH",
"193 -191 OFFCURVE",
"103 -139 OFFCURVE",
"92 -62 CURVE",
"45 -60 LINE",
"56 -164 OFFCURVE",
"164 -233 OFFCURVE",
"315 -233 CURVE SMOOTH",
"482 -233 OFFCURVE",
"600 -145 OFFCURVE",
"609 -12 CURVE SMOOTH"
);
},
{
closed = 1;
nodes = (
"97 390 OFFCURVE",
"203 490 OFFCURVE",
"363 490 CURVE SMOOTH",
"493 490 OFFCURVE",
"580 404 OFFCURVE",
"580 279 CURVE SMOOTH",
"505 285 LINE",
"502 238 LINE",
"577 238 LINE",
"559 111 OFFCURVE",
"464 29 OFFCURVE",
"328 29 CURVE SMOOTH",
"189 29 OFFCURVE",
"97 113 OFFCURVE",
"97 239 CURVE SMOOTH"
);
}
);
width = 764;
},
{
layerId = m002;
paths = (
{
closed = 1;
nodes = (
"709 199 LINE",
"779 199 LINE",
"787 319 LINE",
"717 319 LINE",
"731 520 LINE",
"526 520 LINE",
"544 489 LINE",
"542 488 LINE",
"505 515 OFFCURVE",
"444 532 OFFCURVE",
"381 532 CURVE SMOOTH",
"160 532 OFFCURVE",
"30 424 OFFCURVE",
"30 240 CURVE SMOOTH",
"30 81 OFFCURVE",
"144 -13 OFFCURVE",
"337 -13 CURVE SMOOTH",
"420 -13 OFFCURVE",
"486 7 OFFCURVE",
"514 40 CURVE",
"515 42 LINE",
"511 -8 LINE SMOOTH",
"507 -63 OFFCURVE",
"452 -96 OFFCURVE",
"364 -96 CURVE SMOOTH",
"277 -96 OFFCURVE",
"227 -68 OFFCURVE",
"230 -21 CURVE",
"32 -17 LINE",
"23 -153 OFFCURVE",
"144 -233 OFFCURVE",
"359 -233 CURVE SMOOTH",
"561 -233 OFFCURVE",
"684 -152 OFFCURVE",
"694 -15 CURVE SMOOTH"
);
},
{
closed = 1;
nodes = (
"238 329 OFFCURVE",
"297 379 OFFCURVE",
"397 379 CURVE SMOOTH",
"454 379 OFFCURVE",
"492 357 OFFCURVE",
"507 317 CURVE",
"423 322 LINE",
"415 199 LINE",
"495 199 LINE",
"472 160 OFFCURVE",
"429 139 OFFCURVE",
"371 139 CURVE SMOOTH",
"287 139 OFFCURVE",
"238 178 OFFCURVE",
"238 245 CURVE SMOOTH"
);
}
);
width = 833;
}
);
leftKerningGroup = o;
leftMetricsKey = g;
rightKerningGroup = g;
rightMetricsKey = g;
unicode = 01E5;
},
{
glyphname = h;
lastChange = "2025-09-16 16:06:08 +0000";
layers = (
{
anchors = (
{
name = Bottom;
position = "{288, 0}";
},
{
name = Top;
position = "{117, 736}";
}
);
layerId = "FD4D3FDD-DE85-408F-A52A-FF600B1C6101";
paths = (
{
closed = 1;
nodes = (
"110 284 LINE SMOOTH",
"119 413 OFFCURVE",
"201 490 OFFCURVE",
"332 490 CURVE SMOOTH",
"448 490 OFFCURVE",
"513 430 OFFCURVE",
"506 329 CURVE SMOOTH",
"483 0 LINE",
"531 0 LINE",
"554 332 LINE SMOOTH",
"563 458 OFFCURVE",
"481 532 OFFCURVE",
"334 532 CURVE SMOOTH",
"237 532 OFFCURVE",
"156 493 OFFCURVE",
"117 427 CURVE",
"114 427 LINE",
"131 520 LINE",
"146 736 LINE",
"93 736 LINE",
"42 0 LINE",
"90 0 LINE"
);
}
);
width = 609;
},
{
anchors = (
{
name = Bottom;
position = "{359, 0}";
},
{
name = Top;
position = "{178, 736}";
}
);
layerId = m002;
paths = (
{
closed = 1;
nodes = (
"248 266 LINE SMOOTH",
"252 328 OFFCURVE",
"306 370 OFFCURVE",
"384 370 CURVE SMOOTH",
"455 370 OFFCURVE",
"500 330 OFFCURVE",
"496 270 CURVE SMOOTH",
"477 0 LINE",
"675 0 LINE",
"698 331 LINE SMOOTH",
"706 452 OFFCURVE",
"604 532 OFFCURVE",
"442 532 CURVE SMOOTH",
"359 532 OFFCURVE",
"290 511 OFFCURVE",
"255 477 CURVE",
"252 477 LINE",
"267 520 LINE",
"290 736 LINE",
"83 736 LINE",
"32 0 LINE",
"230 0 LINE"
);
}
);
width = 743;
}
);
leftKerningGroup = h;
leftMetricsKey = n;
rightKerningGroup = n;
rightMetricsKey = n;
unicode = 0068;
},
{
color = 10;
glyphname = hbar;
lastChange = "2025-09-15 22:33:05 +0000";
layers = (
{
layerId = "FD4D3FDD-DE85-408F-A52A-FF600B1C6101";
paths = (
{
closed = 1;
nodes = (
"203 284 LINE SMOOTH",
"212 413 OFFCURVE",
"294 490 OFFCURVE",
"425 490 CURVE SMOOTH",
"541 490 OFFCURVE",
"606 430 OFFCURVE",
"599 329 CURVE SMOOTH",
"576 0 LINE",
"624 0 LINE",
"647 332 LINE SMOOTH",
"656 458 OFFCURVE",
"576 532 OFFCURVE",
"431 532 CURVE SMOOTH",
"323 532 OFFCURVE",
"257 492 OFFCURVE",
"209 427 CURVE",
"207 428 LINE",
"224 520 LINE",
"231 619 LINE",
"360 619 LINE",
"363 661 LINE",
"234 661 LINE",
"239 736 LINE",
"186 736 LINE",
"181 659 LINE",
"88 664 LINE",
"85 619 LINE",
"178 619 LINE",
"135 0 LINE",
"183 0 LINE"
);
}
);
width = 702;
},
{
layerId = m002;
paths = (
{
closed = 1;
nodes = (
"324 266 LINE SMOOTH",
"328 328 OFFCURVE",
"382 370 OFFCURVE",
"460 370 CURVE SMOOTH",
"531 370 OFFCURVE",
"576 330 OFFCURVE",
"572 270 CURVE SMOOTH",
"553 0 LINE",
"751 0 LINE",
"774 331 LINE SMOOTH",
"782 452 OFFCURVE",
"680 532 OFFCURVE",
"518 532 CURVE SMOOTH",
"439 532 OFFCURVE",
"360 510 OFFCURVE",
"321 476 CURVE",
"319 477 LINE",
"343 520 LINE",
"347 587 LINE",
"418 587 LINE",
"425 687 LINE",
"354 687 LINE",
"357 736 LINE",
"159 736 LINE",
"155 685 LINE",
"80 690 LINE",
"73 587 LINE",
"149 587 LINE",
"108 0 LINE",
"306 0 LINE"
);
}
);
width = 819;
}
);
leftKerningGroup = hbar;
leftMetricsKey = n;
rightKerningGroup = n;
rightMetricsKey = n;
unicode = 0127;
},
{
color = 10;
glyphname = idotless;
lastChange = "2025-09-15 22:33:07 +0000";
layers = (
{
anchors = (
{
name = Bottom;
position = "{66, 0}";
},
{
name = Top;
position = "{102, 520}";
}
);
layerId = "FD4D3FDD-DE85-408F-A52A-FF600B1C6101";
paths = (
{
closed = 1;
nodes = (
"78 520 LINE",
"42 0 LINE",
"90 0 LINE",
"126 520 LINE"
);
}
);
width = 168;
},
{
anchors = (
{
name = Bottom;
position = "{131, 0}";
},
{
name = Top;
position = "{167, 520}";
}
);
layerId = m002;
paths = (
{
closed = 1;
nodes = (
"68 520 LINE",
"32 0 LINE",
"230 0 LINE",
"266 520 LINE"
);
}
);
width = 298;
}
);
leftKerningGroup = i;
leftMetricsKey = n;
rightKerningGroup = i;
rightMetricsKey = n;
unicode = 0131;
},
{
color = 10;
glyphname = ij;
lastChange = "2025-09-15 23:37:45 +0000";
layers = (
{
layerId = "FD4D3FDD-DE85-408F-A52A-FF600B1C6101";
paths = (
{
closed = 1;
nodes = (
"50 -171 OFFCURVE",
"155 -233 OFFCURVE",
"299 -233 CURVE SMOOTH",
"463 -233 OFFCURVE",
"579 -145 OFFCURVE",
"588 -12 CURVE SMOOTH",
"625 520 LINE",
"577 520 LINE",
"554 186 LINE SMOOTH",
"548 92 OFFCURVE",
"451 29 OFFCURVE",
"315 29 CURVE SMOOTH",
"193 29 OFFCURVE",
"116 89 OFFCURVE",
"122 178 CURVE SMOOTH",
"146 520 LINE",
"98 520 LINE",
"73 168 LINE SMOOTH",
"65 59 OFFCURVE",
"163 -13 OFFCURVE",
"315 -13 CURVE SMOOTH",
"423 -13 OFFCURVE",
"515 23 OFFCURVE",
"544 77 CURVE",
"546 78 LINE",
"539 -21 LINE SMOOTH",
"532 -123 OFFCURVE",
"438 -191 OFFCURVE",
"303 -191 CURVE SMOOTH",
"182 -191 OFFCURVE",
"94 -147 OFFCURVE",
"84 -80 CURVE",
"36 -78 LINE"
);
},
{
closed = 1;
nodes = (
"150 567 LINE",
"156 649 LINE",
"108 649 LINE",
"102 567 LINE"
);
},
{
closed = 1;
nodes = (
"629 567 LINE",
"635 649 LINE",
"587 649 LINE",
"581 567 LINE"
);
}
);
width = 668;
},
{
layerId = m002;
paths = (
{
closed = 1;
nodes = (
"21 -153 OFFCURVE",
"149 -233 OFFCURVE",
"347 -233 CURVE SMOOTH",
"551 -233 OFFCURVE",
"692 -143 OFFCURVE",
"702 -5 CURVE SMOOTH",
"739 520 LINE",
"541 520 LINE",
"522 250 LINE SMOOTH",
"518 191 OFFCURVE",
"462 150 OFFCURVE",
"383 150 CURVE SMOOTH",
"309 150 OFFCURVE",
"264 187 OFFCURVE",
"268 246 CURVE SMOOTH",
"287 520 LINE",
"89 520 LINE",
"65 182 LINE SMOOTH",
"57 67 OFFCURVE",
"162 -12 OFFCURVE",
"325 -12 CURVE SMOOTH",
"409 -12 OFFCURVE",
"484 4 OFFCURVE",
"511 31 CURVE",
"514 33 LINE",
"507 -8 LINE SMOOTH",
"498 -60 OFFCURVE",
"437 -96 OFFCURVE",
"352 -96 CURVE SMOOTH",
"275 -96 OFFCURVE",
"224 -75 OFFCURVE",
"227 -41 CURVE",
"29 -37 LINE"
);
},
{
closed = 1;
nodes = (
"291 567 LINE",
"301 717 LINE",
"103 717 LINE",
"93 567 LINE"
);
},
{
closed = 1;
nodes = (
"743 567 LINE",
"753 717 LINE",
"555 717 LINE",
"545 567 LINE"
);
}
);
width = 772;
}
);
leftKerningGroup = ij;
leftMetricsKey = u;
rightKerningGroup = ij;
rightMetricsKey = j;
unicode = 0133;
},
{
color = 10;
glyphname = "iota-latin";
lastChange = "2025-09-16 14:04:08 +0000";
layers = (
{
layerId = "FD4D3FDD-DE85-408F-A52A-FF600B1C6101";
paths = (
{
closed = 1;
nodes = (
"44 28 OFFCURVE",
"80 -11 OFFCURVE",
"146 -11 CURVE SMOOTH",
"161 -11 OFFCURVE",
"178 -7 OFFCURVE",
"191 -1 CURVE",
"193 41 LINE",
"183 34 OFFCURVE",
"165 30 OFFCURVE",
"146 30 CURVE SMOOTH",
"111 30 OFFCURVE",
"93 52 OFFCURVE",
"96 90 CURVE SMOOTH",
"126 520 LINE",
"78 520 LINE",
"48 92 LINE SMOOTH"
);
}
);
width = 269;
},
{
layerId = m002;
paths = (
{
closed = 1;
nodes = (
"36 57 OFFCURVE",
"118 -13 OFFCURVE",
"265 -13 CURVE SMOOTH",
"289 -13 OFFCURVE",
"316 -9 OFFCURVE",
"335 -1 CURVE",
"342 161 LINE",
"323 152 OFFCURVE",
"305 146 OFFCURVE",
"281 146 CURVE SMOOTH",
"258 146 OFFCURVE",
"241 161 OFFCURVE",
"243 189 CURVE SMOOTH",
"266 520 LINE",
"68 520 LINE",
"44 173 LINE SMOOTH"
);
}
);
width = 403;
}
);
leftKerningGroup = iota;
leftMetricsKey = i;
rightKerningGroup = iota;
rightMetricsKey = i;
unicode = 0269;
},
{
color = 10;
glyphname = istroke;
lastChange = "2025-09-16 14:04:15 +0000";
layers = (
{
components = (
{
name = idotless;
transform = "{1, 0, 0, 1, 77, 0}";
},
{
name = dotaccentcomb;
transform = "{1, 0, 0, 1, 107, 0}";
}
);
layerId = "FD4D3FDD-DE85-408F-A52A-FF600B1C6101";
paths = (
{
closed = 1;
nodes = (
"260 251 LINE",
"263 293 LINE",
"184 293 LINE",
"142 291 LINE",
"63 296 LINE",
"60 251 LINE"
);
}
);
width = 321;
},
{
components = (
{
name = idotless;
transform = "{1, 0, 0, 1, 82, 0}";
},
{
name = dotaccentcomb;
transform = "{1, 0, 0, 1, 103, 0}";
}
);
layerId = m002;
paths = (
{
closed = 1;
nodes = (
"411 209 LINE",
"419 329 LINE",
"331 329 LINE",
"143 327 LINE",
"55 332 LINE",
"47 209 LINE"
);
}
);
width = 465;
}
);
leftKerningGroup = istroke;
leftMetricsKey = i;
rightKerningGroup = istroke;
rightMetricsKey = i;
unicode = 0268;
},
{
color = 10;
glyphname = jdotless;
lastChange = "2025-09-15 22:34:01 +0000";
layers = (
{
anchors = (
{
name = Top;
position = "{251, 520}";
}
);
hints = (
{
horizontal = 1;
place = "{520, 0}";
type = Stem;
}
);
layerId = "FD4D3FDD-DE85-408F-A52A-FF600B1C6101";
paths = (
{
closed = 1;
nodes = (
"275 520 LINE",
"227 520 LINE",
"186 -69 LINE SMOOTH",
"180 -146 OFFCURVE",
"133 -192 OFFCURVE",
"57 -192 CURVE SMOOTH",
"39 -192 OFFCURVE",
"21 -191 OFFCURVE",
"9 -188 CURVE",
"7 -230 LINE",
"22 -232 OFFCURVE",
"40 -233 OFFCURVE",
"56 -233 CURVE SMOOTH",
"161 -233 OFFCURVE",
"227 -173 OFFCURVE",
"234 -71 CURVE SMOOTH"
);
}
);
width = 317;
},
{
anchors = (
{
name = Top;
position = "{232, 520}";
}
);
hints = (
{
horizontal = 1;
place = "{520, 0}";
type = Stem;
}
);
layerId = m002;
paths = (
{
closed = 1;
nodes = (
"331 520 LINE",
"133 520 LINE",
"96 -10 LINE SMOOTH",
"93 -49 OFFCURVE",
"73 -74 OFFCURVE",
"43 -74 CURVE SMOOTH",
"27 -74 OFFCURVE",
"9 -74 OFFCURVE",
"-3 -71 CURVE",
"-10 -230 LINE",
"1 -232 OFFCURVE",
"19 -233 OFFCURVE",
"40 -233 CURVE SMOOTH",
"191 -233 OFFCURVE",
"284 -152 OFFCURVE",
"294 -12 CURVE SMOOTH"
);
}
);
width = 363;
}
);
leftKerningGroup = j;
rightKerningGroup = n;
rightMetricsKey = n;
unicode = 0237;
},
{
glyphname = k;
lastChange = "2025-09-16 14:22:48 +0000";
layers = (
{
anchors = (
{
name = Bottom;
position = "{268, 0}";
},
{
name = Top;
position = "{270, 520}";
}
);
layerId = "FD4D3FDD-DE85-408F-A52A-FF600B1C6101";
paths = (
{
closed = 1;
nodes = (
"42 0 LINE",
"90 0 LINE",
"103 185 LINE",
"226 277 LINE",
"456 0 LINE",
"523 0 LINE",
"266 308 LINE",
"548 520 LINE",
"475 520 LINE",
"109 250 LINE",
"107 251 LINE",
"141 736 LINE",
"93 736 LINE"
);
}
);
width = 581;
},
{
anchors = (
{
name = Bottom;
position = "{322, 0}";
},
{
name = Top;
position = "{368, 520}";
}
);
layerId = m002;
paths = (
{
closed = 1;
nodes = (
"32 0 LINE",
"230 0 LINE",
"240 146 LINE",
"315 207 LINE",
"458 0 LINE",
"670 0 LINE",
"459 322 LINE",
"705 520 LINE",
"447 520 LINE",
"258 379 LINE",
"256 380 LINE",
"281 736 LINE",
"83 736 LINE"
);
}
);
width = 718;
}
);
leftKerningGroup = h;
leftMetricsKey = n;
rightKerningGroup = k;
unicode = 006B;
},
{
color = 10;
glyphname = kgreenlandic;
lastChange = "2025-09-15 22:30:05 +0000";
layers = (
{
layerId = "FD4D3FDD-DE85-408F-A52A-FF600B1C6101";
paths = (
{
closed = 1;
nodes = (
"42 0 LINE",
"90 0 LINE",
"109 262 LINE",
"110 262 LINE",
"412 0 LINE",
"489 0 LINE",
"167 280 LINE",
"530 520 LINE",
"453 520 LINE",
"112 299 LINE",
"110 299 LINE",
"126 520 LINE",
"78 520 LINE"
);
}
);
width = 552;
},
{
layerId = m002;
paths = (
{
closed = 1;
nodes = (
"32 0 LINE",
"230 0 LINE",
"245 208 LINE",
"248 208 LINE",
"451 0 LINE",
"705 0 LINE",
"422 277 LINE",
"748 520 LINE",
"486 520 LINE",
"255 354 LINE",
"253 354 LINE",
"266 520 LINE",
"68 520 LINE"
);
}
);
width = 760;
}
);
leftKerningGroup = n;
leftMetricsKey = k;
rightKerningGroup = k;
rightMetricsKey = k;
unicode = 0138;
},
{
glyphname = l;
lastChange = "2025-09-16 14:22:52 +0000";
layers = (
{
anchors = (
{
name = Bottom;
position = "{66, 0}";
},
{
name = Caron;
position = "{207, 560}";
},
{
name = Top;
position = "{117, 736}";
},
{
name = Top_EC;
position = "{196, 570}";
}
);
layerId = "FD4D3FDD-DE85-408F-A52A-FF600B1C6101";
paths = (
{
closed = 1;
nodes = (
"42 0 LINE",
"90 0 LINE",
"141 736 LINE",
"93 736 LINE"
);
}
);
width = 168;
},
{
anchors = (
{
name = Bottom;
position = "{131, 0}";
},
{
name = Caron;
position = "{387, 560}";
},
{
name = Top;
position = "{182, 736}";
},
{
name = Top_EC;
position = "{387, 570}";
}
);
layerId = m002;
paths = (
{
closed = 1;
nodes = (
"32 0 LINE",
"230 0 LINE",
"281 736 LINE",
"83 736 LINE"
);
}
);
width = 298;
}
);
leftKerningGroup = h;
leftMetricsKey = n;
rightKerningGroup = l;
rightMetricsKey = n;
unicode = 006C;
},
{
color = 10;
glyphname = lambdastroke;
lastChange = "2025-09-15 22:34:27 +0000";
layers = (
{
layerId = "FD4D3FDD-DE85-408F-A52A-FF600B1C6101";
paths = (
{
closed = 1;
nodes = (
"332 446 LINE",
"334 446 LINE",
"458 127 LINE SMOOTH",
"493 36 OFFCURVE",
"538 -13 OFFCURVE",
"615 -13 CURVE SMOOTH",
"629 -13 OFFCURVE",
"647 -11 OFFCURVE",
"661 -6 CURVE",
"661 44 LINE",
"649 38 OFFCURVE",
"627 34 OFFCURVE",
"605 34 CURVE SMOOTH",
"560 34 OFFCURVE",
"527 64 OFFCURVE",
"505 123 CURVE SMOOTH",
"358 511 LINE",
"490 536 LINE",
"498 576 LINE",
"344 546 LINE",
"291 686 OFFCURVE",
"246 728 OFFCURVE",
"169 728 CURVE SMOOTH",
"155 728 OFFCURVE",
"137 726 OFFCURVE",
"123 721 CURVE",
"124 671 LINE",
"135 677 OFFCURVE",
"158 681 OFFCURVE",
"179 681 CURVE SMOOTH",
"225 681 OFFCURVE",
"258 651 OFFCURVE",
"298 539 CURVE",
"179 515 LINE",
"171 476 LINE",
"312 503 LINE",
"311 501 LINE",
"22 0 LINE",
"73 0 LINE"
);
}
);
width = 720;
},
{
layerId = m002;
paths = (
{
closed = 1;
nodes = (
"368 261 LINE",
"371 261 LINE",
"424 148 LINE SMOOTH",
"470 49 OFFCURVE",
"561 -13 OFFCURVE",
"672 -13 CURVE SMOOTH",
"695 -13 OFFCURVE",
"719 -11 OFFCURVE",
"735 -6 CURVE",
"742 156 LINE",
"730 150 OFFCURVE",
"702 146 OFFCURVE",
"663 146 CURVE SMOOTH",
"639 146 OFFCURVE",
"618 157 OFFCURVE",
"608 180 CURVE SMOOTH",
"448 537 LINE",
"546 555 LINE",
"554 595 LINE",
"432 569 LINE",
"387 667 OFFCURVE",
"295 727 OFFCURVE",
"185 727 CURVE SMOOTH",
"162 727 OFFCURVE",
"138 725 OFFCURVE",
"122 720 CURVE",
"145 558 LINE",
"157 564 OFFCURVE",
"176 568 OFFCURVE",
"194 568 CURVE SMOOTH",
"215 568 OFFCURVE",
"236 555 OFFCURVE",
"247 537 CURVE",
"141 519 LINE",
"132 476 LINE",
"262 501 LINE",
"280 459 LINE",
"22 0 LINE",
"221 0 LINE"
);
}
);
width = 794;
}
);
leftKerningGroup = A;
leftMetricsKey = A;
rightKerningGroup = A;
rightMetricsKey = A;
unicode = 019B;
},
{
color = 10;
glyphname = lbar;
lastChange = "2025-09-15 22:34:29 +0000";
layers = (
{
layerId = "FD4D3FDD-DE85-408F-A52A-FF600B1C6101";
paths = (
{
closed = 1;
nodes = (
"145 381 LINE",
"70 386 LINE",
"66 341 LINE",
"143 341 LINE",
"119 0 LINE",
"167 0 LINE",
"191 341 LINE",
"266 341 LINE",
"269 383 LINE",
"194 383 LINE",
"218 736 LINE",
"170 736 LINE"
);
}
);
width = 320;
},
{
layerId = m002;
paths = (
{
closed = 1;
nodes = (
"144 417 LINE",
"61 422 LINE",
"53 299 LINE",
"136 299 LINE",
"115 0 LINE",
"313 0 LINE",
"334 299 LINE",
"417 299 LINE",
"425 419 LINE",
"342 419 LINE",
"364 736 LINE",
"166 736 LINE"
);
}
);
width = 464;
}
);
leftKerningGroup = l;
leftMetricsKey = l;
rightKerningGroup = l;
rightMetricsKey = l;
unicode = 019A;
},
{
color = 10;
glyphname = lbelt;
lastChange = "2025-09-15 22:34:31 +0000";
layers = (
{
layerId = "FD4D3FDD-DE85-408F-A52A-FF600B1C6101";
paths = (
{
closed = 1;
nodes = (
"177 487 LINE",
"169 490 OFFCURVE",
"160 491 OFFCURVE",
"150 491 CURVE SMOOTH",
"106 491 OFFCURVE",
"74 463 OFFCURVE",
"71 422 CURVE SMOOTH",
"68 373 OFFCURVE",
"99 341 OFFCURVE",
"149 341 CURVE SMOOTH",
"167 341 LINE",
"143 0 LINE",
"191 0 LINE",
"215 341 LINE",
"294 341 LINE",
"297 383 LINE",
"218 383 LINE",
"242 736 LINE",
"194 736 LINE"
);
},
{
closed = 1;
nodes = (
"120 437 OFFCURVE",
"132 449 OFFCURVE",
"149 449 CURVE SMOOTH",
"164 449 OFFCURVE",
"173 438 OFFCURVE",
"172 422 CURVE SMOOTH",
"170 383 LINE",
"159 383 LINE SMOOTH",
"133 383 OFFCURVE",
"117 398 OFFCURVE",
"119 420 CURVE SMOOTH"
);
}
);
width = 348;
},
{
layerId = m002;
paths = (
{
closed = 1;
nodes = (
"171 488 LINE",
"163 490 OFFCURVE",
"155 491 OFFCURVE",
"146 491 CURVE SMOOTH",
"98 491 OFFCURVE",
"64 461 OFFCURVE",
"61 415 CURVE SMOOTH",
"57 360 OFFCURVE",
"93 323 OFFCURVE",
"150 323 CURVE SMOOTH",
"159 323 LINE",
"137 0 LINE",
"335 0 LINE",
"357 323 LINE",
"457 323 LINE",
"461 383 LINE",
"362 383 LINE",
"386 736 LINE",
"188 736 LINE"
);
},
{
closed = 1;
nodes = (
"122 430 OFFCURVE",
"134 441 OFFCURVE",
"150 441 CURVE SMOOTH",
"159 441 OFFCURVE",
"165 436 OFFCURVE",
"167 429 CURVE",
"164 383 LINE",
"151 383 LINE SMOOTH",
"131 383 OFFCURVE",
"119 395 OFFCURVE",
"121 413 CURVE SMOOTH"
);
}
);
width = 503;
}
);
leftKerningGroup = l;
leftMetricsKey = l;
rightKerningGroup = l;
rightMetricsKey = l;
unicode = 026C;
},
{
color = 10;
glyphname = lmiddletilde;
lastChange = "2025-09-15 22:34:32 +0000";
layers = (
{
layerId = "FD4D3FDD-DE85-408F-A52A-FF600B1C6101";
paths = (
{
closed = 1;
nodes = (
"215 0 LINE",
"238 325 LINE",
"250 321 OFFCURVE",
"264 318 OFFCURVE",
"280 318 CURVE SMOOTH",
"327 318 OFFCURVE",
"360 350 OFFCURVE",
"363 399 CURVE",
"316 399 LINE",
"314 376 OFFCURVE",
"297 361 OFFCURVE",
"274 361 CURVE SMOOTH",
"262 361 OFFCURVE",
"251 364 OFFCURVE",
"240 368 CURVE",
"266 736 LINE",
"218 736 LINE",
"194 388 LINE",
"180 394 OFFCURVE",
"165 398 OFFCURVE",
"147 398 CURVE SMOOTH",
"100 398 OFFCURVE",
"67 366 OFFCURVE",
"64 317 CURVE",
"112 317 LINE",
"113 340 OFFCURVE",
"131 355 OFFCURVE",
"153 355 CURVE SMOOTH",
"166 355 OFFCURVE",
"178 351 OFFCURVE",
"191 346 CURVE",
"167 0 LINE"
);
}
);
width = 413;
},
{
layerId = m002;
paths = (
{
closed = 1;
nodes = (
"373 0 LINE",
"397 345 LINE",
"411 344 OFFCURVE",
"422 343 OFFCURVE",
"429 343 CURVE SMOOTH",
"498 343 OFFCURVE",
"542 383 OFFCURVE",
"547 451 CURVE",
"442 451 LINE",
"441 438 OFFCURVE",
"432 431 OFFCURVE",
"418 431 CURVE SMOOTH",
"413 431 OFFCURVE",
"407 431 OFFCURVE",
"403 432 CURVE",
"424 736 LINE",
"226 736 LINE",
"206 453 LINE",
"193 454 OFFCURVE",
"182 455 OFFCURVE",
"176 455 CURVE SMOOTH",
"105 455 OFFCURVE",
"61 415 OFFCURVE",
"56 347 CURVE",
"161 347 LINE",
"162 360 OFFCURVE",
"171 368 OFFCURVE",
"186 368 CURVE SMOOTH",
"191 368 OFFCURVE",
"196 368 OFFCURVE",
"200 367 CURVE",
"175 0 LINE"
);
}
);
width = 584;
}
);
leftKerningGroup = l;
leftMetricsKey = l;
rightKerningGroup = l;
rightMetricsKey = l;
unicode = 026B;
},
{
color = 10;
glyphname = lslash;
lastChange = "2025-09-15 22:34:34 +0000";
layers = (
{
layerId = "FD4D3FDD-DE85-408F-A52A-FF600B1C6101";
paths = (
{
closed = 1;
nodes = (
"172 415 LINE",
"67 356 LINE",
"64 298 LINE",
"168 357 LINE",
"143 0 LINE",
"191 0 LINE",
"218 386 LINE",
"322 445 LINE",
"326 503 LINE",
"222 444 LINE",
"242 736 LINE",
"194 736 LINE"
);
}
);
width = 369;
},
{
layerId = m002;
paths = (
{
closed = 1;
nodes = (
"162 413 LINE",
"56 345 LINE",
"48 207 LINE",
"152 274 LINE",
"133 0 LINE",
"301 0 LINE",
"328 388 LINE",
"433 456 LINE",
"441 592 LINE",
"337 526 LINE",
"352 736 LINE",
"184 736 LINE"
);
}
);
width = 469;
}
);
leftKerningGroup = l;
leftMetricsKey = n;
rightKerningGroup = l;
rightMetricsKey = n;
unicode = 0142;
},
{
glyphname = m;
lastChange = "2025-09-16 14:22:58 +0000";
layers = (
{
anchors = (
{
name = Bottom;
position = "{497, 0}";
}
);
hints = (
{
horizontal = 1;
origin = "{0, 37}";
target = up;
type = BottomGhost;
}
);
layerId = "FD4D3FDD-DE85-408F-A52A-FF600B1C6101";
paths = (
{
closed = 1;
nodes = (
"110 292 LINE SMOOTH",
"118 410 OFFCURVE",
"204 490 OFFCURVE",
"326 490 CURVE SMOOTH",
"433 490 OFFCURVE",
"501 422 OFFCURVE",
"494 319 CURVE SMOOTH",
"472 0 LINE",
"520 0 LINE",
"542 322 LINE SMOOTH",
"549 422 OFFCURVE",
"634 490 OFFCURVE",
"754 490 CURVE SMOOTH",
"863 490 OFFCURVE",
"931 422 OFFCURVE",
"924 319 CURVE SMOOTH",
"902 0 LINE",
"950 0 LINE",
"972 322 LINE SMOOTH",
"981 447 OFFCURVE",
"896 532 OFFCURVE",
"760 532 CURVE SMOOTH",
"648 532 OFFCURVE",
"560 488 OFFCURVE",
"525 413 CURVE",
"524 413 OFFCURVE",
"523 413 OFFCURVE",
"523 413 CURVE",
"494 488 OFFCURVE",
"423 532 OFFCURVE",
"332 532 CURVE SMOOTH",
"238 532 OFFCURVE",
"158 493 OFFCURVE",
"117 428 CURVE",
"114 428 LINE",
"141 520 LINE",
"78 520 LINE",
"42 0 LINE",
"90 0 LINE"
);
}
);
width = 1028;
},
{
anchors = (
{
name = Bottom;
position = "{551, 0}";
}
);
layerId = m002;
paths = (
{
closed = 1;
nodes = (
"249 274 LINE SMOOTH",
"253 330 OFFCURVE",
"302 370 OFFCURVE",
"369 370 CURVE SMOOTH",
"432 370 OFFCURVE",
"472 337 OFFCURVE",
"468 285 CURVE SMOOTH",
"448 0 LINE",
"646 0 LINE",
"665 274 LINE SMOOTH",
"669 330 OFFCURVE",
"718 370 OFFCURVE",
"785 370 CURVE SMOOTH",
"848 370 OFFCURVE",
"888 337 OFFCURVE",
"884 285 CURVE SMOOTH",
"864 0 LINE",
"1062 0 LINE",
"1083 311 LINE SMOOTH",
"1092 442 OFFCURVE",
"996 532 OFFCURVE",
"841 532 CURVE SMOOTH",
"754 532 OFFCURVE",
"666 503 OFFCURVE",
"630 465 CURVE",
"628 465 OFFCURVE",
"629 465 OFFCURVE",
"628 465 CURVE",
"599 504 OFFCURVE",
"519 532 OFFCURVE",
"429 532 CURVE SMOOTH",
"363 532 OFFCURVE",
"297 508 OFFCURVE",
"253 468 CURVE",
"250 468 LINE",
"275 520 LINE",
"68 520 LINE",
"32 0 LINE",
"230 0 LINE"
);
}
);
width = 1130;
}
);
leftKerningGroup = n;
leftMetricsKey = n;
rightKerningGroup = n;
rightMetricsKey = n;
unicode = 006D;
},
{
glyphname = n;
lastChange = "2025-09-16 16:07:39 +0000";
layers = (
{
anchors = (
{
name = Bottom;
position = "{298, 0}";
},
{
name = Top;
position = "{339, 532}";
}
);
layerId = "FD4D3FDD-DE85-408F-A52A-FF600B1C6101";
paths = (
{
closed = 1;
nodes = (
"110 284 LINE SMOOTH",
"119 413 OFFCURVE",
"205 490 OFFCURVE",
"342 490 CURVE SMOOTH",
"464 490 OFFCURVE",
"533 431 OFFCURVE",
"526 329 CURVE SMOOTH",
"503 0 LINE",
"551 0 LINE",
"574 332 LINE SMOOTH",
"583 457 OFFCURVE",
"498 532 OFFCURVE",
"348 532 CURVE SMOOTH",
"239 532 OFFCURVE",
"161 492 OFFCURVE",
"117 423 CURVE",
"114 423 LINE",
"141 520 LINE",
"78 520 LINE",
"42 0 LINE",
"90 0 LINE"
);
}
);
width = 629;
},
{
anchors = (
{
name = Bottom;
position = "{363, 0}";
},
{
name = Top;
position = "{385, 532}";
}
);
layerId = m002;
paths = (
{
closed = 1;
nodes = (
"248 256 LINE SMOOTH",
"253 324 OFFCURVE",
"307 370 OFFCURVE",
"384 370 CURVE SMOOTH",
"456 370 OFFCURVE",
"500 326 OFFCURVE",
"495 260 CURVE SMOOTH",
"477 0 LINE",
"675 0 LINE",
"698 331 LINE SMOOTH",
"706 452 OFFCURVE",
"604 532 OFFCURVE",
"442 532 CURVE SMOOTH",
"369 532 OFFCURVE",
"294 506 OFFCURVE",
"255 468 CURVE",
"252 468 LINE",
"275 520 LINE",
"68 520 LINE",
"32 0 LINE",
"230 0 LINE"
);
}
);
width = 743;
}
);
leftKerningGroup = n;
rightKerningGroup = n;
unicode = 006E;
},
{
color = 10;
glyphname = eng;
lastChange = "2025-09-15 22:34:36 +0000";
layers = (
{
layerId = "FD4D3FDD-DE85-408F-A52A-FF600B1C6101";
paths = (
{
closed = 1;
nodes = (
"110 284 LINE SMOOTH",
"119 413 OFFCURVE",
"205 490 OFFCURVE",
"342 490 CURVE SMOOTH",
"464 490 OFFCURVE",
"533 431 OFFCURVE",
"526 329 CURVE SMOOTH",
"498 -69 LINE SMOOTH",
"492 -146 OFFCURVE",
"445 -192 OFFCURVE",
"369 -192 CURVE SMOOTH",
"351 -192 OFFCURVE",
"333 -191 OFFCURVE",
"321 -188 CURVE",
"319 -230 LINE",
"334 -232 OFFCURVE",
"352 -233 OFFCURVE",
"368 -233 CURVE SMOOTH",
"473 -233 OFFCURVE",
"539 -173 OFFCURVE",
"546 -71 CURVE SMOOTH",
"574 332 LINE SMOOTH",
"583 457 OFFCURVE",
"498 532 OFFCURVE",
"348 532 CURVE SMOOTH",
"239 532 OFFCURVE",
"153 492 OFFCURVE",
"116 423 CURVE",
"114 422 LINE",
"131 520 LINE",
"78 520 LINE",
"42 0 LINE",
"90 0 LINE"
);
}
);
width = 629;
},
{
layerId = m002;
paths = (
{
closed = 1;
nodes = (
"248 256 LINE SMOOTH",
"252 323 OFFCURVE",
"308 370 OFFCURVE",
"384 370 CURVE SMOOTH",
"456 370 OFFCURVE",
"500 327 OFFCURVE",
"495 260 CURVE SMOOTH",
"476 -10 LINE SMOOTH",
"473 -49 OFFCURVE",
"453 -74 OFFCURVE",
"423 -74 CURVE SMOOTH",
"407 -74 OFFCURVE",
"389 -74 OFFCURVE",
"377 -71 CURVE",
"370 -230 LINE",
"381 -232 OFFCURVE",
"399 -233 OFFCURVE",
"420 -233 CURVE SMOOTH",
"571 -233 OFFCURVE",
"664 -152 OFFCURVE",
"674 -12 CURVE SMOOTH",
"698 331 LINE SMOOTH",
"706 450 OFFCURVE",
"604 532 OFFCURVE",
"442 532 CURVE SMOOTH",
"352 532 OFFCURVE",
"273 512 OFFCURVE",
"246 479 CURVE",
"243 477 LINE",
"267 520 LINE",
"68 520 LINE",
"32 0 LINE",
"230 0 LINE"
);
}
);
width = 743;
}
);
leftKerningGroup = n;
leftMetricsKey = n;
rightKerningGroup = n;
rightMetricsKey = n;
unicode = 014B;
},
{
glyphname = o;
lastChange = "2025-09-15 23:37:13 +0000";
layers = (
{
anchors = (
{
name = Bottom;
position = "{324, 0}";
},
{
name = Top;
position = "{360, 532}";
}
);
layerId = "FD4D3FDD-DE85-408F-A52A-FF600B1C6101";
paths = (
{
closed = 1;
nodes = (
"185 532 OFFCURVE",
"61 423 OFFCURVE",
"50 260 CURVE SMOOTH",
"38 96 OFFCURVE",
"148 -13 OFFCURVE",
"324 -13 CURVE SMOOTH",
"499 -13 OFFCURVE",
"623 95 OFFCURVE",
"635 258 CURVE SMOOTH",
"646 422 OFFCURVE",
"536 532 OFFCURVE",
"360 532 CURVE SMOOTH"
);
},
{
closed = 1;
nodes = (
"97 389 OFFCURVE",
"202 490 OFFCURVE",
"359 490 CURVE SMOOTH",
"496 490 OFFCURVE",
"588 406 OFFCURVE",
"588 280 CURVE SMOOTH",
"588 129 OFFCURVE",
"482 29 OFFCURVE",
"324 29 CURVE SMOOTH",
"188 29 OFFCURVE",
"97 113 OFFCURVE",
"97 238 CURVE SMOOTH"
);
}
);
width = 685;
},
{
anchors = (
{
name = Bottom;
position = "{362, 0}";
},
{
name = Top;
position = "{389, 532}";
}
);
layerId = m002;
paths = (
{
closed = 1;
nodes = (
"175 532 OFFCURVE",
"42 432 OFFCURVE",
"30 264 CURVE SMOOTH",
"18 90 OFFCURVE",
"141 -13 OFFCURVE",
"360 -13 CURVE SMOOTH",
"575 -13 OFFCURVE",
"709 86 OFFCURVE",
"720 254 CURVE SMOOTH",
"733 429 OFFCURVE",
"610 532 OFFCURVE",
"389 532 CURVE SMOOTH"
);
},
{
closed = 1;
nodes = (
"243 333 OFFCURVE",
"299 380 OFFCURVE",
"388 380 CURVE SMOOTH",
"472 380 OFFCURVE",
"518 337 OFFCURVE",
"513 264 CURVE SMOOTH",
"508 185 OFFCURVE",
"452 139 OFFCURVE",
"362 139 CURVE SMOOTH",
"278 139 OFFCURVE",
"232 182 OFFCURVE",
"237 254 CURVE SMOOTH"
);
}
);
width = 750;
}
);
leftKerningGroup = o;
rightKerningGroup = o;
unicode = 006F;
},
{
color = 10;
glyphname = oopen;
lastChange = "2025-09-15 22:34:38 +0000";
layers = (
{
layerId = "FD4D3FDD-DE85-408F-A52A-FF600B1C6101";
paths = (
{
closed = 1;
nodes = (
"64 437 LINE",
"100 469 OFFCURVE",
"177 490 OFFCURVE",
"256 490 CURVE SMOOTH",
"374 490 OFFCURVE",
"453 408 OFFCURVE",
"453 284 CURVE SMOOTH",
"453 131 OFFCURVE",
"359 29 OFFCURVE",
"217 29 CURVE SMOOTH",
"141 29 OFFCURVE",
"69 50 OFFCURVE",
"38 81 CURVE",
"35 33 LINE",
"64 5 OFFCURVE",
"136 -13 OFFCURVE",
"217 -13 CURVE SMOOTH",
"387 -13 OFFCURVE",
"501 106 OFFCURVE",
"501 284 CURVE SMOOTH",
"501 433 OFFCURVE",
"403 532 OFFCURVE",
"257 532 CURVE SMOOTH",
"180 532 OFFCURVE",
"104 514 OFFCURVE",
"66 488 CURVE"
);
}
);
width = 550;
},
{
layerId = m002;
paths = (
{
closed = 1;
nodes = (
"39 340 LINE",
"61 359 OFFCURVE",
"110 370 OFFCURVE",
"170 370 CURVE SMOOTH",
"266 370 OFFCURVE",
"322 334 OFFCURVE",
"322 273 CURVE SMOOTH",
"322 195 OFFCURVE",
"261 149 OFFCURVE",
"158 149 CURVE SMOOTH",
"97 149 OFFCURVE",
"47 155 OFFCURVE",
"23 166 CURVE",
"16 2 LINE",
"59 -7 OFFCURVE",
"118 -13 OFFCURVE",
"175 -13 CURVE SMOOTH",
"398 -13 OFFCURVE",
"530 95 OFFCURVE",
"530 278 CURVE SMOOTH",
"530 438 OFFCURVE",
"406 532 OFFCURVE",
"197 532 CURVE SMOOTH",
"139 532 OFFCURVE",
"84 526 OFFCURVE",
"48 516 CURVE"
);
}
);
width = 560;
}
);
leftKerningGroup = o;
leftMetricsKey = o;
rightKerningGroup = o;
rightMetricsKey = o;
unicode = 0254;
},
{
color = 10;
glyphname = oslash;
lastChange = "2025-09-15 22:34:40 +0000";
layers = (
{
anchors = (
{
name = Top;
position = "{361, 532}";
}
);
layerId = "FD4D3FDD-DE85-408F-A52A-FF600B1C6101";
paths = (
{
closed = 1;
nodes = (
"185 532 OFFCURVE",
"61 423 OFFCURVE",
"50 260 CURVE SMOOTH",
"41 136 OFFCURVE",
"101 44 OFFCURVE",
"207 6 CURVE",
"183 -50 LINE",
"236 -50 LINE",
"255 -7 LINE",
"277 -11 OFFCURVE",
"300 -13 OFFCURVE",
"324 -13 CURVE SMOOTH",
"499 -13 OFFCURVE",
"623 95 OFFCURVE",
"635 258 CURVE SMOOTH",
"643 380 OFFCURVE",
"584 472 OFFCURVE",
"481 512 CURVE",
"501 558 LINE",
"447 558 LINE",
"433 525 LINE",
"410 530 OFFCURVE",
"386 532 OFFCURVE",
"360 532 CURVE SMOOTH"
);
},
{
closed = 1;
nodes = (
"97 389 OFFCURVE",
"202 490 OFFCURVE",
"359 490 CURVE SMOOTH",
"379 490 OFFCURVE",
"398 488 OFFCURVE",
"415 485 CURVE",
"225 46 LINE",
"146 77 OFFCURVE",
"97 147 OFFCURVE",
"97 238 CURVE SMOOTH"
);
},
{
closed = 1;
nodes = (
"463 471 LINE",
"541 439 OFFCURVE",
"588 370 OFFCURVE",
"588 280 CURVE SMOOTH",
"588 129 OFFCURVE",
"482 29 OFFCURVE",
"324 29 CURVE SMOOTH",
"306 29 OFFCURVE",
"289 30 OFFCURVE",
"272 33 CURVE"
);
}
);
width = 685;
},
{
anchors = (
{
name = Top;
position = "{388, 532}";
}
);
layerId = m002;
paths = (
{
closed = 1;
nodes = (
"175 532 OFFCURVE",
"42 432 OFFCURVE",
"30 264 CURVE SMOOTH",
"21 131 OFFCURVE",
"90 40 OFFCURVE",
"221 4 CURVE",
"198 -50 LINE",
"287 -50 LINE",
"304 -11 LINE",
"322 -12 OFFCURVE",
"341 -13 OFFCURVE",
"360 -13 CURVE SMOOTH",
"575 -13 OFFCURVE",
"709 86 OFFCURVE",
"720 254 CURVE SMOOTH",
"730 387 OFFCURVE",
"662 478 OFFCURVE",
"532 514 CURVE",
"551 558 LINE",
"463 558 LINE",
"450 529 LINE",
"431 531 OFFCURVE",
"410 532 OFFCURVE",
"389 532 CURVE SMOOTH"
);
},
{
closed = 1;
nodes = (
"243 331 OFFCURVE",
"295 378 OFFCURVE",
"380 380 CURVE SMOOTH",
"381 380 OFFCURVE",
"384 380 OFFCURVE",
"385 380 CURVE",
"287 155 LINE",
"252 173 OFFCURVE",
"234 208 OFFCURVE",
"237 254 CURVE SMOOTH"
);
},
{
closed = 1;
nodes = (
"466 362 LINE",
"499 343 OFFCURVE",
"516 309 OFFCURVE",
"513 264 CURVE SMOOTH",
"508 188 OFFCURVE",
"459 142 OFFCURVE",
"375 139 CURVE SMOOTH",
"374 139 OFFCURVE",
"370 139 OFFCURVE",
"369 139 CURVE"
);
}
);
width = 750;
}
);
leftKerningGroup = o;
leftMetricsKey = o;
rightKerningGroup = o;
rightMetricsKey = o;
unicode = 00F8;
},
{
color = 10;
glyphname = oe;
lastChange = "2025-09-15 22:34:42 +0000";
layers = (
{
layerId = "FD4D3FDD-DE85-408F-A52A-FF600B1C6101";
paths = (
{
closed = 1;
nodes = (
"185 532 OFFCURVE",
"61 423 OFFCURVE",
"50 260 CURVE SMOOTH",
"38 96 OFFCURVE",
"148 -13 OFFCURVE",
"324 -13 CURVE SMOOTH",
"458 -13 OFFCURVE",
"562 50 OFFCURVE",
"609 153 CURVE",
"642 51 OFFCURVE",
"737 -13 OFFCURVE",
"870 -13 CURVE SMOOTH",
"1016 -13 OFFCURVE",
"1130 55 OFFCURVE",
"1156 158 CURVE",
"1108 160 LINE",
"1086 81 OFFCURVE",
"992 29 OFFCURVE",
"873 29 CURVE SMOOTH",
"736 29 OFFCURVE",
"644 114 OFFCURVE",
"644 241 CURVE SMOOTH",
"644 256 LINE",
"1168 256 LINE",
"1170 297 LINE SMOOTH",
"1180 438 OFFCURVE",
"1072 532 OFFCURVE",
"900 532 CURVE SMOOTH",
"769 532 OFFCURVE",
"668 469 OFFCURVE",
"622 368 CURVE",
"588 469 OFFCURVE",
"493 532 OFFCURVE",
"360 532 CURVE SMOOTH"
);
},
{
closed = 1;
nodes = (
"97 389 OFFCURVE",
"202 490 OFFCURVE",
"359 490 CURVE SMOOTH",
"496 490 OFFCURVE",
"588 406 OFFCURVE",
"588 280 CURVE SMOOTH",
"588 129 OFFCURVE",
"482 29 OFFCURVE",
"324 29 CURVE SMOOTH",
"188 29 OFFCURVE",
"97 113 OFFCURVE",
"97 238 CURVE SMOOTH"
);
},
{
closed = 1;
nodes = (
"672 415 OFFCURVE",
"767 490 OFFCURVE",
"900 490 CURVE SMOOTH",
"1042 490 OFFCURVE",
"1130 413 OFFCURVE",
"1123 298 CURVE",
"649 298 LINE"
);
}
);
width = 1218;
},
{
layerId = m002;
paths = (
{
closed = 1;
nodes = (
"175 532 OFFCURVE",
"42 432 OFFCURVE",
"30 264 CURVE SMOOTH",
"18 90 OFFCURVE",
"141 -13 OFFCURVE",
"360 -13 CURVE SMOOTH",
"497 -13 OFFCURVE",
"602 27 OFFCURVE",
"662 100 CURVE",
"715 27 OFFCURVE",
"817 -13 OFFCURVE",
"957 -13 CURVE SMOOTH",
"1142 -13 OFFCURVE",
"1269 56 OFFCURVE",
"1301 173 CURVE",
"1102 177 LINE",
"1092 144 OFFCURVE",
"1041 124 OFFCURVE",
"965 124 CURVE SMOOTH",
"892 124 OFFCURVE",
"845 157 OFFCURVE",
"834 214 CURVE",
"1299 214 LINE",
"1301 260 LINE",
"1302 260 LINE",
"1314 431 OFFCURVE",
"1196 532 OFFCURVE",
"983 532 CURVE SMOOTH",
"845 532 OFFCURVE",
"741 491 OFFCURVE",
"680 418 CURVE",
"627 492 OFFCURVE",
"527 532 OFFCURVE",
"389 532 CURVE SMOOTH"
);
},
{
closed = 1;
nodes = (
"243 333 OFFCURVE",
"299 380 OFFCURVE",
"388 380 CURVE SMOOTH",
"472 380 OFFCURVE",
"518 337 OFFCURVE",
"513 264 CURVE SMOOTH",
"508 185 OFFCURVE",
"452 139 OFFCURVE",
"362 139 CURVE SMOOTH",
"278 139 OFFCURVE",
"232 182 OFFCURVE",
"237 254 CURVE SMOOTH"
);
},
{
closed = 1;
nodes = (
"869 366 OFFCURVE",
"917 395 OFFCURVE",
"983 395 CURVE SMOOTH",
"1046 395 OFFCURVE",
"1086 366 OFFCURVE",
"1095 315 CURVE",
"846 314 LINE"
);
}
);
width = 1337;
}
);
leftKerningGroup = o;
leftMetricsKey = o;
rightKerningGroup = o;
rightMetricsKey = e;
unicode = 0153;
},
{
glyphname = p;
lastChange = "2025-09-15 22:18:02 +0000";
layers = (
{
anchors = (
{
name = Top;
position = "{362, 532}";
}
);
layerId = "FD4D3FDD-DE85-408F-A52A-FF600B1C6101";
paths = (
{
closed = 1;
nodes = (
"267 532 OFFCURVE",
"172 488 OFFCURVE",
"122 423 CURVE",
"119 423 LINE",
"141 520 LINE",
"78 520 LINE",
"27 -216 LINE",
"75 -216 LINE",
"90 0 LINE",
"92 108 LINE",
"96 108 LINE",
"136 35 OFFCURVE",
"233 -13 OFFCURVE",
"340 -13 CURVE SMOOTH",
"507 -13 OFFCURVE",
"626 95 OFFCURVE",
"638 257 CURVE SMOOTH",
"649 422 OFFCURVE",
"538 532 OFFCURVE",
"361 532 CURVE SMOOTH"
);
},
{
closed = 1;
nodes = (
"107 389 OFFCURVE",
"208 490 OFFCURVE",
"360 490 CURVE SMOOTH",
"507 490 OFFCURVE",
"599 398 OFFCURVE",
"590 259 CURVE SMOOTH",
"580 121 OFFCURVE",
"478 29 OFFCURVE",
"334 29 CURVE SMOOTH",
"198 29 OFFCURVE",
"107 113 OFFCURVE",
"107 238 CURVE SMOOTH"
);
}
);
width = 688;
},
{
anchors = (
{
name = Top;
position = "{412, 532}";
}
);
layerId = m002;
paths = (
{
closed = 1;
nodes = (
"351 532 OFFCURVE",
"285 514 OFFCURVE",
"255 484 CURVE",
"252 484 LINE",
"275 520 LINE",
"68 520 LINE",
"17 -216 LINE",
"215 -216 LINE",
"227 -29 LINE",
"226 23 LINE",
"229 23 LINE",
"268 0 OFFCURVE",
"332 -13 OFFCURVE",
"400 -13 CURVE SMOOTH",
"609 -13 OFFCURVE",
"732 96 OFFCURVE",
"732 280 CURVE SMOOTH",
"732 438 OFFCURVE",
"621 532 OFFCURVE",
"433 532 CURVE SMOOTH"
);
},
{
closed = 1;
nodes = (
"254 345 OFFCURVE",
"311 398 OFFCURVE",
"400 398 CURVE SMOOTH",
"479 398 OFFCURVE",
"525 353 OFFCURVE",
"525 278 CURVE SMOOTH",
"525 178 OFFCURVE",
"468 119 OFFCURVE",
"371 119 CURVE SMOOTH",
"288 119 OFFCURVE",
"242 169 OFFCURVE",
"247 254 CURVE SMOOTH"
);
}
);
width = 762;
}
);
leftKerningGroup = n;
leftMetricsKey = n;
rightKerningGroup = o;
rightMetricsKey = o;
unicode = 0070;
},
{
color = 10;
glyphname = thorn;
lastChange = "2025-09-15 22:34:45 +0000";
layers = (
{
layerId = "FD4D3FDD-DE85-408F-A52A-FF600B1C6101";
paths = (
{
closed = 1;
nodes = (
"268 532 OFFCURVE",
"170 486 OFFCURVE",
"118 417 CURVE",
"116 418 LINE",
"126 520 LINE",
"141 736 LINE",
"93 736 LINE",
"27 -216 LINE",
"75 -216 LINE",
"90 0 LINE",
"92 108 LINE",
"95 109 LINE",
"135 36 OFFCURVE",
"233 -13 OFFCURVE",
"340 -13 CURVE SMOOTH",
"507 -13 OFFCURVE",
"626 95 OFFCURVE",
"638 257 CURVE SMOOTH",
"649 422 OFFCURVE",
"538 532 OFFCURVE",
"361 532 CURVE SMOOTH"
);
},
{
closed = 1;
nodes = (
"107 389 OFFCURVE",
"208 490 OFFCURVE",
"360 490 CURVE SMOOTH",
"507 490 OFFCURVE",
"599 398 OFFCURVE",
"590 259 CURVE SMOOTH",
"580 121 OFFCURVE",
"478 29 OFFCURVE",
"334 29 CURVE SMOOTH",
"198 29 OFFCURVE",
"107 113 OFFCURVE",
"107 238 CURVE SMOOTH"
);
}
);
width = 688;
},
{
layerId = m002;
paths = (
{
closed = 1;
nodes = (
"351 532 OFFCURVE",
"283 513 OFFCURVE",
"253 483 CURVE",
"251 484 LINE",
"275 520 LINE",
"289 736 LINE",
"83 736 LINE",
"17 -216 LINE",
"215 -216 LINE",
"227 -29 LINE",
"226 23 LINE",
"230 24 LINE",
"269 1 OFFCURVE",
"332 -13 OFFCURVE",
"400 -13 CURVE SMOOTH",
"609 -13 OFFCURVE",
"732 96 OFFCURVE",
"732 280 CURVE SMOOTH",
"732 438 OFFCURVE",
"621 532 OFFCURVE",
"433 532 CURVE SMOOTH"
);
},
{
closed = 1;
nodes = (
"254 345 OFFCURVE",
"311 398 OFFCURVE",
"400 398 CURVE SMOOTH",
"479 398 OFFCURVE",
"525 353 OFFCURVE",
"525 278 CURVE SMOOTH",
"525 178 OFFCURVE",
"468 119 OFFCURVE",
"371 119 CURVE SMOOTH",
"288 119 OFFCURVE",
"242 169 OFFCURVE",
"247 254 CURVE SMOOTH"
);
}
);
width = 762;
}
);
leftKerningGroup = n;
leftMetricsKey = p;
rightKerningGroup = o;
rightMetricsKey = p;
unicode = 00FE;
},
{
glyphname = q;
lastChange = "2025-09-15 22:18:04 +0000";
layers = (
{
anchors = (
{
name = Top;
position = "{376, 532}";
}
);
layerId = "FD4D3FDD-DE85-408F-A52A-FF600B1C6101";
paths = (
{
closed = 1;
nodes = (
"175 532 OFFCURVE",
"49 413 OFFCURVE",
"49 234 CURVE SMOOTH",
"49 86 OFFCURVE",
"154 -13 OFFCURVE",
"312 -13 CURVE SMOOTH",
"419 -13 OFFCURVE",
"522 36 OFFCURVE",
"571 108 CURVE",
"574 108 LINE",
"562 0 LINE",
"547 -216 LINE",
"595 -216 LINE",
"646 520 LINE",
"583 520 LINE",
"591 422 LINE",
"588 422 LINE",
"546 489 OFFCURVE",
"457 532 OFFCURVE",
"363 532 CURVE SMOOTH"
);
},
{
closed = 1;
nodes = (
"97 388 OFFCURVE",
"203 490 OFFCURVE",
"362 490 CURVE SMOOTH",
"493 490 OFFCURVE",
"581 406 OFFCURVE",
"581 281 CURVE SMOOTH",
"581 130 OFFCURVE",
"476 29 OFFCURVE",
"318 29 CURVE SMOOTH",
"185 29 OFFCURVE",
"97 112 OFFCURVE",
"97 236 CURVE SMOOTH"
);
}
);
width = 688;
},
{
anchors = (
{
name = Top;
position = "{398, 532}";
}
);
layerId = m002;
paths = (
{
closed = 1;
nodes = (
"151 532 OFFCURVE",
"29 423 OFFCURVE",
"29 238 CURVE SMOOTH",
"29 80 OFFCURVE",
"142 -13 OFFCURVE",
"332 -13 CURVE SMOOTH",
"399 -13 OFFCURVE",
"460 1 OFFCURVE",
"499 22 CURVE",
"502 22 LINE",
"493 -29 LINE",
"481 -216 LINE",
"679 -216 LINE",
"730 520 LINE",
"523 520 LINE",
"539 482 LINE",
"535 482 LINE",
"497 513 OFFCURVE",
"431 532 OFFCURVE",
"357 532 CURVE SMOOTH"
);
},
{
closed = 1;
nodes = (
"236 339 OFFCURVE",
"293 398 OFFCURVE",
"390 398 CURVE SMOOTH",
"469 398 OFFCURVE",
"515 354 OFFCURVE",
"515 279 CURVE SMOOTH",
"515 178 OFFCURVE",
"458 119 OFFCURVE",
"361 119 CURVE SMOOTH",
"282 119 OFFCURVE",
"236 164 OFFCURVE",
"236 239 CURVE SMOOTH"
);
}
);
width = 762;
}
);
leftKerningGroup = o;
leftMetricsKey = o;
rightKerningGroup = n;
rightMetricsKey = n;
unicode = 0071;
},
{
glyphname = r;
lastChange = "2025-09-15 22:18:06 +0000";
layers = (
{
anchors = (
{
name = Bottom;
position = "{66, 0}";
},
{
name = Top;
position = "{232, 532}";
}
);
layerId = "FD4D3FDD-DE85-408F-A52A-FF600B1C6101";
paths = (
{
closed = 1;
nodes = (
"109 279 LINE SMOOTH",
"118 405 OFFCURVE",
"199 490 OFFCURVE",
"312 490 CURVE SMOOTH",
"341 490 OFFCURVE",
"372 485 OFFCURVE",
"388 478 CURVE",
"397 521 LINE",
"380 528 OFFCURVE",
"347 532 OFFCURVE",
"315 532 CURVE SMOOTH",
"231 532 OFFCURVE",
"159 495 OFFCURVE",
"126 438 CURVE",
"123 438 LINE",
"141 520 LINE",
"78 520 LINE",
"42 0 LINE",
"90 0 LINE"
);
}
);
width = 419;
},
{
anchors = (
{
name = Bottom;
position = "{146, 0}";
},
{
name = Top;
position = "{287, 532}";
}
);
layerId = m002;
paths = (
{
closed = 1;
nodes = (
"246 235 LINE SMOOTH",
"251 315 OFFCURVE",
"317 371 OFFCURVE",
"408 371 CURVE SMOOTH",
"433 371 OFFCURVE",
"462 367 OFFCURVE",
"482 359 CURVE",
"515 520 LINE",
"493 527 OFFCURVE",
"453 533 OFFCURVE",
"410 533 CURVE SMOOTH",
"346 533 OFFCURVE",
"292 515 OFFCURVE",
"259 481 CURVE",
"256 481 LINE",
"275 520 LINE",
"68 520 LINE",
"32 0 LINE",
"230 0 LINE"
);
}
);
width = 527;
}
);
leftKerningGroup = n;
leftMetricsKey = n;
rightKerningGroup = r;
rightMetricsKey = k;
unicode = 0072;
},
{
glyphname = s;
lastChange = "2025-09-16 16:32:49 +0000";
layers = (
{
anchors = (
{
name = Bottom;
position = "{272, 0}";
},
{
name = Top;
position = "{299, 532}";
}
);
layerId = "FD4D3FDD-DE85-408F-A52A-FF600B1C6101";
paths = (
{
closed = 1;
nodes = (
"153 532 OFFCURVE",
"68 474 OFFCURVE",
"68 377 CURVE SMOOTH",
"68 191 OFFCURVE",
"466 285 OFFCURVE",
"466 143 CURVE SMOOTH",
"466 71 OFFCURVE",
"396 29 OFFCURVE",
"278 29 CURVE SMOOTH",
"149 29 OFFCURVE",
"76 80 OFFCURVE",
"82 166 CURVE",
"34 168 LINE",
"26 54 OFFCURVE",
"116 -13 OFFCURVE",
"275 -13 CURVE SMOOTH",
"425 -13 OFFCURVE",
"514 47 OFFCURVE",
"514 148 CURVE SMOOTH",
"514 328 OFFCURVE",
"116 239 OFFCURVE",
"116 382 CURVE SMOOTH",
"116 450 OFFCURVE",
"182 490 OFFCURVE",
"295 490 CURVE SMOOTH",
"410 490 OFFCURVE",
"475 445 OFFCURVE",
"469 370 CURVE",
"517 368 LINE",
"525 471 OFFCURVE",
"429 532 OFFCURVE",
"298 532 CURVE SMOOTH"
);
}
);
width = 562;
},
{
anchors = (
{
name = Bottom;
position = "{318, 0}";
},
{
name = Top;
position = "{349, 532}";
}
);
layerId = m002;
paths = (
{
closed = 1;
nodes = (
"162 532 OFFCURVE",
"54 466 OFFCURVE",
"54 353 CURVE SMOOTH",
"54 138 OFFCURVE",
"427 217 OFFCURVE",
"427 171 CURVE SMOOTH",
"427 145 OFFCURVE",
"388 129 OFFCURVE",
"323 129 CURVE SMOOTH",
"257 129 OFFCURVE",
"220 148 OFFCURVE",
"222 180 CURVE",
"25 184 LINE",
"16 60 OFFCURVE",
"126 -13 OFFCURVE",
"321 -13 CURVE SMOOTH",
"511 -13 OFFCURVE",
"623 52 OFFCURVE",
"623 163 CURVE SMOOTH",
"623 366 OFFCURVE",
"251 290 OFFCURVE",
"251 346 CURVE SMOOTH",
"251 374 OFFCURVE",
"287 390 OFFCURVE",
"349 390 CURVE SMOOTH",
"405 390 OFFCURVE",
"437 374 OFFCURVE",
"435 346 CURVE",
"633 342 LINE",
"641 461 OFFCURVE",
"534 532 OFFCURVE",
"344 532 CURVE SMOOTH"
);
}
);
width = 660;
}
);
leftKerningGroup = s;
rightKerningGroup = s;
unicode = 0073;
},
{
color = 10;
glyphname = saltillo;
lastChange = "2025-09-15 22:34:47 +0000";
layers = (
{
layerId = "FD4D3FDD-DE85-408F-A52A-FF600B1C6101";
paths = (
{
closed = 1;
nodes = (
"78 520 LINE",
"75 409 LINE",
"105 409 LINE",
"118 520 LINE",
"133 730 LINE",
"93 730 LINE"
);
}
);
width = 160;
},
{
layerId = m002;
paths = (
{
closed = 1;
nodes = (
"68 520 LINE",
"65 409 LINE",
"205 409 LINE",
"218 520 LINE",
"233 730 LINE",
"83 730 LINE"
);
}
);
width = 250;
}
);
leftKerningGroup = n;
leftMetricsKey = n;
rightKerningGroup = n;
rightMetricsKey = n;
unicode = A78C;
},
{
color = 10;
glyphname = germandbls;
lastChange = "2025-09-15 22:34:49 +0000";
layers = (
{
layerId = "FD4D3FDD-DE85-408F-A52A-FF600B1C6101";
paths = (
{
closed = 1;
nodes = (
"42 0 LINE",
"90 0 LINE",
"130 582 LINE SMOOTH",
"135 649 OFFCURVE",
"197 695 OFFCURVE",
"284 695 CURVE SMOOTH",
"351 695 OFFCURVE",
"397 668 OFFCURVE",
"429 625 CURVE SMOOTH",
"510 518 LINE",
"410 508 OFFCURVE",
"344 459 OFFCURVE",
"344 386 CURVE SMOOTH",
"344 246 OFFCURVE",
"581 256 OFFCURVE",
"581 122 CURVE SMOOTH",
"581 68 OFFCURVE",
"532 29 OFFCURVE",
"457 29 CURVE SMOOTH",
"428 29 OFFCURVE",
"378 38 OFFCURVE",
"346 52 CURVE",
"344 10 LINE",
"368 -4 OFFCURVE",
"418 -13 OFFCURVE",
"456 -13 CURVE SMOOTH",
"559 -13 OFFCURVE",
"629 43 OFFCURVE",
"629 128 CURVE SMOOTH",
"629 296 OFFCURVE",
"392 290 OFFCURVE",
"392 392 CURVE SMOOTH",
"392 440 OFFCURVE",
"452 478 OFFCURVE",
"540 478 CURVE",
"573 520 LINE",
"465 656 LINE SMOOTH",
"427 703 OFFCURVE",
"369 736 OFFCURVE",
"287 736 CURVE SMOOTH",
"171 736 OFFCURVE",
"89 671 OFFCURVE",
"82 572 CURVE SMOOTH"
);
}
);
width = 689;
},
{
layerId = m002;
paths = (
{
closed = 1;
nodes = (
"32 0 LINE",
"230 0 LINE",
"265 501 LINE SMOOTH",
"268 544 OFFCURVE",
"308 575 OFFCURVE",
"365 575 CURVE SMOOTH",
"421 575 OFFCURVE",
"447 553 OFFCURVE",
"475 515 CURVE SMOOTH",
"484 503 LINE",
"402 477 OFFCURVE",
"352 423 OFFCURVE",
"352 360 CURVE SMOOTH",
"352 243 OFFCURVE",
"517 210 OFFCURVE",
"515 174 CURVE SMOOTH",
"514 159 OFFCURVE",
"493 149 OFFCURVE",
"463 149 CURVE SMOOTH",
"442 149 OFFCURVE",
"406 157 OFFCURVE",
"373 171 CURVE",
"365 11 LINE",
"390 -3 OFFCURVE",
"439 -13 OFFCURVE",
"489 -13 CURVE SMOOTH",
"621 -13 OFFCURVE",
"710 52 OFFCURVE",
"710 150 CURVE SMOOTH",
"710 282 OFFCURVE",
"548 294 OFFCURVE",
"548 336 CURVE SMOOTH",
"548 359 OFFCURVE",
"571 370 OFFCURVE",
"592 358 CURVE",
"735 503 LINE",
"633 623 LINE SMOOTH",
"577 693 OFFCURVE",
"477 736 OFFCURVE",
"365 736 CURVE SMOOTH",
"200 736 OFFCURVE",
"77 648 OFFCURVE",
"68 513 CURVE SMOOTH"
);
}
);
width = 748;
}
);
leftKerningGroup = n;
leftMetricsKey = n;
rightKerningGroup = germandbls;
rightMetricsKey = o;
unicode = 00DF;
},
{
glyphname = t;
lastChange = "2025-09-16 16:07:54 +0000";
layers = (
{
anchors = (
{
name = Bottom;
position = "{235, 0}";
},
{
name = Top;
position = "{302, 532}";
},
{
name = Top_EC;
position = "{253, 532}";
}
);
hints = (
{
place = "{149, 0}";
type = Stem;
}
);
layerId = "FD4D3FDD-DE85-408F-A52A-FF600B1C6101";
paths = (
{
closed = 1;
nodes = (
"126 160 LINE SMOOTH",
"119 56 OFFCURVE",
"188 -13 OFFCURVE",
"299 -13 CURVE SMOOTH",
"317 -13 OFFCURVE",
"339 -9 OFFCURVE",
"354 -3 CURVE",
"356 39 LINE",
"346 32 OFFCURVE",
"322 28 OFFCURVE",
"298 28 CURVE SMOOTH",
"218 28 OFFCURVE",
"168 80 OFFCURVE",
"174 158 CURVE SMOOTH",
"196 478 LINE",
"330 478 LINE",
"333 520 LINE",
"199 520 LINE",
"207 629 LINE",
"159 629 LINE",
"151 518 LINE",
"58 523 LINE",
"55 478 LINE",
"148 478 LINE"
);
}
);
width = 412;
},
{
anchors = (
{
name = Bottom;
position = "{297, 0}";
},
{
name = Top;
position = "{413, 520}";
},
{
name = Top_EC;
position = "{404, 520}";
}
);
hints = (
{
place = "{149, 0}";
type = Stem;
}
);
layerId = m002;
paths = (
{
closed = 1;
nodes = (
"98 193 LINE SMOOTH",
"90 71 OFFCURVE",
"191 -13 OFFCURVE",
"351 -13 CURVE SMOOTH",
"390 -13 OFFCURVE",
"429 -9 OFFCURVE",
"448 -1 CURVE",
"455 161 LINE",
"432 153 OFFCURVE",
"396 146 OFFCURVE",
"362 146 CURVE SMOOTH",
"321 146 OFFCURVE",
"295 170 OFFCURVE",
"297 209 CURVE SMOOTH",
"309 370 LINE",
"413 370 LINE",
"423 520 LINE",
"319 520 LINE",
"327 629 LINE",
"129 629 LINE",
"121 518 LINE",
"48 523 LINE",
"38 370 LINE",
"111 370 LINE"
);
}
);
width = 496;
}
);
leftKerningGroup = t;
rightKerningGroup = t;
unicode = 0074;
},
{
color = 10;
glyphname = tbar;
lastChange = "2025-09-15 22:35:26 +0000";
layers = (
{
layerId = "FD4D3FDD-DE85-408F-A52A-FF600B1C6101";
paths = (
{
closed = 1;
nodes = (
"140 368 LINE",
"48 373 LINE",
"45 328 LINE",
"138 328 LINE",
"126 160 LINE SMOOTH",
"119 56 OFFCURVE",
"188 -13 OFFCURVE",
"299 -13 CURVE SMOOTH",
"317 -13 OFFCURVE",
"339 -9 OFFCURVE",
"354 -3 CURVE",
"356 39 LINE",
"346 32 OFFCURVE",
"322 28 OFFCURVE",
"298 28 CURVE SMOOTH",
"218 28 OFFCURVE",
"168 80 OFFCURVE",
"174 158 CURVE SMOOTH",
"186 328 LINE",
"320 328 LINE",
"323 370 LINE",
"189 370 LINE",
"196 478 LINE",
"330 478 LINE",
"333 520 LINE",
"199 520 LINE",
"207 629 LINE",
"159 629 LINE",
"151 518 LINE",
"58 523 LINE",
"55 478 LINE",
"148 478 LINE"
);
}
);
width = 412;
},
{
layerId = m002;
paths = (
{
closed = 1;
nodes = (
"108 328 LINE",
"35 333 LINE",
"28 230 LINE",
"101 230 LINE",
"98 193 LINE SMOOTH",
"90 69 OFFCURVE",
"191 -13 OFFCURVE",
"351 -13 CURVE SMOOTH",
"392 -13 OFFCURVE",
"431 -8 OFFCURVE",
"448 -1 CURVE",
"455 161 LINE",
"429 152 OFFCURVE",
"392 146 OFFCURVE",
"362 146 CURVE SMOOTH",
"321 146 OFFCURVE",
"295 171 OFFCURVE",
"297 209 CURVE SMOOTH",
"299 230 LINE",
"403 230 LINE",
"410 330 LINE",
"306 330 LINE",
"309 370 LINE",
"413 370 LINE",
"423 520 LINE",
"319 520 LINE",
"327 629 LINE",
"129 629 LINE",
"121 518 LINE",
"48 523 LINE",
"38 370 LINE",
"111 370 LINE"
);
}
);
width = 496;
}
);
leftKerningGroup = t;
leftMetricsKey = t;
rightKerningGroup = t;
rightMetricsKey = t;
unicode = 0167;
},
{
color = 10;
glyphname = tdiagonalstroke;
lastChange = "2025-09-15 22:34:54 +0000";
layers = (
{
layerId = "FD4D3FDD-DE85-408F-A52A-FF600B1C6101";
paths = (
{
closed = 1;
nodes = (
"126 160 LINE SMOOTH",
"125 151 OFFCURVE",
"125 142 OFFCURVE",
"126 134 CURVE",
"46 -50 LINE",
"87 -50 LINE",
"141 74 LINE",
"167 20 OFFCURVE",
"223 -13 OFFCURVE",
"299 -13 CURVE SMOOTH",
"316 -13 OFFCURVE",
"339 -9 OFFCURVE",
"354 -3 CURVE",
"356 39 LINE",
"345 32 OFFCURVE",
"323 28 OFFCURVE",
"298 28 CURVE SMOOTH",
"221 28 OFFCURVE",
"173 75 OFFCURVE",
"174 149 CURVE",
"317 478 LINE",
"330 478 LINE",
"333 513 LINE",
"352 558 LINE",
"310 558 LINE",
"294 520 LINE",
"199 520 LINE",
"207 629 LINE",
"159 629 LINE",
"151 518 LINE",
"58 523 LINE",
"55 478 LINE",
"148 478 LINE"
);
},
{
closed = 1;
nodes = (
"196 478 LINE",
"275 478 LINE",
"181 261 LINE"
);
}
);
width = 412;
},
{
layerId = m002;
paths = (
{
closed = 1;
nodes = (
"98 193 LINE SMOOTH",
"93 120 OFFCURVE",
"128 60 OFFCURVE",
"190 24 CURVE",
"158 -50 LINE",
"211 -50 LINE",
"235 5 LINE",
"268 -7 OFFCURVE",
"308 -13 OFFCURVE",
"351 -13 CURVE SMOOTH",
"390 -13 OFFCURVE",
"429 -9 OFFCURVE",
"448 -1 CURVE",
"455 161 LINE",
"432 153 OFFCURVE",
"396 146 OFFCURVE",
"362 146 CURVE SMOOTH",
"337 146 OFFCURVE",
"318 155 OFFCURVE",
"307 171 CURVE",
"393 370 LINE",
"413 370 LINE",
"417 423 LINE",
"475 558 LINE",
"423 558 LINE",
"406 520 LINE",
"319 520 LINE",
"327 629 LINE",
"129 629 LINE",
"121 518 LINE",
"48 523 LINE",
"38 370 LINE",
"111 370 LINE"
);
},
{
closed = 1;
nodes = (
"309 370 LINE",
"341 370 LINE",
"302 281 LINE"
);
}
);
width = 496;
}
);
leftKerningGroup = t;
leftMetricsKey = t;
rightKerningGroup = t;
rightMetricsKey = t;
unicode = 2C66;
},
{
glyphname = u;
lastChange = "2025-09-16 16:06:26 +0000";
layers = (
{
anchors = (
{
name = Bottom;
position = "{294, 0}";
},
{
name = Top;
position = "{323, 520}";
}
);
layerId = "FD4D3FDD-DE85-408F-A52A-FF600B1C6101";
paths = (
{
closed = 1;
nodes = (
"369 -13 OFFCURVE",
"454 25 OFFCURVE",
"496 83 CURVE",
"499 83 LINE",
"479 0 LINE",
"542 0 LINE",
"578 520 LINE",
"530 520 LINE",
"508 208 LINE SMOOTH",
"500 101 OFFCURVE",
"410 29 OFFCURVE",
"282 29 CURVE SMOOTH",
"168 29 OFFCURVE",
"97 88 OFFCURVE",
"103 178 CURVE SMOOTH",
"127 520 LINE",
"79 520 LINE",
"54 168 LINE SMOOTH",
"46 60 OFFCURVE",
"138 -13 OFFCURVE",
"282 -13 CURVE SMOOTH"
);
}
);
width = 620;
},
{
anchors = (
{
name = Bottom;
position = "{327, 0}";
},
{
name = Top;
position = "{385, 520}";
}
);
layerId = m002;
paths = (
{
closed = 1;
nodes = (
"376 -13 OFFCURVE",
"445 8 OFFCURVE",
"480 43 CURVE",
"483 43 LINE",
"458 0 LINE",
"665 0 LINE",
"701 520 LINE",
"503 520 LINE",
"484 244 LINE SMOOTH",
"480 184 OFFCURVE",
"431 149 OFFCURVE",
"354 149 CURVE SMOOTH",
"282 149 OFFCURVE",
"242 183 OFFCURVE",
"246 240 CURVE SMOOTH",
"266 520 LINE",
"68 520 LINE",
"45 192 LINE SMOOTH",
"36 63 OFFCURVE",
"130 -13 OFFCURVE",
"296 -13 CURVE SMOOTH"
);
}
);
width = 733;
}
);
leftKerningGroup = u;
leftMetricsKey = n;
rightKerningGroup = u;
rightMetricsKey = n;
unicode = 0075;
},
{
color = 10;
glyphname = "upsilon-latin";
lastChange = "2025-09-15 22:34:56 +0000";
layers = (
{
layerId = "FD4D3FDD-DE85-408F-A52A-FF600B1C6101";
paths = (
{
closed = 1;
nodes = (
"495 -13 OFFCURVE",
"603 86 OFFCURVE",
"603 254 CURVE SMOOTH",
"603 363 OFFCURVE",
"550 443 OFFCURVE",
"459 477 CURVE",
"619 477 LINE",
"622 520 LINE",
"400 520 LINE",
"397 477 LINE",
"496 450 OFFCURVE",
"555 368 OFFCURVE",
"555 255 CURVE SMOOTH",
"555 113 OFFCURVE",
"466 29 OFFCURVE",
"315 29 CURVE SMOOTH",
"176 29 OFFCURVE",
"98 103 OFFCURVE",
"106 228 CURVE SMOOTH",
"115 355 OFFCURVE",
"185 448 OFFCURVE",
"297 477 CURVE",
"300 520 LINE",
"78 520 LINE",
"75 477 LINE",
"231 477 LINE",
"129 440 OFFCURVE",
"67 351 OFFCURVE",
"58 230 CURVE SMOOTH",
"47 77 OFFCURVE",
"142 -13 OFFCURVE",
"313 -13 CURVE SMOOTH"
);
}
);
width = 664;
},
{
layerId = m002;
paths = (
{
closed = 1;
nodes = (
"585 -13 OFFCURVE",
"712 68 OFFCURVE",
"712 206 CURVE SMOOTH",
"712 281 OFFCURVE",
"668 338 OFFCURVE",
"590 370 CURVE",
"732 370 LINE",
"742 520 LINE",
"455 520 LINE",
"445 370 LINE",
"485 354 OFFCURVE",
"509 316 OFFCURVE",
"509 268 CURVE SMOOTH",
"509 187 OFFCURVE",
"460 139 OFFCURVE",
"376 139 CURVE SMOOTH",
"306 139 OFFCURVE",
"264 176 OFFCURVE",
"264 238 CURVE SMOOTH",
"264 301 OFFCURVE",
"294 350 OFFCURVE",
"345 370 CURVE",
"355 520 LINE",
"68 520 LINE",
"58 370 LINE",
"186 370 LINE",
"100 335 OFFCURVE",
"52 271 OFFCURVE",
"52 187 CURVE SMOOTH",
"52 61 OFFCURVE",
"170 -13 OFFCURVE",
"370 -13 CURVE SMOOTH"
);
}
);
width = 774;
}
);
leftKerningGroup = o;
leftMetricsKey = u;
rightKerningGroup = o;
rightMetricsKey = u;
unicode = 028A;
},
{
glyphname = v;
lastChange = "2025-09-16 16:06:53 +0000";
layers = (
{
anchors = (
{
name = Top;
position = "{347, 520}";
}
);
layerId = "FD4D3FDD-DE85-408F-A52A-FF600B1C6101";
paths = (
{
closed = 1;
nodes = (
"289 0 LINE",
"333 0 LINE",
"636 520 LINE",
"586 520 LINE",
"316 68 LINE",
"314 68 LINE",
"108 520 LINE",
"58 520 LINE"
);
}
);
width = 658;
},
{
anchors = (
{
name = Top;
position = "{401, 520}";
}
);
layerId = m002;
paths = (
{
closed = 1;
nodes = (
"273 0 LINE",
"457 0 LINE",
"757 520 LINE",
"550 520 LINE",
"381 237 LINE",
"379 237 LINE",
"251 520 LINE",
"48 520 LINE"
);
}
);
width = 769;
}
);
leftKerningGroup = v;
leftMetricsKey = "=|k";
rightKerningGroup = v;
rightMetricsKey = k;
unicode = 0076;
},
{
glyphname = w;
lastChange = "2025-09-15 22:18:34 +0000";
layers = (
{
anchors = (
{
name = Top;
position = "{489, 520}";
}
);
layerId = "FD4D3FDD-DE85-408F-A52A-FF600B1C6101";
paths = (
{
closed = 1;
nodes = (
"249 0 LINE",
"298 0 LINE",
"482 447 LINE",
"484 447 LINE",
"605 0 LINE",
"655 0 LINE",
"918 520 LINE",
"868 520 LINE",
"638 64 LINE",
"636 64 LINE",
"513 520 LINE",
"463 520 LINE",
"275 65 LINE",
"273 65 LINE",
"108 520 LINE",
"58 520 LINE"
);
}
);
width = 940;
},
{
anchors = (
{
name = Top;
position = "{540, 520}";
}
);
layerId = m002;
paths = (
{
closed = 1;
nodes = (
"231 0 LINE",
"419 0 LINE",
"524 280 LINE",
"526 280 LINE",
"591 0 LINE",
"779 0 LINE",
"1036 520 LINE",
"836 520 LINE",
"704 238 LINE",
"702 238 LINE",
"616 520 LINE",
"466 520 LINE",
"339 238 LINE",
"337 238 LINE",
"244 520 LINE",
"48 520 LINE"
);
}
);
width = 1048;
}
);
leftKerningGroup = v;
leftMetricsKey = "=|k";
rightKerningGroup = v;
rightMetricsKey = k;
unicode = 0077;
},
{
glyphname = x;
lastChange = "2025-09-15 23:26:35 +0000";
layers = (
{
anchors = (
{
name = Top;
position = "{323, 520}";
}
);
layerId = "FD4D3FDD-DE85-408F-A52A-FF600B1C6101";
paths = (
{
closed = 1;
nodes = (
"272 260 LINE",
"22 0 LINE",
"88 0 LINE",
"303 224 LINE",
"487 0 LINE",
"551 0 LINE",
"337 260 LINE",
"587 520 LINE",
"522 520 LINE",
"307 296 LINE",
"123 520 LINE",
"58 520 LINE"
);
}
);
width = 609;
},
{
anchors = (
{
name = Top;
position = "{413, 520}";
}
);
layerId = m002;
paths = (
{
closed = 1;
nodes = (
"262 261 LINE",
"12 0 LINE",
"279 0 LINE",
"386 111 LINE",
"477 0 LINE",
"742 0 LINE",
"528 259 LINE",
"779 520 LINE",
"511 520 LINE",
"405 409 LINE",
"313 520 LINE",
"49 520 LINE"
);
}
);
width = 791;
}
);
leftKerningGroup = x;
leftMetricsKey = "=|k";
rightKerningGroup = x;
rightMetricsKey = k;
unicode = 0078;
},
{
glyphname = y;
lastChange = "2025-09-15 23:37:16 +0000";
layers = (
{
anchors = (
{
name = Bottom;
position = "{407, 0}";
},
{
name = Top;
position = "{352, 520}";
}
);
layerId = "FD4D3FDD-DE85-408F-A52A-FF600B1C6101";
paths = (
{
closed = 1;
nodes = (
"645 520 LINE",
"595 520 LINE",
"340 58 LINE",
"338 58 LINE",
"108 520 LINE",
"58 520 LINE",
"312 9 LINE",
"269 -69 LINE SMOOTH",
"236 -129 OFFCURVE",
"201 -161 OFFCURVE",
"152 -161 CURVE SMOOTH",
"134 -161 OFFCURVE",
"112 -158 OFFCURVE",
"101 -152 CURVE",
"99 -200 LINE",
"113 -205 OFFCURVE",
"131 -208 OFFCURVE",
"147 -208 CURVE SMOOTH",
"222 -208 OFFCURVE",
"270 -163 OFFCURVE",
"320 -71 CURVE SMOOTH"
);
}
);
width = 667;
},
{
anchors = (
{
name = Bottom;
position = "{544, 0}";
},
{
name = Top;
position = "{393, 520}";
}
);
layerId = m002;
paths = (
{
closed = 1;
nodes = (
"736 520 LINE",
"536 520 LINE",
"382 239 LINE",
"380 239 LINE",
"244 520 LINE",
"48 520 LINE",
"275 45 LINE",
"245 -10 LINE SMOOTH",
"233 -33 OFFCURVE",
"210 -48 OFFCURVE",
"180 -48 CURVE SMOOTH",
"147 -48 OFFCURVE",
"119 -46 OFFCURVE",
"107 -40 CURVE",
"100 -198 LINE",
"116 -203 OFFCURVE",
"139 -207 OFFCURVE",
"167 -207 CURVE SMOOTH",
"284 -207 OFFCURVE",
"352 -197 OFFCURVE",
"431 -50 CURVE SMOOTH"
);
}
);
width = 748;
}
);
leftKerningGroup = y;
leftMetricsKey = "=|k";
rightKerningGroup = y;
rightMetricsKey = k;
unicode = 0079;
},
{
glyphname = z;
lastChange = "2025-09-15 22:18:41 +0000";
layers = (
{
anchors = (
{
name = Bottom;
position = "{313, 0}";
},
{
name = Top;
position = "{340, 520}";
}
);
layerId = "FD4D3FDD-DE85-408F-A52A-FF600B1C6101";
paths = (
{
closed = 1;
nodes = (
"589 520 LINE",
"102 520 LINE",
"99 480 LINE",
"528 480 LINE",
"45 40 LINE",
"43 0 LINE",
"554 0 LINE",
"556 40 LINE",
"104 40 LINE",
"586 480 LINE"
);
}
);
width = 612;
},
{
anchors = (
{
name = Bottom;
position = "{353, 0}";
},
{
name = Top;
position = "{389, 520}";
}
);
layerId = m002;
paths = (
{
closed = 1;
nodes = (
"708 520 LINE",
"78 520 LINE",
"68 370 LINE",
"424 370 LINE",
"42 150 LINE",
"32 0 LINE",
"673 0 LINE",
"683 150 LINE",
"324 150 LINE",
"698 370 LINE"
);
}
);
width = 741;
}
);
leftKerningGroup = z;
leftMetricsKey = n;
rightKerningGroup = z;
unicode = 007A;
},
{
color = 10;
glyphname = a.ss01;
lastChange = "2025-09-15 22:34:58 +0000";
layers = (
{
anchors = (
{
name = Bottom;
position = "{246, 0}";
},
{
name = Ogonek;
position = "{464, 0}";
},
{
name = Top;
position = "{320, 532}";
}
);
layerId = "FD4D3FDD-DE85-408F-A52A-FF600B1C6101";
paths = (
{
closed = 1;
nodes = (
"314 -13 OFFCURVE",
"409 22 OFFCURVE",
"454 90 CURVE",
"457 90 LINE",
"436 0 LINE",
"499 0 LINE",
"525 379 LINE SMOOTH",
"531 470 OFFCURVE",
"447 532 OFFCURVE",
"316 532 CURVE SMOOTH",
"169 532 OFFCURVE",
"71 472 OFFCURVE",
"71 383 CURVE",
"119 381 LINE",
"119 446 OFFCURVE",
"197 490 OFFCURVE",
"315 490 CURVE SMOOTH",
"414 490 OFFCURVE",
"478 451 OFFCURVE",
"478 391 CURVE SMOOTH",
"478 326 OFFCURVE",
"381 306 OFFCURVE",
"303 289 CURVE SMOOTH",
"162 259 OFFCURVE",
"41 239 OFFCURVE",
"41 119 CURVE SMOOTH",
"41 40 OFFCURVE",
"114 -13 OFFCURVE",
"231 -13 CURVE SMOOTH"
);
},
{
closed = 1;
nodes = (
"88 208 OFFCURVE",
"192 220 OFFCURVE",
"299 244 CURVE SMOOTH",
"359 257 OFFCURVE",
"444 277 OFFCURVE",
"471 305 CURVE",
"466 233 LINE SMOOTH",
"458 111 OFFCURVE",
"354 29 OFFCURVE",
"234 29 CURVE SMOOTH",
"144 29 OFFCURVE",
"88 65 OFFCURVE",
"88 119 CURVE SMOOTH"
);
}
);
width = 577;
},
{
anchors = (
{
name = Bottom;
position = "{252, 0}";
},
{
name = Ogonek;
position = "{547, 0}";
},
{
name = Top;
position = "{375, 532}";
}
);
layerId = m002;
paths = (
{
closed = 1;
nodes = (
"323 -13 OFFCURVE",
"392 7 OFFCURVE",
"432 39 CURVE",
"435 39 LINE",
"412 0 LINE",
"619 0 LINE",
"643 352 LINE SMOOTH",
"651 464 OFFCURVE",
"546 532 OFFCURVE",
"369 532 CURVE SMOOTH",
"167 532 OFFCURVE",
"48 460 OFFCURVE",
"48 339 CURVE",
"246 335 LINE",
"246 373 OFFCURVE",
"292 395 OFFCURVE",
"371 395 CURVE SMOOTH",
"404 395 OFFCURVE",
"446 385 OFFCURVE",
"446 367 CURVE SMOOTH",
"446 328 OFFCURVE",
"324 314 OFFCURVE",
"238 305 CURVE SMOOTH",
"83 284 OFFCURVE",
"22 233 OFFCURVE",
"22 136 CURVE SMOOTH",
"22 47 OFFCURVE",
"112 -13 OFFCURVE",
"259 -13 CURVE SMOOTH"
);
},
{
closed = 1;
nodes = (
"221 174 OFFCURVE",
"224 195 OFFCURVE",
"314 205 CURVE SMOOTH",
"360 212 OFFCURVE",
"418 223 OFFCURVE",
"439 239 CURVE",
"435 211 LINE SMOOTH",
"428 161 OFFCURVE",
"368 125 OFFCURVE",
"286 125 CURVE SMOOTH",
"249 125 OFFCURVE",
"221 137 OFFCURVE",
"221 155 CURVE SMOOTH"
);
}
);
width = 687;
}
);
leftKerningGroup = o;
leftMetricsKey = a;
rightKerningGroup = n;
rightMetricsKey = n;
},
{
color = 10;
glyphname = astroke.ss01;
lastChange = "2025-09-15 22:35:00 +0000";
layers = (
{
anchors = (
{
name = Bottom;
position = "{216, 0}";
},
{
name = Ogonek;
position = "{464, 0}";
},
{
name = Top;
position = "{250, 532}";
}
);
layerId = "FD4D3FDD-DE85-408F-A52A-FF600B1C6101";
paths = (
{
closed = 1;
nodes = (
"325 -13 OFFCURVE",
"413 28 OFFCURVE",
"454 90 CURVE",
"457 90 LINE",
"436 0 LINE",
"499 0 LINE",
"525 378 LINE SMOOTH",
"529 433 OFFCURVE",
"499 478 OFFCURVE",
"446 504 CURVE",
"469 558 LINE",
"427 558 LINE",
"410 519 LINE",
"381 527 OFFCURVE",
"349 532 OFFCURVE",
"312 532 CURVE SMOOTH",
"174 532 OFFCURVE",
"78 474 OFFCURVE",
"72 384 CURVE",
"119 380 LINE",
"124 445 OFFCURVE",
"204 490 OFFCURVE",
"318 490 CURVE SMOOTH",
"346 490 OFFCURVE",
"372 487 OFFCURVE",
"393 481 CURVE",
"311 292 LINE",
"305 291 OFFCURVE",
"300 290 OFFCURVE",
"295 289 CURVE SMOOTH",
"161 259 OFFCURVE",
"49 241 OFFCURVE",
"41 132 CURVE SMOOTH",
"36 59 OFFCURVE",
"89 6 OFFCURVE",
"180 -9 CURVE",
"162 -50 LINE",
"205 -50 LINE",
"221 -13 LINE",
"234 -13 LINE SMOOTH"
);
},
{
closed = 1;
nodes = (
"94 204 OFFCURVE",
"187 219 OFFCURVE",
"288 240 CURVE",
"197 31 LINE",
"126 39 OFFCURVE",
"85 73 OFFCURVE",
"88 121 CURVE SMOOTH"
);
},
{
closed = 1;
nodes = (
"336 251 LINE",
"389 263 OFFCURVE",
"450 280 OFFCURVE",
"472 303 CURVE",
"466 234 LINE SMOOTH",
"456 115 OFFCURVE",
"357 33 OFFCURVE",
"239 29 CURVE"
);
},
{
closed = 1;
nodes = (
"429 467 LINE",
"462 449 OFFCURVE",
"480 422 OFFCURVE",
"478 389 CURVE SMOOTH",
"474 341 OFFCURVE",
"419 318 OFFCURVE",
"358 303 CURVE"
);
}
);
width = 577;
},
{
anchors = (
{
name = Bottom;
position = "{252, 0}";
},
{
name = Ogonek;
position = "{547, 0}";
},
{
name = Top;
position = "{315, 532}";
}
);
layerId = m002;
paths = (
{
closed = 1;
nodes = (
"323 -13 OFFCURVE",
"397 8 OFFCURVE",
"432 40 CURVE",
"435 40 LINE",
"412 0 LINE",
"619 0 LINE",
"643 352 LINE SMOOTH",
"649 437 OFFCURVE",
"590 496 OFFCURVE",
"485 520 CURVE",
"501 558 LINE",
"449 558 LINE",
"436 528 LINE",
"415 531 OFFCURVE",
"393 532 OFFCURVE",
"369 532 CURVE SMOOTH",
"174 532 OFFCURVE",
"57 462 OFFCURVE",
"48 339 CURVE",
"246 335 LINE",
"249 371 OFFCURVE",
"278 394 OFFCURVE",
"374 395 CURVE SMOOTH",
"375 395 OFFCURVE",
"377 395 OFFCURVE",
"378 395 CURVE",
"345 319 LINE",
"310 313 OFFCURVE",
"271 309 OFFCURVE",
"238 305 CURVE SMOOTH",
"89 285 OFFCURVE",
"28 237 OFFCURVE",
"22 146 CURVE SMOOTH",
"16 64 OFFCURVE",
"84 5 OFFCURVE",
"202 -10 CURVE",
"184 -50 LINE",
"237 -50 LINE",
"253 -13 LINE",
"259 -13 LINE SMOOTH"
);
},
{
closed = 1;
nodes = (
"222 174 OFFCURVE",
"226 192 OFFCURVE",
"294 202 CURVE",
"261 127 LINE",
"236 131 OFFCURVE",
"219 142 OFFCURVE",
"221 157 CURVE SMOOTH"
);
},
{
closed = 1;
nodes = (
"350 211 LINE",
"387 218 OFFCURVE",
"423 227 OFFCURVE",
"439 239 CURVE",
"435 211 LINE SMOOTH",
"429 167 OFFCURVE",
"382 133 OFFCURVE",
"314 126 CURVE"
);
},
{
closed = 1;
nodes = (
"427 387 LINE",
"439 382 OFFCURVE",
"447 374 OFFCURVE",
"446 365 CURVE SMOOTH",
"445 351 OFFCURVE",
"428 341 OFFCURVE",
"403 333 CURVE"
);
}
);
width = 687;
}
);
leftKerningGroup = o;
leftMetricsKey = a;
rightKerningGroup = n;
rightMetricsKey = a;
},
{
color = 10;
glyphname = germandbls.ss01;
lastChange = "2025-09-15 22:35:02 +0000";
layers = (
{
layerId = "FD4D3FDD-DE85-408F-A52A-FF600B1C6101";
paths = (
{
closed = 1;
nodes = (
"90 0 LINE",
"130 582 LINE SMOOTH",
"135 649 OFFCURVE",
"181 694 OFFCURVE",
"244 694 CURVE SMOOTH",
"299 694 LINE",
"252 661 OFFCURVE",
"225 610 OFFCURVE",
"225 547 CURVE SMOOTH",
"225 372 OFFCURVE",
"501 336 OFFCURVE",
"490 171 CURVE SMOOTH",
"484 86 OFFCURVE",
"416 29 OFFCURVE",
"320 29 CURVE SMOOTH",
"280 29 OFFCURVE",
"229 38 OFFCURVE",
"193 52 CURVE",
"189 10 LINE",
"213 -4 OFFCURVE",
"262 -13 OFFCURVE",
"314 -13 CURVE SMOOTH",
"440 -13 OFFCURVE",
"530 63 OFFCURVE",
"538 177 CURVE SMOOTH",
"551 364 OFFCURVE",
"273 407 OFFCURVE",
"273 553 CURVE SMOOTH",
"273 636 OFFCURVE",
"343 694 OFFCURVE",
"443 694 CURVE",
"445 736 LINE",
"247 736 LINE SMOOTH",
"155 736 OFFCURVE",
"89 671 OFFCURVE",
"82 572 CURVE SMOOTH",
"42 0 LINE"
);
}
);
width = 594;
},
{
layerId = m002;
paths = (
{
closed = 1;
nodes = (
"230 0 LINE",
"266 521 LINE SMOOTH",
"268 552 OFFCURVE",
"290 574 OFFCURVE",
"317 574 CURVE SMOOTH",
"391 574 LINE",
"384 553 OFFCURVE",
"381 530 OFFCURVE",
"381 505 CURVE SMOOTH",
"381 371 OFFCURVE",
"482 293 OFFCURVE",
"482 201 CURVE SMOOTH",
"482 168 OFFCURVE",
"458 149 OFFCURVE",
"428 149 CURVE SMOOTH",
"397 149 OFFCURVE",
"357 159 OFFCURVE",
"323 173 CURVE",
"307 9 LINE",
"331 -5 OFFCURVE",
"380 -13 OFFCURVE",
"430 -13 CURVE SMOOTH",
"576 -13 OFFCURVE",
"690 70 OFFCURVE",
"690 197 CURVE SMOOTH",
"690 303 OFFCURVE",
"590 403 OFFCURVE",
"590 511 CURVE SMOOTH",
"590 548 OFFCURVE",
"611 574 OFFCURVE",
"636 574 CURVE",
"643 736 LINE",
"304 736 LINE SMOOTH",
"169 736 OFFCURVE",
"79 672 OFFCURVE",
"72 573 CURVE SMOOTH",
"32 0 LINE"
);
}
);
width = 725;
}
);
leftKerningGroup = n;
leftMetricsKey = n;
rightKerningGroup = germandbls;
rightMetricsKey = o;
},
{
color = 10;
glyphname = f_f;
lastChange = "2025-09-15 22:35:05 +0000";
layers = (
{
layerId = "FD4D3FDD-DE85-408F-A52A-FF600B1C6101";
paths = (
{
closed = 1;
nodes = (
"171 518 LINE",
"78 523 LINE",
"75 478 LINE",
"168 478 LINE",
"135 0 LINE",
"183 0 LINE",
"216 478 LINE",
"453 478 LINE",
"420 0 LINE",
"468 0 LINE",
"501 478 LINE",
"645 478 LINE",
"648 520 LINE",
"504 520 LINE",
"507 564 LINE SMOOTH",
"513 646 OFFCURVE",
"567 695 OFFCURVE",
"651 695 CURVE SMOOTH",
"672 695 OFFCURVE",
"695 690 OFFCURVE",
"714 681 CURVE",
"716 723 LINE",
"698 731 OFFCURVE",
"673 736 OFFCURVE",
"649 736 CURVE SMOOTH",
"538 736 OFFCURVE",
"467 672 OFFCURVE",
"459 563 CURVE SMOOTH",
"456 518 LINE",
"363 520 LINE",
"219 520 LINE",
"222 564 LINE SMOOTH",
"228 646 OFFCURVE",
"282 695 OFFCURVE",
"366 695 CURVE SMOOTH",
"387 695 OFFCURVE",
"410 690 OFFCURVE",
"429 681 CURVE",
"431 723 LINE",
"413 731 OFFCURVE",
"388 736 OFFCURVE",
"364 736 CURVE SMOOTH",
"253 736 OFFCURVE",
"182 672 OFFCURVE",
"174 563 CURVE SMOOTH"
);
}
);
width = 695;
},
{
layerId = m002;
paths = (
{
closed = 1;
nodes = (
"141 518 LINE",
"68 523 LINE",
"58 370 LINE",
"131 370 LINE",
"105 0 LINE",
"303 0 LINE",
"329 370 LINE",
"536 370 LINE",
"510 0 LINE",
"708 0 LINE",
"734 370 LINE",
"868 370 LINE",
"878 520 LINE",
"744 520 LINE",
"745 533 LINE SMOOTH",
"747 561 OFFCURVE",
"776 577 OFFCURVE",
"822 577 CURVE SMOOTH",
"847 577 OFFCURVE",
"875 572 OFFCURVE",
"897 564 CURVE",
"904 722 LINE",
"886 731 OFFCURVE",
"851 736 OFFCURVE",
"809 736 CURVE SMOOTH",
"653 736 OFFCURVE",
"556 670 OFFCURVE",
"549 559 CURVE SMOOTH",
"546 518 LINE",
"473 520 LINE",
"339 520 LINE",
"340 533 LINE SMOOTH",
"342 561 OFFCURVE",
"371 577 OFFCURVE",
"417 577 CURVE SMOOTH",
"442 577 OFFCURVE",
"470 572 OFFCURVE",
"492 564 CURVE",
"499 722 LINE",
"481 731 OFFCURVE",
"446 736 OFFCURVE",
"404 736 CURVE SMOOTH",
"248 736 OFFCURVE",
"151 670 OFFCURVE",
"144 559 CURVE SMOOTH"
);
}
);
width = 906;
}
);
leftKerningGroup = f;
leftMetricsKey = f;
rightKerningGroup = f;
rightMetricsKey = f;
unicode = FB00;
},
{
color = 10;
glyphname = f_f_i;
lastChange = "2025-09-16 14:05:03 +0000";
layers = (
{
layerId = "FD4D3FDD-DE85-408F-A52A-FF600B1C6101";
paths = (
{
closed = 1;
nodes = (
"171 518 LINE",
"78 523 LINE",
"75 478 LINE",
"168 478 LINE",
"135 0 LINE",
"183 0 LINE",
"216 478 LINE",
"453 478 LINE",
"420 0 LINE",
"468 0 LINE",
"501 478 LINE",
"739 478 LINE",
"706 0 LINE",
"754 0 LINE",
"790 520 LINE",
"504 520 LINE",
"507 564 LINE SMOOTH",
"513 646 OFFCURVE",
"567 695 OFFCURVE",
"651 695 CURVE SMOOTH",
"672 695 OFFCURVE",
"695 690 OFFCURVE",
"714 681 CURVE",
"716 723 LINE",
"698 731 OFFCURVE",
"673 736 OFFCURVE",
"649 736 CURVE SMOOTH",
"538 736 OFFCURVE",
"466 672 OFFCURVE",
"459 563 CURVE SMOOTH",
"456 518 LINE",
"363 520 LINE",
"219 520 LINE",
"222 564 LINE SMOOTH",
"228 646 OFFCURVE",
"282 695 OFFCURVE",
"366 695 CURVE SMOOTH",
"387 695 OFFCURVE",
"410 690 OFFCURVE",
"429 681 CURVE",
"431 723 LINE",
"413 731 OFFCURVE",
"388 736 OFFCURVE",
"364 736 CURVE SMOOTH",
"253 736 OFFCURVE",
"181 672 OFFCURVE",
"174 563 CURVE SMOOTH"
);
},
{
closed = 1;
nodes = (
"799 654 LINE",
"804 723 LINE",
"756 723 LINE",
"751 654 LINE"
);
}
);
width = 832;
},
{
layerId = m002;
paths = (
{
closed = 1;
nodes = (
"141 518 LINE",
"68 523 LINE",
"58 370 LINE",
"131 370 LINE",
"105 0 LINE",
"303 0 LINE",
"329 370 LINE",
"536 370 LINE",
"510 0 LINE",
"708 0 LINE",
"734 370 LINE",
"908 370 LINE",
"882 0 LINE",
"1081 0 LINE",
"1117 520 LINE",
"744 520 LINE",
"745 533 LINE SMOOTH",
"747 561 OFFCURVE",
"776 577 OFFCURVE",
"822 577 CURVE SMOOTH",
"847 577 OFFCURVE",
"875 572 OFFCURVE",
"897 564 CURVE",
"904 722 LINE",
"886 731 OFFCURVE",
"851 736 OFFCURVE",
"809 736 CURVE SMOOTH",
"653 736 OFFCURVE",
"556 670 OFFCURVE",
"549 559 CURVE SMOOTH",
"546 518 LINE",
"473 520 LINE",
"339 520 LINE",
"340 533 LINE SMOOTH",
"342 561 OFFCURVE",
"371 577 OFFCURVE",
"417 577 CURVE SMOOTH",
"442 577 OFFCURVE",
"470 572 OFFCURVE",
"492 564 CURVE",
"499 722 LINE",
"481 731 OFFCURVE",
"446 736 OFFCURVE",
"404 736 CURVE SMOOTH",
"248 736 OFFCURVE",
"151 670 OFFCURVE",
"144 559 CURVE SMOOTH"
);
},
{
closed = 1;
nodes = (
"1119 553 LINE",
"1131 723 LINE",
"932 723 LINE",
"920 553 LINE"
);
}
);
width = 1149;
}
);
leftKerningGroup = f;
leftMetricsKey = f;
rightKerningGroup = i;
rightMetricsKey = i;
unicode = FB03;
},
{
color = 10;
glyphname = f_t;
lastChange = "2025-09-15 22:35:08 +0000";
layers = (
{
layerId = "FD4D3FDD-DE85-408F-A52A-FF600B1C6101";
paths = (
{
closed = 1;
nodes = (
"171 518 LINE",
"78 520 LINE",
"75 478 LINE",
"168 478 LINE",
"135 0 LINE",
"183 0 LINE",
"216 478 LINE",
"453 478 LINE",
"429 140 LINE SMOOTH",
"421 31 OFFCURVE",
"461 -13 OFFCURVE",
"564 -13 CURVE SMOOTH",
"584 -13 OFFCURVE",
"600 -10 OFFCURVE",
"619 -3 CURVE",
"621 39 LINE",
"609 31 OFFCURVE",
"592 28 OFFCURVE",
"563 28 CURVE SMOOTH",
"497 28 OFFCURVE",
"471 59 OFFCURVE",
"477 138 CURVE SMOOTH",
"501 478 LINE",
"635 478 LINE",
"638 520 LINE",
"504 520 LINE",
"512 629 LINE",
"464 629 LINE",
"456 518 LINE",
"341 520 LINE",
"219 520 LINE",
"222 564 LINE SMOOTH",
"228 646 OFFCURVE",
"282 695 OFFCURVE",
"366 695 CURVE SMOOTH",
"387 695 OFFCURVE",
"410 690 OFFCURVE",
"429 681 CURVE",
"431 723 LINE",
"413 731 OFFCURVE",
"388 736 OFFCURVE",
"364 736 CURVE SMOOTH",
"253 736 OFFCURVE",
"181 672 OFFCURVE",
"174 563 CURVE SMOOTH"
);
}
);
width = 677;
},
{
layerId = m002;
paths = (
{
closed = 1;
nodes = (
"141 518 LINE",
"68 520 LINE",
"58 370 LINE",
"131 370 LINE",
"105 0 LINE",
"303 0 LINE",
"329 370 LINE",
"503 370 LINE",
"489 173 LINE SMOOTH",
"481 56 OFFCURVE",
"564 -13 OFFCURVE",
"713 -13 CURVE SMOOTH",
"749 -13 OFFCURVE",
"782 -9 OFFCURVE",
"800 -1 CURVE",
"807 161 LINE",
"782 152 OFFCURVE",
"751 146 OFFCURVE",
"724 146 CURVE SMOOTH",
"699 146 OFFCURVE",
"686 162 OFFCURVE",
"688 189 CURVE SMOOTH",
"701 370 LINE",
"805 370 LINE",
"815 520 LINE",
"711 520 LINE",
"719 629 LINE",
"521 629 LINE",
"513 518 LINE",
"440 520 LINE",
"339 520 LINE",
"340 533 LINE SMOOTH",
"342 561 OFFCURVE",
"371 577 OFFCURVE",
"417 577 CURVE SMOOTH",
"443 577 OFFCURVE",
"471 572 OFFCURVE",
"492 564 CURVE",
"499 722 LINE",
"480 731 OFFCURVE",
"445 736 OFFCURVE",
"404 736 CURVE SMOOTH",
"248 736 OFFCURVE",
"151 670 OFFCURVE",
"144 559 CURVE SMOOTH"
);
}
);
width = 848;
}
);
leftKerningGroup = f;
leftMetricsKey = f;
rightKerningGroup = t;
rightMetricsKey = t;
unicode = FB05;
},
{
color = 10;
glyphname = fi;
lastChange = "2025-09-16 14:04:43 +0000";
layers = (
{
layerId = "FD4D3FDD-DE85-408F-A52A-FF600B1C6101";
paths = (
{
closed = 1;
nodes = (
"171 518 LINE",
"78 520 LINE",
"75 478 LINE",
"168 478 LINE",
"135 0 LINE",
"183 0 LINE",
"216 478 LINE",
"444 478 LINE",
"411 0 LINE",
"459 0 LINE",
"495 520 LINE",
"219 520 LINE",
"222 564 LINE SMOOTH",
"228 646 OFFCURVE",
"282 695 OFFCURVE",
"366 695 CURVE SMOOTH",
"388 695 OFFCURVE",
"410 690 OFFCURVE",
"429 681 CURVE",
"431 723 LINE",
"413 731 OFFCURVE",
"389 736 OFFCURVE",
"364 736 CURVE SMOOTH",
"252 736 OFFCURVE",
"181 672 OFFCURVE",
"174 563 CURVE SMOOTH"
);
},
{
closed = 1;
nodes = (
"504 654 LINE",
"509 723 LINE",
"461 723 LINE",
"456 654 LINE"
);
}
);
width = 537;
},
{
layerId = m002;
paths = (
{
closed = 1;
nodes = (
"141 518 LINE",
"68 520 LINE",
"58 370 LINE",
"131 370 LINE",
"105 0 LINE",
"303 0 LINE",
"329 370 LINE",
"507 370 LINE",
"481 0 LINE",
"679 0 LINE",
"715 520 LINE",
"339 520 LINE",
"340 533 LINE SMOOTH",
"342 558 OFFCURVE",
"373 577 OFFCURVE",
"417 577 CURVE SMOOTH",
"438 577 OFFCURVE",
"470 572 OFFCURVE",
"492 564 CURVE",
"499 722 LINE",
"483 730 OFFCURVE",
"446 736 OFFCURVE",
"404 736 CURVE SMOOTH",
"255 736 OFFCURVE",
"151 666 OFFCURVE",
"144 559 CURVE SMOOTH"
);
},
{
closed = 1;
nodes = (
"717 553 LINE",
"729 723 LINE",
"531 723 LINE",
"519 553 LINE"
);
}
);
width = 747;
}
);
leftKerningGroup = f;
leftMetricsKey = f;
rightKerningGroup = i;
rightMetricsKey = i;
unicode = FB01;
},
{
color = 10;
glyphname = fl;
lastChange = "2025-09-15 22:35:11 +0000";
layers = (
{
layerId = "FD4D3FDD-DE85-408F-A52A-FF600B1C6101";
paths = (
{
closed = 1;
nodes = (
"437 520 LINE",
"219 520 LINE",
"222 564 LINE SMOOTH",
"228 646 OFFCURVE",
"282 695 OFFCURVE",
"366 695 CURVE SMOOTH",
"387 695 OFFCURVE",
"410 690 OFFCURVE",
"429 681 CURVE",
"431 723 LINE",
"413 731 OFFCURVE",
"388 736 OFFCURVE",
"364 736 CURVE SMOOTH",
"253 736 OFFCURVE",
"182 672 OFFCURVE",
"174 563 CURVE SMOOTH",
"171 518 LINE",
"78 520 LINE",
"75 478 LINE",
"168 478 LINE",
"135 0 LINE",
"183 0 LINE",
"216 478 LINE",
"434 478 LINE",
"401 0 LINE",
"449 0 LINE",
"498 704 LINE",
"451 723 LINE"
);
}
);
width = 527;
},
{
layerId = m002;
paths = (
{
closed = 1;
nodes = (
"517 520 LINE",
"339 520 LINE",
"340 533 LINE SMOOTH",
"342 561 OFFCURVE",
"371 577 OFFCURVE",
"417 577 CURVE SMOOTH",
"442 577 OFFCURVE",
"470 572 OFFCURVE",
"492 564 CURVE",
"499 722 LINE",
"481 731 OFFCURVE",
"446 736 OFFCURVE",
"404 736 CURVE SMOOTH",
"248 736 OFFCURVE",
"151 670 OFFCURVE",
"144 559 CURVE SMOOTH",
"141 518 LINE",
"68 520 LINE",
"58 370 LINE",
"131 370 LINE",
"105 0 LINE",
"303 0 LINE",
"329 370 LINE",
"507 370 LINE",
"481 0 LINE",
"649 0 LINE",
"695 669 LINE",
"531 723 LINE"
);
}
);
width = 717;
}
);
leftKerningGroup = f;
leftMetricsKey = f;
rightKerningGroup = l;
rightMetricsKey = l;
unicode = FB02;
},
{
color = 10;
glyphname = t_t;
lastChange = "2025-09-15 22:35:13 +0000";
layers = (
{
hints = (
{
place = "{149, 0}";
type = Stem;
},
{
place = "{461, 0}";
type = Stem;
}
);
layerId = "FD4D3FDD-DE85-408F-A52A-FF600B1C6101";
paths = (
{
closed = 1;
nodes = (
"117 31 OFFCURVE",
"156 -13 OFFCURVE",
"259 -13 CURVE SMOOTH",
"280 -13 OFFCURVE",
"296 -10 OFFCURVE",
"314 -3 CURVE",
"316 39 LINE",
"303 31 OFFCURVE",
"287 28 OFFCURVE",
"258 28 CURVE SMOOTH",
"192 28 OFFCURVE",
"167 59 OFFCURVE",
"172 138 CURVE SMOOTH",
"196 478 LINE",
"423 478 LINE",
"399 140 LINE SMOOTH",
"392 31 OFFCURVE",
"431 -13 OFFCURVE",
"534 -13 CURVE SMOOTH",
"555 -13 OFFCURVE",
"571 -10 OFFCURVE",
"589 -3 CURVE",
"591 39 LINE",
"578 31 OFFCURVE",
"562 28 OFFCURVE",
"533 28 CURVE SMOOTH",
"467 28 OFFCURVE",
"442 59 OFFCURVE",
"447 138 CURVE SMOOTH",
"471 478 LINE",
"605 478 LINE",
"608 520 LINE",
"474 520 LINE",
"482 629 LINE",
"434 629 LINE",
"426 518 LINE",
"333 520 LINE",
"199 520 LINE",
"207 629 LINE",
"159 629 LINE",
"151 518 LINE",
"58 523 LINE",
"55 478 LINE",
"148 478 LINE",
"124 140 LINE SMOOTH"
);
}
);
width = 647;
},
{
hints = (
{
place = "{149, 0}";
type = Stem;
},
{
place = "{504, 0}";
type = Stem;
}
);
layerId = m002;
paths = (
{
closed = 1;
nodes = (
"89 56 OFFCURVE",
"172 -13 OFFCURVE",
"321 -13 CURVE SMOOTH",
"359 -13 OFFCURVE",
"391 -9 OFFCURVE",
"408 -1 CURVE",
"415 161 LINE",
"389 152 OFFCURVE",
"360 146 OFFCURVE",
"337 146 CURVE SMOOTH",
"309 146 OFFCURVE",
"294 162 OFFCURVE",
"296 189 CURVE SMOOTH",
"309 370 LINE",
"486 370 LINE",
"472 173 LINE SMOOTH",
"464 56 OFFCURVE",
"547 -13 OFFCURVE",
"696 -13 CURVE SMOOTH",
"734 -13 OFFCURVE",
"766 -9 OFFCURVE",
"783 -1 CURVE",
"790 161 LINE",
"764 152 OFFCURVE",
"735 146 OFFCURVE",
"712 146 CURVE SMOOTH",
"684 146 OFFCURVE",
"669 162 OFFCURVE",
"671 189 CURVE SMOOTH",
"684 370 LINE",
"788 370 LINE",
"798 520 LINE",
"694 520 LINE",
"702 629 LINE",
"504 629 LINE",
"496 518 LINE",
"423 520 LINE",
"319 520 LINE",
"327 629 LINE",
"129 629 LINE",
"121 518 LINE",
"48 523 LINE",
"38 370 LINE",
"111 370 LINE",
"97 173 LINE SMOOTH"
);
}
);
width = 831;
}
);
leftKerningGroup = t;
leftMetricsKey = t;
rightKerningGroup = t;
rightMetricsKey = t;
},
{
color = 10;
glyphname = clickalveolar;
lastChange = "2025-09-15 22:35:15 +0000";
layers = (
{
layerId = "FD4D3FDD-DE85-408F-A52A-FF600B1C6101";
paths = (
{
closed = 1;
nodes = (
"198 518 LINE",
"58 523 LINE",
"55 478 LINE",
"195 478 LINE",
"188 369 LINE",
"48 374 LINE",
"45 329 LINE",
"185 329 LINE",
"149 -182 LINE",
"199 -182 LINE",
"235 329 LINE",
"370 329 LINE",
"373 371 LINE",
"238 371 LINE",
"245 478 LINE",
"380 478 LINE",
"383 520 LINE",
"248 520 LINE",
"262 714 LINE",
"212 714 LINE"
);
}
);
width = 405;
},
{
layerId = m002;
paths = (
{
closed = 1;
nodes = (
"187 523 LINE",
"49 528 LINE",
"38 375 LINE",
"176 375 LINE",
"170 283 LINE",
"32 288 LINE",
"21 135 LINE",
"159 135 LINE",
"137 -182 LINE",
"287 -182 LINE",
"309 135 LINE",
"446 135 LINE",
"457 285 LINE",
"320 285 LINE",
"326 375 LINE",
"463 375 LINE",
"473 525 LINE",
"337 525 LINE",
"350 714 LINE",
"200 714 LINE"
);
}
);
width = 485;
}
);
leftKerningGroup = t;
leftMetricsKey = t;
rightKerningGroup = t;
rightMetricsKey = t;
unicode = 01C2;
},
{
color = 10;
glyphname = ordfeminine;
lastChange = "2025-09-15 22:42:01 +0000";
layers = (
{
layerId = "FD4D3FDD-DE85-408F-A52A-FF600B1C6101";
paths = (
{
closed = 1;
nodes = (
"257 432 OFFCURVE",
"302 446 OFFCURVE",
"329 484 CURVE",
"328 483 LINE",
"322 438 LINE",
"373 438 LINE",
"392 708 LINE",
"342 708 LINE",
"340 661 LINE",
"339 660 LINE",
"317 699 OFFCURVE",
"274 715 OFFCURVE",
"229 715 CURVE SMOOTH",
"138 715 OFFCURVE",
"72 653 OFFCURVE",
"72 562 CURVE SMOOTH",
"72 483 OFFCURVE",
"132 432 OFFCURVE",
"211 432 CURVE SMOOTH"
);
},
{
closed = 1;
nodes = (
"122 628 OFFCURVE",
"171 671 OFFCURVE",
"237 671 CURVE SMOOTH",
"291 671 OFFCURVE",
"333 638 OFFCURVE",
"333 584 CURVE SMOOTH",
"333 518 OFFCURVE",
"283 475 OFFCURVE",
"217 475 CURVE SMOOTH",
"163 475 OFFCURVE",
"122 508 OFFCURVE",
"122 562 CURVE SMOOTH"
);
}
);
width = 421;
},
{
layerId = m002;
paths = (
{
closed = 1;
nodes = (
"223 433 OFFCURVE",
"255 439 OFFCURVE",
"280 458 CURVE SMOOTH",
"281 459 LINE",
"277 439 LINE",
"388 439 LINE",
"407 707 LINE",
"296 707 LINE",
"297 690 LINE",
"293 689 LINE",
"270 708 OFFCURVE",
"239 713 OFFCURVE",
"209 713 CURVE SMOOTH",
"119 713 OFFCURVE",
"52 655 OFFCURVE",
"52 565 CURVE SMOOTH",
"52 485 OFFCURVE",
"111 433 OFFCURVE",
"191 433 CURVE SMOOTH"
);
},
{
closed = 1;
nodes = (
"172 601 OFFCURVE",
"202 614 OFFCURVE",
"236 614 CURVE SMOOTH",
"262 614 OFFCURVE",
"287 606 OFFCURVE",
"287 580 CURVE SMOOTH",
"287 546 OFFCURVE",
"258 532 OFFCURVE",
"224 532 CURVE SMOOTH",
"197 532 OFFCURVE",
"172 540 OFFCURVE",
"172 567 CURVE SMOOTH"
);
}
);
width = 426;
}
);
leftKerningGroup = o;
leftMetricsKey = a;
rightKerningGroup = n;
rightMetricsKey = a;
unicode = 00AA;
},
{
color = 10;
glyphname = ordmasculine;
lastChange = "2025-09-15 22:41:25 +0000";
layers = (
{
layerId = "FD4D3FDD-DE85-408F-A52A-FF600B1C6101";
paths = (
{
closed = 1;
nodes = (
"142 715 OFFCURVE",
"78 658 OFFCURVE",
"72 574 CURVE SMOOTH",
"66 489 OFFCURVE",
"123 432 OFFCURVE",
"213 432 CURVE SMOOTH",
"302 432 OFFCURVE",
"367 489 OFFCURVE",
"373 572 CURVE SMOOTH",
"379 657 OFFCURVE",
"321 715 OFFCURVE",
"230 715 CURVE SMOOTH"
);
},
{
closed = 1;
nodes = (
"126 632 OFFCURVE",
"169 671 OFFCURVE",
"231 671 CURVE SMOOTH",
"290 671 OFFCURVE",
"327 633 OFFCURVE",
"323 574 CURVE SMOOTH",
"318 515 OFFCURVE",
"275 476 OFFCURVE",
"213 476 CURVE SMOOTH",
"153 476 OFFCURVE",
"117 514 OFFCURVE",
"122 572 CURVE SMOOTH"
);
}
);
width = 401;
},
{
layerId = m002;
paths = (
{
closed = 1;
nodes = (
"142 713 OFFCURVE",
"59 670 OFFCURVE",
"52 577 CURVE SMOOTH",
"46 481 OFFCURVE",
"128 432 OFFCURVE",
"224 432 CURVE SMOOTH",
"317 432 OFFCURVE",
"401 474 OFFCURVE",
"408 567 CURVE SMOOTH",
"415 664 OFFCURVE",
"332 713 OFFCURVE",
"235 713 CURVE SMOOTH"
);
},
{
closed = 1;
nodes = (
"175 601 OFFCURVE",
"204 614 OFFCURVE",
"238 614 CURVE SMOOTH",
"266 614 OFFCURVE",
"290 605 OFFCURVE",
"288 577 CURVE SMOOTH",
"286 543 OFFCURVE",
"256 531 OFFCURVE",
"222 531 CURVE SMOOTH",
"194 531 OFFCURVE",
"170 539 OFFCURVE",
"172 567 CURVE SMOOTH"
);
}
);
width = 417;
}
);
leftKerningGroup = o;
leftMetricsKey = o;
rightKerningGroup = o;
rightMetricsKey = o;
unicode = 00BA;
},
{
color = 10;
glyphname = "Be-cy";
lastChange = "2025-09-15 23:08:35 +0000";
layers = (
{
layerId = "FD4D3FDD-DE85-408F-A52A-FF600B1C6101";
paths = (
{
closed = 1;
nodes = (
"454 0 LINE SMOOTH",
"596 0 OFFCURVE",
"680 80 OFFCURVE",
"680 216 CURVE SMOOTH",
"680 330 OFFCURVE",
"602 398 OFFCURVE",
"469 398 CURVE SMOOTH",
"120 398 LINE",
"139 666 LINE",
"692 666 LINE",
"696 714 LINE",
"92 714 LINE",
"42 0 LINE"
);
},
{
closed = 1;
nodes = (
"117 351 LINE",
"467 351 LINE SMOOTH",
"569 351 OFFCURVE",
"630 299 OFFCURVE",
"630 212 CURVE SMOOTH",
"630 109 OFFCURVE",
"565 48 OFFCURVE",
"454 48 CURVE SMOOTH",
"95 48 LINE"
);
}
);
width = 734;
},
{
layerId = m002;
paths = (
{
closed = 1;
nodes = (
"544 0 LINE SMOOTH",
"717 0 OFFCURVE",
"820 89 OFFCURVE",
"820 240 CURVE SMOOTH",
"820 371 OFFCURVE",
"723 449 OFFCURVE",
"559 449 CURVE SMOOTH",
"283 449 LINE",
"290 546 LINE",
"812 546 LINE",
"824 714 LINE",
"92 714 LINE",
"42 0 LINE"
);
},
{
closed = 1;
nodes = (
"272 281 LINE",
"552 281 LINE SMOOTH",
"582 281 OFFCURVE",
"600 264 OFFCURVE",
"600 235 CURVE SMOOTH",
"600 193 OFFCURVE",
"581 168 OFFCURVE",
"549 168 CURVE SMOOTH",
"264 168 LINE"
);
}
);
width = 862;
}
);
leftKerningGroup = H;
leftMetricsKey = H;
rightKerningGroup = E;
rightMetricsKey = E;
unicode = 0411;
},
{
color = 10;
glyphname = "Ge-cy";
lastChange = "2025-09-15 23:08:38 +0000";
layers = (
{
anchors = (
{
name = Bottom;
position = "{286, 0}";
},
{
name = Top;
position = "{341, 714}";
}
);
layerId = "FD4D3FDD-DE85-408F-A52A-FF600B1C6101";
paths = (
{
closed = 1;
nodes = (
"139 666 LINE",
"650 666 LINE",
"654 714 LINE",
"92 714 LINE",
"42 0 LINE",
"92 0 LINE"
);
}
);
width = 652;
},
{
anchors = (
{
name = Bottom;
position = "{336, 0}";
},
{
name = Top;
position = "{441, 714}";
}
);
layerId = m002;
paths = (
{
closed = 1;
nodes = (
"290 546 LINE",
"802 546 LINE",
"814 714 LINE",
"92 714 LINE",
"42 0 LINE",
"252 0 LINE"
);
}
);
width = 812;
}
);
leftKerningGroup = H;
leftMetricsKey = H;
rightKerningGroup = "Ge-cy";
rightMetricsKey = T;
unicode = 0413;
},
{
color = 10;
glyphname = "Geupturn-cy";
lastChange = "2025-09-15 23:12:37 +0000";
layers = (
{
layerId = "FD4D3FDD-DE85-408F-A52A-FF600B1C6101";
paths = (
{
closed = 1;
nodes = (
"139 666 LINE",
"674 666 LINE",
"680 752 LINE",
"630 752 LINE",
"627 714 LINE",
"92 714 LINE",
"42 0 LINE",
"92 0 LINE"
);
}
);
width = 676;
},
{
layerId = m002;
paths = (
{
closed = 1;
nodes = (
"290 546 LINE",
"908 546 LINE",
"924 772 LINE",
"714 772 LINE",
"710 714 LINE",
"92 714 LINE",
"42 0 LINE",
"252 0 LINE"
);
}
);
width = 918;
}
);
leftKerningGroup = H;
leftMetricsKey = "Ge-cy";
rightKerningGroup = "Ge-cy";
rightMetricsKey = "Ge-cy";
unicode = 0490;
},
{
color = 10;
glyphname = "Gedescender-cy";
lastChange = "2025-09-15 23:12:34 +0000";
layers = (
{
layerId = "FD4D3FDD-DE85-408F-A52A-FF600B1C6101";
paths = (
{
closed = 1;
nodes = (
"85 -100 LINE",
"135 -100 LINE",
"145 48 LINE",
"95 48 LINE",
"139 666 LINE",
"650 666 LINE",
"654 714 LINE",
"92 714 LINE",
"42 0 LINE",
"92 0 LINE"
);
}
);
width = 652;
},
{
layerId = m002;
paths = (
{
closed = 1;
nodes = (
"245 -100 LINE",
"455 -100 LINE",
"473 168 LINE",
"264 168 LINE",
"290 546 LINE",
"802 546 LINE",
"814 714 LINE",
"92 714 LINE",
"42 0 LINE",
"252 0 LINE"
);
}
);
width = 812;
}
);
leftKerningGroup = H;
leftMetricsKey = "Ge-cy";
rightKerningGroup = "Ge-cy";
rightMetricsKey = "Ge-cy";
unicode = 04F6;
},
{
color = 10;
glyphname = "Gestroke-cy";
lastChange = "2025-09-15 23:12:32 +0000";
layers = (
{
layerId = "FD4D3FDD-DE85-408F-A52A-FF600B1C6101";
paths = (
{
closed = 1;
nodes = (
"177 344 LINE",
"597 344 LINE",
"599 384 LINE",
"180 384 LINE",
"200 666 LINE",
"711 666 LINE",
"715 714 LINE",
"153 714 LINE",
"130 384 LINE",
"69 384 LINE",
"67 344 LINE",
"127 344 LINE",
"103 0 LINE",
"153 0 LINE"
);
}
);
width = 713;
},
{
layerId = m002;
paths = (
{
closed = 1;
nodes = (
"329 233 LINE",
"794 233 LINE",
"804 383 LINE",
"340 383 LINE",
"351 546 LINE",
"863 546 LINE",
"875 714 LINE",
"153 714 LINE",
"130 383 LINE",
"69 383 LINE",
"59 233 LINE",
"119 233 LINE",
"103 0 LINE",
"313 0 LINE"
);
}
);
width = 873;
}
);
leftKerningGroup = "Ge-cy";
leftMetricsKey = "Ge-cy";
rightKerningGroup = "Ge-cy";
rightMetricsKey = "Ge-cy";
unicode = 0492;
},
{
color = 10;
glyphname = "Gemiddlehook-cy";
lastChange = "2025-09-15 23:08:40 +0000";
layers = (
{
layerId = "FD4D3FDD-DE85-408F-A52A-FF600B1C6101";
paths = (
{
closed = 1;
nodes = (
"616 342 OFFCURVE",
"512 432 OFFCURVE",
"356 432 CURVE SMOOTH",
"258 432 OFFCURVE",
"161 399 OFFCURVE",
"114 352 CURVE",
"112 353 LINE",
"126 420 LINE",
"144 666 LINE",
"650 666 LINE",
"654 714 LINE",
"92 714 LINE",
"42 0 LINE",
"92 0 LINE",
"112 289 LINE",
"164 345 OFFCURVE",
"260 382 OFFCURVE",
"353 382 CURVE SMOOTH",
"490 382 OFFCURVE",
"576 305 OFFCURVE",
"568 189 CURVE SMOOTH",
"561 87 OFFCURVE",
"505 -16 OFFCURVE",
"428 -69 CURVE",
"458 -105 LINE",
"553 -40 OFFCURVE",
"616 84 OFFCURVE",
"616 206 CURVE SMOOTH"
);
}
);
width = 672;
},
{
layerId = m002;
paths = (
{
closed = 1;
nodes = (
"801 325 OFFCURVE",
"669 432 OFFCURVE",
"472 432 CURVE SMOOTH",
"392 432 OFFCURVE",
"312 410 OFFCURVE",
"272 382 CURVE",
"270 383 LINE",
"283 439 LINE",
"290 546 LINE",
"802 546 LINE",
"814 714 LINE",
"92 714 LINE",
"42 0 LINE",
"252 0 LINE",
"266 187 LINE",
"308 233 OFFCURVE",
"386 264 OFFCURVE",
"460 264 CURVE SMOOTH",
"532 264 OFFCURVE",
"580 223 OFFCURVE",
"580 162 CURVE SMOOTH",
"580 65 OFFCURVE",
"513 -14 OFFCURVE",
"412 -35 CURVE",
"603 -167 LINE",
"722 -94 OFFCURVE",
"801 39 OFFCURVE",
"801 165 CURVE SMOOTH"
);
}
);
width = 838;
}
);
leftKerningGroup = H;
leftMetricsKey = H;
rightKerningGroup = "Dje-cy";
rightMetricsKey = b;
unicode = 0494;
},
{
color = 10;
glyphname = "De-cy";
lastChange = "2025-09-15 23:08:42 +0000";
layers = (
{
layerId = "FD4D3FDD-DE85-408F-A52A-FF600B1C6101";
paths = (
{
closed = 1;
nodes = (
"260 714 LINE",
"181 164 LINE SMOOTH",
"170 88 OFFCURVE",
"123 48 OFFCURVE",
"46 48 CURVE SMOOTH",
"25 48 LINE",
"15 -100 LINE",
"65 -100 LINE",
"72 0 LINE",
"722 0 LINE",
"715 -100 LINE",
"765 -100 LINE",
"775 48 LINE",
"725 48 LINE",
"772 714 LINE"
);
},
{
closed = 1;
nodes = (
"207 75 OFFCURVE",
"224 113 OFFCURVE",
"231 162 CURVE SMOOTH",
"303 666 LINE",
"719 666 LINE",
"675 48 LINE",
"179 48 LINE"
);
}
);
width = 830;
},
{
layerId = m002;
paths = (
{
closed = 1;
nodes = (
"334 714 LINE",
"265 293 LINE SMOOTH",
"251 212 OFFCURVE",
"206 168 OFFCURVE",
"136 168 CURVE SMOOTH",
"34 168 LINE",
"16 -100 LINE",
"226 -100 LINE",
"233 0 LINE",
"820 0 LINE",
"813 -100 LINE",
"1023 -100 LINE",
"1041 168 LINE",
"937 168 LINE",
"975 714 LINE"
);
},
{
closed = 1;
nodes = (
"456 203 OFFCURVE",
"468 244 OFFCURVE",
"475 291 CURVE SMOOTH",
"517 546 LINE",
"753 546 LINE",
"727 168 LINE",
"440 168 LINE"
);
}
);
width = 1088;
}
);
leftKerningGroup = "De-cy";
leftMetricsKey = J;
rightKerningGroup = "De-cy";
rightMetricsKey = L;
unicode = 0414;
},
{
color = 10;
glyphname = "Zhe-cy";
lastChange = "2025-09-15 23:08:44 +0000";
layers = (
{
anchors = (
{
name = Bottom;
position = "{418, 0}";
},
{
name = Top;
position = "{468, 714}";
}
);
layerId = "FD4D3FDD-DE85-408F-A52A-FF600B1C6101";
paths = (
{
closed = 1;
nodes = (
"466 334 LINE",
"468 334 LINE",
"754 0 LINE",
"812 0 LINE",
"515 357 LINE",
"863 714 LINE",
"803 714 LINE",
"472 382 LINE",
"470 382 LINE",
"493 714 LINE",
"443 714 LINE",
"420 382 LINE",
"418 382 LINE",
"131 714 LINE",
"73 714 LINE",
"371 358 LINE",
"22 0 LINE",
"82 0 LINE",
"413 334 LINE",
"415 334 LINE",
"393 0 LINE",
"443 0 LINE"
);
}
);
width = 871;
},
{
anchors = (
{
name = Bottom;
position = "{620, 0}";
},
{
name = Top;
position = "{670, 714}";
}
);
layerId = m002;
paths = (
{
closed = 1;
nodes = (
"746 299 LINE",
"748 299 LINE",
"988 0 LINE",
"1216 0 LINE",
"944 355 LINE",
"1267 714 LINE",
"1037 714 LINE",
"756 414 LINE",
"754 414 LINE",
"775 714 LINE",
"565 714 LINE",
"544 414 LINE",
"542 414 LINE",
"301 714 LINE",
"73 714 LINE",
"345 358 LINE",
"22 0 LINE",
"252 0 LINE",
"533 299 LINE",
"535 299 LINE",
"515 0 LINE",
"725 0 LINE"
);
}
);
width = 1275;
}
);
leftKerningGroup = "Zhe-cy";
leftMetricsKey = A;
rightKerningGroup = "Zhe-cy";
rightMetricsKey = A;
unicode = 0416;
},
{
color = 10;
glyphname = "Ze-cy";
lastChange = "2025-09-15 23:08:46 +0000";
layers = (
{
anchors = (
{
name = Bottom;
position = "{327, 0}";
},
{
name = Top;
position = "{377, 714}";
}
);
layerId = "FD4D3FDD-DE85-408F-A52A-FF600B1C6101";
paths = (
{
closed = 1;
nodes = (
"585 101 OFFCURVE",
"480 35 OFFCURVE",
"331 35 CURVE SMOOTH",
"182 35 OFFCURVE",
"88 97 OFFCURVE",
"95 192 CURVE",
"45 194 LINE",
"37 70 OFFCURVE",
"150 -13 OFFCURVE",
"329 -13 CURVE SMOOTH",
"508 -13 OFFCURVE",
"633 70 OFFCURVE",
"641 196 CURVE SMOOTH",
"648 284 OFFCURVE",
"594 355 OFFCURVE",
"508 371 CURVE",
"509 373 LINE",
"584 399 OFFCURVE",
"637 461 OFFCURVE",
"642 529 CURVE SMOOTH",
"650 646 OFFCURVE",
"544 725 OFFCURVE",
"377 725 CURVE SMOOTH",
"204 725 OFFCURVE",
"84 648 OFFCURVE",
"76 530 CURVE",
"126 528 LINE",
"132 617 OFFCURVE",
"232 677 OFFCURVE",
"375 677 CURVE SMOOTH",
"512 677 OFFCURVE",
"598 619 OFFCURVE",
"592 531 CURVE SMOOTH",
"586 451 OFFCURVE",
"491 396 OFFCURVE",
"354 396 CURVE SMOOTH",
"307 396 LINE",
"304 348 LINE",
"352 348 LINE SMOOTH",
"503 348 OFFCURVE",
"598 289 OFFCURVE",
"591 198 CURVE SMOOTH"
);
}
);
width = 695;
},
{
anchors = (
{
name = Bottom;
position = "{392, 0}";
},
{
name = Top;
position = "{442, 714}";
}
);
layerId = m002;
paths = (
{
closed = 1;
nodes = (
"571 187 OFFCURVE",
"499 155 OFFCURVE",
"395 155 CURVE SMOOTH",
"299 155 OFFCURVE",
"238 185 OFFCURVE",
"242 231 CURVE",
"42 235 LINE",
"32 86 OFFCURVE",
"170 -13 OFFCURVE",
"388 -13 CURVE SMOOTH",
"609 -13 OFFCURVE",
"763 78 OFFCURVE",
"773 215 CURVE SMOOTH",
"777 284 OFFCURVE",
"736 346 OFFCURVE",
"670 370 CURVE",
"676 372 LINE",
"728 397 OFFCURVE",
"766 452 OFFCURVE",
"770 509 CURVE SMOOTH",
"779 639 OFFCURVE",
"644 726 OFFCURVE",
"433 726 CURVE SMOOTH",
"218 726 OFFCURVE",
"67 628 OFFCURVE",
"56 482 CURVE",
"256 478 LINE",
"259 526 OFFCURVE",
"327 558 OFFCURVE",
"426 558 CURVE SMOOTH",
"514 558 OFFCURVE",
"572 534 OFFCURVE",
"570 499 CURVE SMOOTH",
"567 462 OFFCURVE",
"507 437 OFFCURVE",
"419 437 CURVE SMOOTH",
"369 437 LINE",
"360 307 LINE",
"414 307 LINE SMOOTH",
"513 307 OFFCURVE",
"577 278 OFFCURVE",
"574 234 CURVE SMOOTH"
);
}
);
width = 816;
}
);
leftKerningGroup = "Ze-cy";
leftMetricsKey = O;
rightKerningGroup = "Ze-cy";
rightMetricsKey = O;
unicode = 0417;
},
{
color = 10;
glyphname = "Ii-cy";
lastChange = "2025-09-15 23:08:49 +0000";
layers = (
{
anchors = (
{
name = Bottom;
position = "{354, 0}";
},
{
name = Top;
position = "{404, 714}";
}
);
layerId = "FD4D3FDD-DE85-408F-A52A-FF600B1C6101";
paths = (
{
closed = 1;
nodes = (
"100 83 LINE",
"98 83 LINE",
"142 714 LINE",
"92 714 LINE",
"42 0 LINE",
"92 0 LINE",
"658 631 LINE",
"660 631 LINE",
"616 0 LINE",
"666 0 LINE",
"716 714 LINE",
"666 714 LINE"
);
}
);
width = 744;
},
{
anchors = (
{
name = Bottom;
position = "{424, 0}";
},
{
name = Top;
position = "{474, 714}";
}
);
layerId = m002;
paths = (
{
closed = 1;
nodes = (
"276 310 LINE",
"274 310 LINE",
"302 714 LINE",
"92 714 LINE",
"42 0 LINE",
"252 0 LINE",
"622 404 LINE",
"624 404 LINE",
"596 0 LINE",
"806 0 LINE",
"856 714 LINE",
"646 714 LINE"
);
}
);
width = 884;
}
);
leftKerningGroup = H;
leftMetricsKey = N;
rightKerningGroup = H;
rightMetricsKey = N;
unicode = 0418;
},
{
color = 10;
glyphname = "Ka-cy";
lastChange = "2025-09-15 23:08:51 +0000";
layers = (
{
anchors = (
{
name = Bottom;
position = "{286, 0}";
},
{
name = Top;
position = "{361, 714}";
}
);
layerId = "FD4D3FDD-DE85-408F-A52A-FF600B1C6101";
paths = (
{
closed = 1;
nodes = (
"42 0 LINE",
"92 0 LINE",
"110 260 LINE",
"274 381 LINE",
"593 0 LINE",
"664 0 LINE",
"315 412 LINE",
"723 714 LINE",
"648 714 LINE",
"117 322 LINE",
"115 322 LINE",
"142 714 LINE",
"92 714 LINE"
);
}
);
width = 731;
},
{
anchors = (
{
name = Bottom;
position = "{380, 0}";
},
{
name = Top;
position = "{455, 714}";
}
);
layerId = m002;
paths = (
{
closed = 1;
nodes = (
"42 0 LINE",
"252 0 LINE",
"265 191 LINE",
"384 285 LINE",
"603 0 LINE",
"858 0 LINE",
"541 411 LINE",
"923 714 LINE",
"635 714 LINE",
"284 434 LINE",
"282 434 LINE",
"302 714 LINE",
"92 714 LINE"
);
}
);
width = 931;
}
);
leftKerningGroup = H;
leftMetricsKey = K;
rightKerningGroup = K;
rightMetricsKey = K;
unicode = 041A;
},
{
color = 10;
glyphname = "El-cy";
lastChange = "2025-09-15 23:08:53 +0000";
layers = (
{
layerId = "FD4D3FDD-DE85-408F-A52A-FF600B1C6101";
paths = (
{
closed = 1;
nodes = (
"219 714 LINE",
"180 164 LINE SMOOTH",
"175 91 OFFCURVE",
"135 47 OFFCURVE",
"73 47 CURVE SMOOTH",
"54 47 OFFCURVE",
"36 48 OFFCURVE",
"25 51 CURVE",
"22 3 LINE",
"37 1 OFFCURVE",
"55 0 OFFCURVE",
"71 0 CURVE SMOOTH",
"164 0 OFFCURVE",
"223 60 OFFCURVE",
"230 162 CURVE SMOOTH",
"266 666 LINE",
"790 666 LINE",
"743 0 LINE",
"793 0 LINE",
"843 714 LINE"
);
}
);
width = 871;
},
{
layerId = m002;
paths = (
{
closed = 1;
nodes = (
"162 714 LINE",
"127 221 LINE SMOOTH",
"125 188 OFFCURVE",
"103 167 OFFCURVE",
"71 167 CURVE SMOOTH",
"55 167 OFFCURVE",
"47 167 OFFCURVE",
"34 170 CURVE",
"27 3 LINE",
"38 1 OFFCURVE",
"64 0 OFFCURVE",
"97 0 CURVE SMOOTH",
"239 0 OFFCURVE",
"327 81 OFFCURVE",
"337 221 CURVE SMOOTH",
"360 546 LINE",
"704 546 LINE",
"666 0 LINE",
"876 0 LINE",
"926 714 LINE"
);
}
);
width = 954;
}
);
leftKerningGroup = "El-cy";
leftMetricsKey = J;
rightKerningGroup = N;
rightMetricsKey = N;
unicode = 041B;
},
{
color = 10;
glyphname = "Pe-cy";
lastChange = "2025-09-15 23:08:55 +0000";
layers = (
{
layerId = "FD4D3FDD-DE85-408F-A52A-FF600B1C6101";
paths = (
{
closed = 1;
nodes = (
"139 666 LINE",
"663 666 LINE",
"616 0 LINE",
"666 0 LINE",
"716 714 LINE",
"92 714 LINE",
"42 0 LINE",
"92 0 LINE"
);
}
);
width = 744;
},
{
layerId = m002;
paths = (
{
closed = 1;
nodes = (
"290 546 LINE",
"634 546 LINE",
"596 0 LINE",
"806 0 LINE",
"856 714 LINE",
"92 714 LINE",
"42 0 LINE",
"252 0 LINE"
);
}
);
width = 884;
}
);
leftKerningGroup = H;
leftMetricsKey = H;
rightKerningGroup = H;
rightMetricsKey = H;
unicode = 041F;
},
{
color = 10;
glyphname = "U-cy";
lastChange = "2025-09-15 23:08:57 +0000";
layers = (
{
anchors = (
{
name = Top;
position = "{396, 714}";
}
);
layerId = "FD4D3FDD-DE85-408F-A52A-FF600B1C6101";
paths = (
{
closed = 1;
nodes = (
"719 714 LINE",
"665 714 LINE",
"386 251 LINE",
"384 251 LINE",
"124 714 LINE",
"72 714 LINE",
"357 204 LINE",
"310 126 LINE SMOOTH",
"274 66 OFFCURVE",
"245 37 OFFCURVE",
"196 37 CURVE SMOOTH",
"178 37 OFFCURVE",
"156 40 OFFCURVE",
"145 46 CURVE",
"143 -5 LINE",
"157 -10 OFFCURVE",
"174 -13 OFFCURVE",
"191 -13 CURVE SMOOTH",
"265 -13 OFFCURVE",
"310 34 OFFCURVE",
"364 124 CURVE SMOOTH"
);
}
);
width = 727;
},
{
anchors = (
{
name = Top;
position = "{487, 714}";
}
);
layerId = m002;
paths = (
{
closed = 1;
nodes = (
"901 714 LINE",
"692 714 LINE",
"477 401 LINE",
"475 401 LINE",
"279 714 LINE",
"72 714 LINE",
"364 238 LINE",
"346 212 LINE SMOOTH",
"322 178 OFFCURVE",
"291 154 OFFCURVE",
"238 154 CURVE SMOOTH",
"228 154 OFFCURVE",
"214 156 OFFCURVE",
"200 162 CURVE",
"193 -4 LINE",
"208 -9 OFFCURVE",
"233 -13 OFFCURVE",
"271 -13 CURVE SMOOTH",
"395 -13 OFFCURVE",
"464 70 OFFCURVE",
"565 219 CURVE SMOOTH"
);
}
);
width = 909;
}
);
leftKerningGroup = "U-cy";
leftMetricsKey = Y;
rightKerningGroup = "U-cy";
rightMetricsKey = Y;
unicode = 0423;
},
